<svg xmlns="http://www.w3.org/2000/svg" viewBox="0 0 1280 924"><defs><style>.cls-1{fill:#282828;}.cls-2,.cls-4{opacity:0.75;}.cls-3,.cls-4,.cls-5,.cls-7{fill:none;}.cls-3,.cls-4{stroke:#efefef;stroke-miterlimit:10;stroke-width:0.1px;}.cls-5{stroke:#98971a;}.cls-5,.cls-7{stroke-linecap:round;stroke-linejoin:round;stroke-width:0.75px;}.cls-6{fill:#83a598;}.cls-6,.cls-7{opacity:0.5;}.cls-7{stroke:#83a598;}</style></defs><g id="frame"><rect class="cls-1" width="1280" height="933"/></g><g id="K_-Streets" data-name="K -Streets"><g class="cls-2"><polyline class="cls-3" points="234.04 464.36 234.04 464.57 236.42 464.57 236.42 464.36"/><path class="cls-3" d="M697.34,509.92v0c.15-9,.26-18,.26-27,0-6.5-.09-13-.34-19.48q-.6-14.88-2.44-29.68c-.86-7-2-13.95-3.4-20.85-.51-2.37-1-4.75-1.62-7.12-.95-3.89-2-7.76-3-11.62-.51-1.94-1-3.87-1.56-5.78-.5-1.64-1-3.28-1.68-4.88a56.34,56.34,0,0,0-3.72-7.25c-1.49-2.52-3.09-5-4.77-7.4-2.12-3-4.37-5.92-6.71-8.78-1.13-1.43-2.31-2.82-3.4-4.27-.63-.84-1.24-1.7-1.81-2.58a11,11,0,0,1-1.68-3.87,7.76,7.76,0,0,1-.1-1.74,16.77,16.77,0,0,1,.14-2,12,12,0,0,1,1.05-3.74,8.51,8.51,0,0,1,2.55-3.07,10.09,10.09,0,0,1,2.06-1.15,21.52,21.52,0,0,1,2.79-1c1.28-.36,2.57-.63,3.87-.88,1.68-.36,3.38-.68,5.08-.95,2.23-.36,4.5-.63,6.75-.8,1.39-.08,2.77-.17,4.16-.19"/><path class="cls-3" d="M228.41,448.83a13.94,13.94,0,0,1,3.76.4A6,6,0,0,1,235,450.7a2.74,2.74,0,0,1,.4.5,5,5,0,0,1,.9,2,10.49,10.49,0,0,1,.17,2.31v8.87"/><path class="cls-3" d="M228.41,451.2c5.63,0,5.63,1.9,5.63,4.29v8.87"/><path class="cls-3" d="M192.33,428.23l.92.82a123.67,123.67,0,0,0,11.83,9.48,78.38,78.38,0,0,0,9.57,5.84c1.89,1,3.84,1.87,5.82,2.67.78.32,1.55.61,2.33.87a15.36,15.36,0,0,0,3,.79,15.86,15.86,0,0,0,2.48.13h21.81a89.1,89.1,0,0,1,12.76.59,39.62,39.62,0,0,1,5.48,1.18,57,57,0,0,1,6.1,2.2c6,2.52,11.7,5.59,17.65,8.2,2.17,1,4.37,1.87,6.64,2.67a39.77,39.77,0,0,0,5.7,1.59,44.76,44.76,0,0,0,5.17.63c3.05.22,6.09.3,9.14.38,2.61.07,5.21.13,7.82.11,3,0,5.92-.13,8.91-.06,1.49,0,3,.1,4.45.21,2.23.18,4.46.48,6.69.73,1.68.19,3.38.34,5.06.46,1.52.11,3,.17,4.54.21,5.26.15,10.53-.08,15.78.07,1.48,0,3,.1,4.44.21,1.26.1,2.52.21,3.78.35a16.21,16.21,0,0,1,3.47.72,7.18,7.18,0,0,1,2.52,1.47,9.34,9.34,0,0,1,1.47,1.72,20.54,20.54,0,0,1,1.73,3.24,39.23,39.23,0,0,1,1.53,4.43c.5,1.77,1,3.53,1.39,5.32a71.22,71.22,0,0,1,1.53,9.63c.25,2.69.36,5.4.46,8.09s.28,5.42.4,8.11"/><path class="cls-3" d="M190.73,430c13.45,12.15,22.68,16.67,28.12,18.93s7.12,2.27,9.46,2.27h21.81a98.62,98.62,0,0,1,11.2.4,40.6,40.6,0,0,1,11.1,2.93c4.29,1.7,9.48,4.35,14.52,6.7A94.7,94.7,0,0,0,301,466.86a47.26,47.26,0,0,0,11.58,1.56c4,.19,8.7.31,12.86.31s7.84-.12,10.95,0,5.66.42,8.56.76,6.15.65,9.33.8,6.3.1,9.52.08,6.58,0,9.62.08a75.9,75.9,0,0,1,7.65.65c1.89.32,2.92.7,3.95,1.85a17.54,17.54,0,0,1,3.09,6.08,78.35,78.35,0,0,1,2.63,10.46,73.94,73.94,0,0,1,1,8.47c.12,2.29.19,4.08.27,6.18s.23,4.5.38,7.32"/><path class="cls-3" d="M357.26,522.22c-17.25,4.89-34.46,9.88-51.61,15.13-4.54,1.41-9.08,2.82-13.6,4.29-5.38,1.74-10.76,3.57-16.14,5.31-5.93,1.9-11.9,3.68-17.76,5.76-3.74,1.33-7.46,2.78-11.22,4.12q-4.6,1.63-9.27,3c-5.65,1.7-11.39,3.13-17.07,4.77-2.73.78-5.46,1.62-8.13,2.6a59.08,59.08,0,0,0-6.2,2.72,77.23,77.23,0,0,0-12,7.71,125.61,125.61,0,0,0-11.45,9.92c-1.37,1.34-2.71,2.73-3.95,4.18-.82,1-1.58,2-2.34,3-1.07,1.43-2.1,2.86-3.19,4.27-1.79,2.31-3.72,4.54-5.55,6.83-2,2.61-3.95,5.32-5.82,8-4.25,6.24-8.3,12.61-12.38,19-4.48,7-9,13.93-13.26,21-3,5.07-5.91,10.22-8.79,15.35-2.12,3.78-4.24,7.54-6.55,11.2-2.1,3.32-4.37,6.55-6.75,9.71-2.21,2.94-4.52,5.82-6.85,8.65q-4.92,6-10,11.82c-1.52,1.76-3,3.53-4.73,5.14a53.57,53.57,0,0,1-4.08,3.58c-2.9,2.29-6,4.37-9,6.53s-6,4.37-9,6.56Q63.05,737.88,55.37,743c-2.13,1.43-4.27,2.84-6.46,4.18s-4.39,2.67-6.62,4c-3.48,2-7,4-10.55,6s-7.1,3.89-10.67,5.83q-3.94,2.1-7.9,4.16c-2.63,1.38-5.28,2.75-7.95,4.07Q-5,776.32-15.39,781.11c-19.34,9-39,17.11-58.89,24.8-7.21,2.8-14.38,5.7-21.46,8.81-4.33,1.89-8.62,3.89-12.76,6.14a71.64,71.64,0,0,0-6.91,4.22c-2,1.43-4,3-6,4.52-4.43,3.4-9,6.58-13.57,9.81-10,7.15-19.78,14.67-29.78,21.88-6.92,5-13.94,9.79-21,14.65-10.65,7.35-21.26,14.79-31.9,22.19q-34.65,24.15-69.44,48.11"/><path class="cls-3" d="M356.27,518.81c-51.38,14.61-66.36,19.78-76.94,23.27s-16.7,5.29-22.38,7.29-10.84,4.16-17.84,6.35-15.76,4.35-22.26,6.32a66.89,66.89,0,0,0-15.19,6.35,101.76,101.76,0,0,0-13.79,9.79,115.85,115.85,0,0,0-11.28,10.74c-2.53,2.86-3.37,4.46-5.47,7.15s-5.46,6.41-10,12.82-10.32,15.44-15.68,23.81-10.3,16-14.86,23.94-8.76,16-13.45,23.2a202.82,202.82,0,0,1-14.58,19.23c-4.71,5.65-9,10.63-11.9,13.66S86,716.85,80.52,720.8s-14.75,10.76-22.91,16.39-15.19,10.09-33.2,19.9-47,25-100,45.52c-35.27,13.64-40.92,18.69-46.07,22.74s-9.77,7.06-16.86,12.21-16.6,12.4-25.74,19-17.84,12.55-29.93,21-27.53,19.25-94.86,65.8"/><path class="cls-3" d="M689.86,333.87q3.23,0,3.22,3.47h1.62l.1-5.86"/><path class="cls-3" d="M-86.22,448.64c11.5,1.3,23,2.33,34.57,2.86,8.41.38,16.82.48,25.2.15,6.49-.26,13-.78,19.48-1.41,8.91-.86,17.8-1.94,26.67-3.05,21.73-2.71,43.42-5.67,65.13-8.47,18.62-2.39,37.26-4.66,55.86-7.17,4.62-.63,9.27-1.26,13.87-2,4.18-.65,8.37-1.39,12.51-2.23,2.83-.57,5.65-1.2,8.42-2,3.07-.84,6.12-1.84,9.12-2.92q6-2.1,11.86-4.54c3.95-1.61,7.86-3.34,11.7-5.21,4.08-1.95,8.05-4.1,12-6.32,3.7-2.06,7.36-4.21,11-6.37,7.59-4.5,15.14-9.08,22.81-13.45,5.71-3.28,11.51-6.45,17.38-9.44q5.76-3,11.66-5.67c4.39-2,8.83-3.89,13.3-5.74,3.91-1.6,7.84-3.17,11.82-4.62,3.17-1.16,6.38-2.25,9.58-3.37,4.43-1.57,8.85-3.21,13.26-4.85,14.71-5.44,29.49-10.72,44.22-16.12,7.71-2.84,15.42-5.7,23.18-8.45,11.28-4,22.63-7.8,34-11.62,11.73-4,23.45-7.94,35.2-11.85,7.82-2.59,15.68-5.15,23.56-7.55,5-1.51,10-3,15.09-4.33,4.52-1.22,9.08-2.33,13.66-3.44l2.29-.55q5.52-1.32,11.06-2.52c5.23-1.14,10.48-2.19,15.76-3.11,3.23-.55,6.47-1.07,9.71-1.52,4.73-.65,9.45-1.15,14.2-1.66,6.83-.75,13.66-1.51,20.49-2.14,2.23-.19,4.46-.38,6.69-.52,3.68-.28,7.37-.47,11.07-.72,2.76-.21,5.49-.46,8.24-.76,4.75-.52,9.5-1.21,14.25-2q4.83-.72,9.63-1.58c1.38-.23,2.79-.48,4.16-.78,2.1-.44,4.16-.94,6.22-1.53,2.39-.69,4.77-1.49,7.14-2.33s5-1.79,7.48-2.82,4.94-2.21,7.4-3.38c4.16-2,8.3-4,12.4-6.05,1.33-.66,2.65-1.35,4-2,2.86-1.52,5.7-3.09,8.47-4.75,3.3-2,6.54-4,9.75-6.12,5.05-3.32,10-6.74,15-10.19,2-1.41,4.1-2.82,6.09-4.27,2.44-1.76,4.86-3.59,7.19-5.48,4.41-3.53,8.66-7.27,12.88-11,8.52-7.54,17-15.17,25.56-22.65,1.43-1.24,2.86-2.48,4.31-3.7q4.21-3.6,8.64-6.89c3.57-2.67,7.23-5.24,11-7.63,4.56-2.92,9.22-5.61,13.95-8.2,6-3.28,12-6.39,18.14-9.39,4.24-2.1,8.51-4.18,12.8-6.2,2.71-1.26,5.42-2.52,8.15-3.72a116.84,116.84,0,0,1,11.41-4.41c1.52-.49,3.07-.93,4.63-1.35,2-.53,4-1,6-1.53,4.75-1.18,9.57-2.21,14.38-3.09,6.49-1.18,13-2.06,19.61-2.76,7.25-.75,14.5-1.26,21.77-1.34,6.51-.09,13,.17,19.52.63,3.11.21,6.2.48,9.27.76,2.75.27,5.51.54,8.24.84,3.51.4,7,.86,10.53,1.47,3.28.54,6.54,1.24,9.79,1.95,4.1.93,8.18,2,12.26,3,4.39,1.07,8.78,2.14,13.15,3.36,6.07,1.68,12.11,3.61,18.22,5.23,2.65.69,5.34,1.35,8.05,1.85,3.66.69,7.36,1.18,11.06,1.72s7.35,1.18,11,1.81c4.9.84,9.77,1.68,14.69,2.44,1,.17,2.12.34,3.19.48s2.15.32,3.22.44c2.46.34,4.94.65,7.42.95s5,.55,7.46.76q7.85.69,15.7.88c4.87.1,9.77.08,14.65,0s9.75-.36,14.6-.7c2.31-.14,4.63-.31,6.94-.48s4.62-.36,6.91-.5c1.89-.13,3.78-.24,5.7-.32,2.2-.08,4.43-.15,6.66-.21,9.43-.23,18.87-.23,28.31-.46,49.83-1.14,58-5.26,68.66-7.32s23.85-2.08,35.16-1a138.78,138.78,0,0,1,31.88,6.8c11.14,3.66,23.94,8.85,33.85,14.42s16.94,11.5,27.56,22.28,24.8,26.39,48.71,47.87q-3.06,3.44-6.13,6.83-15.08-13.51-29.36-27.93c-6.5-6.55-12.87-13.28-19.34-19.88a174.13,174.13,0,0,0-13.43-12.63c-1.87-1.53-3.8-3-5.8-4.39s-4.08-2.65-6.2-3.85a143.5,143.5,0,0,0-14.58-7.14q-8.17-3.47-16.56-6.31a154.79,154.79,0,0,0-14.95-4.33,125.55,125.55,0,0,0-14.58-2.41,141.54,141.54,0,0,0-16.46-.82c-2.75,0-5.5.1-8.24.29a74.58,74.58,0,0,0-7.73.86c-3.49.57-6.93,1.47-10.38,2.25-4,.9-8.07,1.66-12.13,2.25-6.43.95-12.92,1.56-19.42,2-10.08.71-20.21,1.09-30.32,1.32-12.8.3-22.78.3-30.27.51s-12.46.63-18.09,1-11.9.84-19.44,1.07-16.41.25-25.45-.3-18.26-1.64-25.58-2.71-12.75-2-18-2.94-10.34-1.66-15-2.37a137.54,137.54,0,0,1-13.93-2.59c-5-1.24-10.85-3.11-17.76-5.06S1000,146.56,993.65,145s-11.16-2.62-16.27-3.49-10.59-1.51-18.53-2.22A249.38,249.38,0,0,0,929.11,138a263.1,263.1,0,0,0-33.59,3.3,222.29,222.29,0,0,0-22,4.75,91.47,91.47,0,0,0-16.31,5.78c-7.8,3.45-20,9.4-29.91,14.5a268,268,0,0,0-23.49,13.48,175.53,175.53,0,0,0-15.43,11.49c-4.26,3.53-7.82,6.68-13.64,11.88s-13.91,12.44-19.9,17.69-9.9,8.53-14,11.66-8.42,6.12-13.72,9.76-11.54,7.9-17.15,11.43S699.4,260,694.84,262.4s-8.74,4.33-12.54,6.15-7.23,3.56-11.44,5.26-9.22,3.44-13.17,4.66a91,91,0,0,1-12.21,2.9c-5.36,1-13.2,2.21-19.34,3S615.55,285.66,611,286s-9.21.5-17.3,1.24-19.61,2-26.71,2.83-9.79,1.2-14.19,1.94-10.46,1.85-18.53,3.61-18.12,4.18-26.69,6.49-15.64,4.48-24.59,7.36-19.8,6.52-29.55,9.77S435,325.4,424.51,329s-22.9,7.88-31.82,11.07-14.39,5.3-23.18,8.53-20.93,7.55-29.36,10.64-13.19,4.92-17.73,6.53-8.83,3-15,5.36-14.12,5.68-20.95,8.81S274,386,268.76,388.83s-9.9,5.4-17.23,9.73-17.36,10.4-25.3,14.92A206.57,206.57,0,0,1,205.59,424c-4,1.76-8.28,3.51-12.34,5.06-.86.32-1.7.63-2.52.95-1.91.71-3.74,1.37-5.42,1.93a116.85,116.85,0,0,1-15.18,4.14c-5.27,1.12-11.72,2.31-25.24,4.19s-34.08,4.41-50.43,6.49-28.54,3.7-43.21,5.65c-7.27,1-15.16,2-23.62,3.07l-2.34.27q-12,1.51-25.49,3c-19.61,2.16-41.63,4.2-87-1"/><path class="cls-3" d="M1107.43,437.94c-.82,38.86-2,77.72-4.12,116.56q-.91,16.71-2.06,33.41c-.82,12.19-1.74,24.38-2.69,36.55-.31,3.8-.61,7.61-1,11.39-.17,1.66-.33,3.34-.56,5a40.84,40.84,0,0,1-1.27,6.52,41.77,41.77,0,0,1-2.39,6c-1.49,3.09-3.13,6-4.81,9-4.12,7.28-8.37,14.48-12.49,21.76q-4.92,8.65-9.6,17.44c-3,5.55-5.87,11.12-8.56,16.79a109.68,109.68,0,0,0-5.27,13,74.24,74.24,0,0,0-2.73,11.89,85.89,85.89,0,0,0-1,12.49,82,82,0,0,0,.76,12.23c.27,2,.65,3.95,1.11,5.88a52,52,0,0,0,1.64,5.64,52.84,52.84,0,0,0,5,10.27,47.33,47.33,0,0,0,6.52,8.26c1.36,1.37,2.81,2.67,4.3,3.93,2.82,2.42,5.7,4.73,8.56,7.06q12.32,10,24.54,20.07c2.32,1.92,4.63,3.83,6.88,5.8,3,2.63,5.86,5.36,8.93,7.88a47.65,47.65,0,0,0,4.83,3.6,54.41,54.41,0,0,0,5.34,3c2.19,1.12,4.41,2.17,6.62,3.26,2.77,1.37,5.51,2.8,8.26,4.22,8.57,4.46,17.09,9,25.62,13.52q14,7.44,28.1,14.81,18.28,9.52,36.77,18.69c31.51,15.57,63.43,30.22,95.86,43.71"/><path class="cls-3" d="M1111,436.49c6-2.43,12.09-4.81,18.14-7.21q9.45-3.75,18.94-7.46c6.32-2.45,12.65-4.89,18.93-7.46,5.76-2.35,11.48-4.83,17.21-7.2,1.39-.57,2.8-1.14,4.18-1.67s2.84-1.05,4.27-1.53c3.13-1.09,6.28-2.08,9.46-3s6.39-1.76,9.62-2.54,6.62-1.51,9.94-2.18q5.86-1.2,11.73-2.17c3.36-.57,6.73-1.11,10.11-1.53q5.46-.66,11-1c4-.25,8-.36,12.08-.4q7.26-.09,14.53,0c8.09.17,16.18.49,24.21,1.45a99.46,99.46,0,0,1,19.65,4.16c2.83,1,5.61,2.08,8.34,3.28,3.49,1.52,6.93,3.16,10.42,4.67,2.38,1,4.75,2,7.19,2.86s4.83,1.64,7.31,2.29a109.84,109.84,0,0,0,16.31,3,172.24,172.24,0,0,0,19,1c3.41,0,6.81,0,10.22-.17s6.53-.33,9.79-.65,6.47-.78,9.69-1.34c4.68-.8,9.33-1.83,14-2.86"/><path class="cls-3" d="M395,514.82l.14,0c5.26-.25,10.51-.51,15.77-.82,14-.86,27.95-2.1,41.94-2.63,3.91-.14,7.84-.23,11.75-.31l2.9-.07,3.53-.06q25.15-.54,50.29-.9,22.2-.28,44.39-.32c6.49,0,13,0,19.5,0,6,0,12,0,18.06.13,5,.11,10.06.29,15.11.53,6.66.31,13.34.73,20,1.05s13.52.52,20.28.77c10.43.4,20.87.89,31.32,1.12l5.61.1c1.18,0,2.35,0,3.55,0q7.13.07,14.29,0c8.75-.08,17.51-.33,26.25-.63q9.43-.31,18.85-.71c17.85-.8,35.65-2,53.47-2.94q12.08-.67,24.17-1.12,8.82-.31,17.65-.46c6.91-.13,13.81-.19,20.72-.4,7.13-.21,14.25-.57,21.37-1,3.45-.23,6.9-.48,10.34-.84,2.15-.23,4.29-.48,6.41-.92,1.6-.34,3.2-.78,4.75-1.24,3.24-1,6.41-2.09,9.61-3.12s6.43-2,9.64-2.94L959,490.4c7.44-2.23,14.88-4.46,22.28-6.77q9.68-3,19.27-6.18,16.9-5.55,33.67-11.43c8.09-2.82,16.14-5.67,24.17-8.66q13.39-4.92,26.6-10.25c6.92-2.8,13.79-5.66,20.7-8.47l1.75-.7"/><path class="cls-3" d="M-116.69,453.16c14,11.37,16.56,14.77,19.27,17.36a57.52,57.52,0,0,0,6.56,5.17c1.8,1.3,3.57,2.65,5.21,3.84,1.43,1.06,2.77,2,4.14,3,2.42,1.72,4.87,3.47,7.4,5.08a86.15,86.15,0,0,0,9.2,5.24,76.43,76.43,0,0,0,10.09,4.05c4,1.29,8.11,2.27,12.23,3.16,5.25,1.11,10.57,2.06,15.87,2.92q9.48,1.54,19,2.71,9.9,1.23,19.86,2c7.16.55,14.33.91,21.52,1.16q6.24.19,12.5.32c15,.27,30,.29,45,.37,12.49.09,25,.21,37.46.47q15.54.28,31.08.86,13.62.5,27.21,1.24c23.14,1.22,46.24,2.81,69.36,4.16,9.77.59,19.54,1.11,29.31,1.39q9.9.24,19.8.19c11.56,0,23.1-.3,34.64-.68,4.47-.14,9-.29,13.42-.48"/><path class="cls-3" d="M356.27,518.81c6-1.72,5.24-2.41-2.33-2.16l-.55,0"/><path class="cls-3" d="M357.26,522.22c15.68-4.46,28.29-6.94,37.75-7.4h.14"/><path class="cls-3" d="M523.48,13.42c1.17.27,2.35.5,3.53.76,5.76,1.22,11.51,2.37,17.27,3.55-.16.78-.31,1.53-.48,2.31-10.53-2.12-16.64-3.36-21.06-4.35l-2.31-.57c-1.58-.38-2.94-.75-4.29-1.15-5.25-1.58-10.15-3.64-17.73-6.54S480.6.7,473.19-1.84a116.15,116.15,0,0,0-16.73-4.75c-4.71-.86-9.52-1.3-17.95-4.92S418-21.91,408.79-27.06s-15.72-8.63-21.14-11.54-9.79-5.21-13.45-7.06A94.3,94.3,0,0,0,364.62-50a88.62,88.62,0,0,1-9.42-3.55,41.86,41.86,0,0,1-10.46-7.19,22.64,22.64,0,0,1-5.7-8.93c-1-2.94-1.22-5.74-1.58-9.44s-.86-8.36-1.19-12.27-.53-7.14-1.26-12-2-11.2-3.07-19.54l2.35-.3c.36,3,.78,5.87,1.26,8.79.55,3.47,1.2,6.91,1.75,10.38.31,2,.58,4,.77,6s.34,4.08.53,6.1c.25,3,.63,6,.9,9s.44,6,.95,9a24.4,24.4,0,0,0,.76,3.23,18,18,0,0,0,1.28,3.09,22.39,22.39,0,0,0,5.08,6.18,35.61,35.61,0,0,0,7.78,5.26,70.91,70.91,0,0,0,8.26,3.27c1.2.42,2.39.84,3.57,1.31s2.5,1.07,3.72,1.66c1.68.8,3.34,1.64,5,2.5,5.11,2.63,10.22,5.29,15.28,8,11.62,6.24,23.06,12.84,34.7,19,3.74,2,7.5,3.95,11.37,5.71A69.08,69.08,0,0,0,446-11.25a62.07,62.07,0,0,0,6.5,1.55c2.16.42,4.32.76,6.47,1.22a112.53,112.53,0,0,1,13.32,3.85c5,1.66,9.88,3.44,14.8,5.25,6.11,2.27,12.23,4.58,18.3,7,2.55,1,5.07,2,7.63,2.86,2,.69,4,1.32,6.08,1.87.69.19,1.36.35,2,.52S522.7,13.23,523.48,13.42Z"/><path class="cls-3" d="M522.11,288.94c-1.6-12.42-3.84-13.26-5.9-14s-3.93-1.47-6.44-2.54a80.63,80.63,0,0,1-8-3.95c-2.46-1.45-4.27-2.88-5.34-5.38s-1.37-6.1-1.73-9.75-.73-7.34-1-13.94-.42-16.14-.78-22.86-.93-10.7-1.22-14.9a127.88,127.88,0,0,1-.08-13.33,80,80,0,0,1,1.47-13.83c.9-4.11,2.35-7.35,3.09-10.5s.71-6.22,2.5-9.65,5.31-7.19,7.18-12.46,2-12,2.59-18.37,1.41-12.42,2.29-19.25,1.85-14.44,3.22-22.74,3.17-17.25,4.37-23,1.78-8.26,2-11.12-.06-6,0-9.6.46-7.53.69-10.87A50.45,50.45,0,0,1,522,18c.19-.77.44-1.55.71-2.35s.49-1.49.74-2.27a30.37,30.37,0,0,0,1.15-4.69c.57-3.74.44-8.4.36-14s-.06-12-.06-16.73V-33.34c0-3.7,0-8.13-.09-11.81s-.25-6.64-.44-10.64-.44-9-.8-13.13a43.68,43.68,0,0,0-1.93-10.55c-1.09-3.26-2.8-6.62-5.44-15.55l-2.27.67c.86,2.88,1.76,5.76,2.79,8.57.76,2,1.56,4,2.29,6a34.69,34.69,0,0,1,1.14,3.72,36.84,36.84,0,0,1,.69,3.89c.19,1.51.34,3,.46,4.56.23,2.9.38,5.8.53,8.72.23,4.33.48,8.66.59,13s.1,8.39.1,12.59V-22c0,8,.15,16,.11,24.12A36.67,36.67,0,0,1,522.2,9a32.38,32.38,0,0,1-1.06,3.89c-.21.67-.44,1.35-.65,2l-.06.23a37.32,37.32,0,0,0-1.22,4.9c-.38,2.23-.46,4.48-.63,6.74-.23,3.3-.59,6.6-.67,9.9-.09,2.46,0,4.92,0,7.4a40.13,40.13,0,0,1-.19,4.79c-.11.84-.27,1.68-.42,2.52-.42,2.17-.86,4.33-1.32,6.5-1.54,7.46-3.07,15-4.31,22.49s-2.23,15.36-3.26,23c-.82,6-1.7,12.11-2.23,18.18-.4,4.37-.61,8.74-1.2,13.09a33.75,33.75,0,0,1-.92,4.79,22.79,22.79,0,0,1-1.56,4,32.72,32.72,0,0,1-2.1,3.57c-.86,1.28-1.74,2.57-2.58,3.89a23.85,23.85,0,0,0-1.85,3.36,20.72,20.72,0,0,0-1.07,3.2c-.49,2-.68,4-1.12,6-.5,2.2-1.34,4.3-2,6.47a47.58,47.58,0,0,0-1.69,7.31,82.85,82.85,0,0,0-.79,8.34,133.4,133.4,0,0,0-.05,15.87c.24,3.55.66,7.08.93,10.64.15,1.78.25,3.55.34,5.33.18,3.66.29,7.32.39,11,.17,5.78.32,11.56.7,17.3.25,3.59.57,7.19,1,10.76a31.4,31.4,0,0,0,1.1,6,12.15,12.15,0,0,0,1.13,2.65,11.06,11.06,0,0,0,1.58,2.14,18.09,18.09,0,0,0,4.14,3.16c1.55.92,3.19,1.76,4.83,2.54,3.26,1.53,6.62,2.88,10,4.12a8.84,8.84,0,0,1,.84.36,1.78,1.78,0,0,1,.54.48,2,2,0,0,1,.36.5,7.41,7.41,0,0,1,.74,1.62,25.59,25.59,0,0,1,1,3.53c.4,1.85.7,3.74.93,5.61C520.54,289.15,521.33,289,522.11,288.94Z"/><path class="cls-3" d="M82.52,506a29.64,29.64,0,0,0-.46-5.57,18.86,18.86,0,0,0-1.26-4,15.71,15.71,0,0,0-1.75-3A19.1,19.1,0,0,0,77,491.14a40.35,40.35,0,0,0-3.11-2.72,30.25,30.25,0,0,0-4.12-2.81,29.47,29.47,0,0,0-4.92-2c-2.14-.69-4.3-1.24-6.47-1.79-2.35-.59-4.71-1.22-7-2a42.31,42.31,0,0,1-6.18-2.69,51.25,51.25,0,0,1-5.67-3.72c-1.47-1.1-2.9-2.21-4.31-3.39a41.92,41.92,0,0,1-6.2-6.15,19.93,19.93,0,0,1-2.41-3.77,13.39,13.39,0,0,1-1.31-4.3"/><path class="cls-3" d="M84.89,506c0-10.46-4.07-14.67-7.6-17.76a30.16,30.16,0,0,0-10.87-6.6C62,480.06,56,479,51.23,477.22s-8.24-4-12.76-7.65-10.13-8.49-10.84-14.1"/><path class="cls-3" d="M695,509.88c.46-27.89.27-42.72-.61-56a321.11,321.11,0,0,0-4-33.5c-1.47-8.47-2.84-13.66-4.2-19s-2.69-10.9-4.08-14.92a44.43,44.43,0,0,0-4.56-9.39c-1.73-2.82-3.72-6-6-9.08s-4.9-6.2-7-8.89a33.7,33.7,0,0,1-4.67-7,11.45,11.45,0,0,1-.76-5.76,14.61,14.61,0,0,1,1.6-5.86,11.45,11.45,0,0,1,5-4.67c2.31-1.15,5.28-1.82,9.61-2.64a87.52,87.52,0,0,1,19.52-1.64"/><path class="cls-3" d="M695.35,509.88l2,0c7.23.09,14.48,0,23.54-.14,9.9-.21,22-.53,35.9-1.14S786.37,507,801,506.2s28.33-1.55,40.33-1.91,22.4-.36,33-.67,21.35-.95,28.14-1.51,9.56-1.1,12.61-2,6.37-2.12,16.88-5.34,28.2-8.38,42.87-12.88,26.35-8.34,41.23-13.41,32.93-11.35,47.67-16.9,26.14-10.36,39.09-15.61,27.42-11,39.15-15.57,20.64-8.05,27.7-11,12.23-5.3,18.24-7.55a202.28,202.28,0,0,1,19.88-6.18c7-1.78,14.1-3.26,21.14-4.52a206.64,206.64,0,0,1,21.9-3c8-.61,17-.74,26-.65s18,.4,26.12,1.22a108.6,108.6,0,0,1,21.79,4.2,153.18,153.18,0,0,1,17.24,7.08,116.2,116.2,0,0,0,14.73,5.68,99.78,99.78,0,0,0,16.1,3.34,168.41,168.41,0,0,0,19.21,1.24,200.77,200.77,0,0,0,20.61-.76c6.43-.59,12-1.55,23.86-4.18"/><path class="cls-3" d="M-92.46,459.3c4.54,12.88,8.74,16.87,13.89,20.84a89,89,0,0,0,17.86,10.74c6.62,2.9,13.73,4.77,24.32,6.79s24.69,4.14,38.46,5.55S29.26,505.3,48,505.64c10.38.16,22.4.23,34.57.31h2.37c8.94,0,17.89.11,26.29.21,20.62.23,37.92.74,51.12,1.24s22.31,1,34.42,1.7,27.19,1.62,42,2.53,29.3,1.82,41.3,2.27,21.5.42,30.43.33,17.31-.21,29.71-.63,28.84-1.15,40.42-1.66c4.58-.21,8.4-.38,11.83-.52l2.35-.13c4.21-.19,7.88-.4,11.86-.63,7.77-.46,16.64-1.11,24.92-1.66s16-1,23.9-1.28,16-.36,27.67-.57,27-.55,39.39-.74,21.81-.16,30.64-.19,17-.1,23.2-.1,10.32.13,15,.13,9.85-.07,17.48.18,17.72.89,28.52,1.39,22.32.91,32.15,1.26,17.72.68,25.54.8"/><path class="cls-3" d="M467.51,511c.34,16.06.11,30.23,0,41.66s-.12,20.15-.25,26.77-.42,11.16-.59,18.66-.17,18,0,30.29.46,26.46.5,35.62-.19,13.37-.52,17.82-.74,9.21-.84,16.69.14,17.76.19,30.18-.07,26.94-.23,43.63-.38,35.49-.64,50.94-.56,27.49-.94,38-.82,19.46-1.35,31.14-1.11,26.11-1.72,37.5-1.24,19.75-1.89,27.23-1.24,14.1-.48,20.09A44.49,44.49,0,0,0,464,992.83a28.61,28.61,0,0,0,8.34,9.84,49.3,49.3,0,0,0,11.06,5.65,46.48,46.48,0,0,0,10,2.65c4.22.71,10.3,1.43,21.25,2.2"/><path class="cls-3" d="M471,510.91c.19,8.62.17,17.26.15,25.87-.06,12.59-.13,25.18-.34,37.77-.08,5.59-.19,11.16-.4,16.75-.08,2.79-.21,5.59-.27,8.36-.08,3.68-.08,7.38-.08,11.06,0,9.71.08,19.44.23,29.15.14,8.78.38,17.54.33,26.33,0,4.87-.08,9.75-.4,14.63-.21,3.23-.52,6.47-.69,9.73-.15,2.6-.21,5.23-.25,7.84-.08,7.83.08,15.65.15,23.47q.06,7.7.06,15.38c0,5.87-.06,11.71-.11,17.55q-.15,20.52-.42,41-.21,19.78-.58,39.57-.17,7.88-.38,15.72c-.26,8-.57,16-.91,24q-.78,18.6-1.66,37.18c-.42,9.52-.84,19-1.49,28.56-.48,7.25-1.09,14.52-1.66,21.77-.21,2.69-.4,5.38-.42,8.09,0,1.22,0,2.42.11,3.64s.18,2.29.35,3.42a40.47,40.47,0,0,0,3.95,11.9,39.08,39.08,0,0,0,2.71,4.6,24.38,24.38,0,0,0,2.91,3.49,23.16,23.16,0,0,0,3.59,2.79,35.8,35.8,0,0,0,4.24,2.36c1.43.67,2.88,1.28,4.33,1.87,1.2.46,2.42.92,3.66,1.3s2.4.65,3.61.9c1.64.34,3.28.61,4.94.85,2.46.35,4.94.63,7.42.88,3.62.36,7.23.63,10.85.9l.25,0"/><path class="cls-3" d="M695.62,513.43c3.3,51.79,8.6,88.38,13,116.52s7.81,47.79,10.63,65.21,5,32.53,7.36,48.59,4.91,33,8.47,47.07,8.07,25.31,13.07,37.62S758.6,854.21,764,867.39s10.78,26,16.66,40.47S793,938.31,798.81,954.2s10.93,31.69,14.48,44,5.48,21.12,6.07,26.77-.23,8.18-.36,10.93a27.88,27.88,0,0,0,1.2,8.3,55.63,55.63,0,0,1,2.52,10.93c.85,6.2,1.62,16.39,2.17,29.82s.84,30.1,1.07,40.94.38,15.83.93,19.57,1.49,6.22,5.36,15.89,10.63,26.48,20.53,41.9"/><path class="cls-3" d="M699.15,513.2c0,.09,0,.17,0,.25,1.3,20.37,3.05,40.71,5.38,61,1.83,16,4,31.95,6.43,47.88q2.68,17.63,5.61,35.2c1.52,9.2,3.09,18.41,4.59,27.64q3.72,22.56,7,45.22c1.7,11.62,3.34,23.27,5.27,34.87,1.18,7,2.44,13.93,4.06,20.8,1.4,6.08,3.07,12.09,5.06,18,1.83,5.49,3.93,10.87,6,16.25,3.75,9.41,7.59,18.77,11.42,28.12q7.33,17.9,14.73,35.83c6.64,16.1,13.34,32.2,19.67,48.44,6,15.45,11.68,31,16.79,46.83q3,9.19,5.65,18.49c1.39,4.83,2.69,9.69,3.83,14.56a102.3,102.3,0,0,1,2,10.68,39.86,39.86,0,0,1,.36,7.15c-.08,1.59-.31,3.19-.44,4.79a20.16,20.16,0,0,0,0,3.11,19,19,0,0,0,.59,3.32c.33,1.3.73,2.56,1.09,3.84.48,1.64.9,3.32,1.24,5a80.29,80.29,0,0,1,1.2,8.47c.44,4.35.78,8.7,1,13,.42,6.89.71,13.78.92,20.68.47,14.5.61,29,1.08,43.5.08,2.37.16,4.75.42,7.12a29.5,29.5,0,0,0,.46,3.11c.15.74.34,1.48.55,2.21.29,1,.65,1.93,1,2.9,1.43,3.85,2.95,7.67,4.48,11.48,2.46,6,5,11.93,7.76,17.78a186.33,186.33,0,0,0,11.3,20.55"/><path class="cls-3" d="M1111,436.49c-1.91,90-4.94,133.73-6.83,160.1s-2.62,35.37-3.28,41.36-1.15,9-2.41,12.38-3.22,7.32-6.77,13.6-8.66,15-14.19,24.8S1066.09,709.55,1062,718s-6.24,14.17-7.63,20.45a85.05,85.05,0,0,0-1.89,19.71,65.85,65.85,0,0,0,2.84,18.79,48.2,48.2,0,0,0,8.09,15.22c3.34,4.16,7.13,7.23,15.62,14.12s21.68,17.59,29.46,24.21,10.13,9.16,13.14,11.37a63.65,63.65,0,0,0,9.94,5.67c3.28,1.58,6.2,2.86,36.63,19s88.39,47.23,161.69,77.74"/><path class="cls-3" d="M695,509.88h.36l2,0"/></g></g><g id="K_-_Buidings" data-name="K - Buidings"><line class="cls-4" x1="537.08" y1="492.37" x2="537.08" y2="497.53"/><polyline class="cls-4" points="537.08 497.53 535.19 497.53 535.19 505.2 546.33 505.2 546.33 497.53 542.72 497.53"/><polyline class="cls-4" points="541.38 490.85 541.38 483.74 534.78 483.74 534.78 492.37 537.08 492.37"/><polyline class="cls-4" points="476.22 596.41 476.22 599.28 499.92 599.28 499.92 596.77"/><polyline class="cls-4" points="499.92 583.25 499.92 580.61 476.22 580.61 476.22 584.92"/><polyline class="cls-4" points="476.22 584.92 472.87 584.92 472.87 596.41 476.22 596.41"/><line class="cls-4" x1="506.74" y1="583.25" x2="499.92" y2="583.25"/><line class="cls-4" x1="499.92" y1="596.77" x2="506.74" y2="596.77"/><polyline class="cls-4" points="506.74 596.77 506.74 599.28 531.51 599.28 531.51 580.97 506.74 580.97 506.74 583.25"/><polyline class="cls-4" points="454.45 583.63 463.09 583.63 463.09 572.79 457.83 572.79"/><line class="cls-4" x1="447.15" y1="582.06" x2="447.15" y2="583.63"/><polyline class="cls-4" points="447.15 583.63 447.15 586.07 454.45 586.07 454.45 583.63"/><polyline class="cls-4" points="449.61 570.28 439.14 570.28 439.14 582.06 447.15 582.06"/><polyline class="cls-4" points="457.83 572.79 459.34 572.79 459.34 567.87 449.61 567.87 449.61 572.79"/><polyline class="cls-4" points="435.11 556.24 435.11 560.43 441.53 560.43 441.53 552.99"/><polyline class="cls-4" points="441.53 556.24 441.53 546.57 430.27 546.57 430.27 556.24 435.11 556.24"/><polyline class="cls-4" points="380.92 532.79 380.92 533.86 391.1 533.86 391.1 527.56 386.25 527.56"/><polyline class="cls-4" points="386.25 527.56 386.25 522.9 374.23 522.9 374.23 532.79 380.92 532.79"/><line class="cls-4" x1="345.3" y1="586.64" x2="345.3" y2="589.35"/><line class="cls-4" x1="347.85" y1="589.35" x2="347.85" y2="586.64"/><polyline class="cls-4" points="345.3 589.35 342.95 589.35 342.95 597.4 350.32 597.4 350.32 589.35 347.85 589.35"/><polyline class="cls-4" points="341.31 582.28 341.31 586.64 345.3 586.64"/><polyline class="cls-4" points="347.85 586.64 351.1 586.64 351.1 582.28"/><polyline class="cls-4" points="351.1 582.28 360.89 582.28 360.89 571.13 341.31 571.13 341.31 582.28"/><polyline class="cls-4" points="161.13 641.15 166.49 629.04 174.46 632.57 164.91 654.13 156.94 650.6"/><polyline class="cls-4" points="156.94 650.6 151.64 648.25 155.83 638.8 161.13 641.15"/><polyline class="cls-4" points="189.25 519.3 166.57 519.3 166.57 528.32 193.42 528.32 193.42 519.3"/><polyline class="cls-4" points="189.25 528.32 193.42 528.32 193.42 514.65 189.25 514.65 189.25 519.3"/><polyline class="cls-4" points="145.17 562.39 131.35 562.39 131.35 589.01 145.17 589.01 145.17 571.89"/><polyline class="cls-4" points="145.17 571.89 162.05 571.89 162.05 562.39 131.35 562.39 131.35 571.89"/><polyline class="cls-4" points="81.04 551.86 81.04 558.5 118.03 558.5 118.03 551.86 92.05 551.86"/><line class="cls-4" x1="92.05" y1="551.86" x2="92.05" y2="541.86"/><polyline class="cls-4" points="92.05 516.25 81.04 516.25 81.04 558.5 92.05 558.5"/><polyline class="cls-4" points="92.05 541.86 103.06 541.86 103.06 533.48 92.05 533.48"/><line class="cls-4" x1="81.04" y1="533.48" x2="81.04" y2="541.86"/><line class="cls-4" x1="92.05" y1="533.48" x2="92.05" y2="523.79"/><polyline class="cls-4" points="92.05 523.79 103.78 523.79 103.78 516.25 81.04 516.25 81.04 523.79"/><polyline class="cls-4" points="542.72 497.53 542.72 490.85 541.38 490.85"/><polyline class="cls-4" points="621.39 506.1 630.49 506.1 630.49 497.25 610.96 497.25 610.96 506.1 613.83 506.1"/><polyline class="cls-4" points="613.83 506.1 613.83 508.32 621.39 508.32 621.39 506.1"/><polyline class="cls-4" points="422.37 533.03 422.37 528.64 403.29 528.64 403.29 545.68 422.37 545.68 422.37 542.14"/><polyline class="cls-4" points="422.37 542.14 428.5 542.14 428.5 533.03 422.37 533.03"/><polyline class="cls-4" points="457.9 559.07 460.03 559.07 460.03 545.3 450.64 545.3 450.64 559.07 452.77 559.07"/><rect class="cls-4" x="1169.64" y="329.71" width="18.03" height="7.98" transform="translate(-29.71 534.82) rotate(-25.26)"/><rect class="cls-4" x="1144.04" y="361.58" width="6.93" height="7.31" transform="translate(-46.11 524.77) rotate(-25.27)"/><rect class="cls-4" x="1209.38" y="327.81" width="7.66" height="7.66" transform="translate(-25.5 549.5) rotate(-25.26)"/><rect class="cls-4" x="1220.53" y="343.65" width="7.85" height="12.13" transform="translate(-48.56 381.69) rotate(-17.38)"/><rect class="cls-4" x="1216.36" y="366.37" width="8.98" height="9.22" transform="translate(-41.57 556.47) rotate(-25.26)"/><rect class="cls-4" x="1194.67" y="367.45" width="13.17" height="12.33" transform="translate(-44.57 548.31) rotate(-25.26)"/><rect class="cls-4" x="1172.97" y="345.11" width="26.33" height="13.17" transform="translate(-36.65 539.82) rotate(-25.26)"/><rect class="cls-4" x="1156.32" y="355.96" width="12.81" height="11.97" transform="matrix(0.9, -0.43, 0.43, 0.9, -43.27, 530.79)"/><polyline class="cls-4" points="452.77 559.07 452.77 560.78 457.9 560.78 457.9 559.07"/><rect class="cls-4" x="1163.91" y="379.58" width="23.44" height="11.26" transform="translate(-48.6 563.42) rotate(-26.42)"/><rect class="cls-4" x="1222.41" y="397.78" width="19.46" height="12.33" transform="translate(-54.57 564.31) rotate(-25.26)"/><rect class="cls-4" x="1132.82" y="469.06" width="8.64" height="8.72"/><rect class="cls-4" x="1021.6" y="517.38" width="6.22" height="7.18"/><rect class="cls-4" x="968.22" y="537.37" width="6.58" height="11.37"/><rect class="cls-4" x="946.08" y="534.26" width="17.35" height="12.81"/><rect class="cls-4" x="942.49" y="556.88" width="33.03" height="11.25"/><rect class="cls-4" x="911.91" y="555.72" width="26.08" height="13.28"/><rect class="cls-4" x="891.46" y="566.29" width="16.29" height="9.21"/><rect class="cls-4" x="891.75" y="534.68" width="15.51" height="11.34"/><rect class="cls-4" x="869.35" y="555.67" width="14.16" height="9.32" transform="translate(-11.33 18.12) rotate(-1.18)"/><rect class="cls-4" x="870.03" y="546.32" width="6.88" height="4.85"/><rect class="cls-4" x="870.03" y="535.07" width="13.77" height="11.25"/><rect class="cls-4" x="849" y="554.07" width="15.12" height="8.82"/><rect class="cls-4" x="999.41" y="485.36" width="14.6" height="7.54" transform="translate(-109.15 402.17) rotate(-21.46)"/><rect class="cls-4" x="869.55" y="449.31" width="8.43" height="10.47"/><rect class="cls-4" x="883.61" y="462.2" width="21.04" height="12.41"/><rect class="cls-4" x="861.8" y="475.1" width="12.99" height="21.13"/><rect class="cls-4" x="741.96" y="528.05" width="17.16" height="20.07"/><rect class="cls-4" x="714.24" y="529.89" width="13.57" height="12.99"/><rect class="cls-4" x="720.25" y="518.16" width="9.99" height="7.66"/><rect class="cls-4" x="699.71" y="480.56" width="15.03" height="11.83"/><rect class="cls-4" x="685.85" y="498.2" width="7.85" height="10.57"/><rect class="cls-4" x="670.63" y="475.9" width="13.96" height="8.24"/><rect class="cls-4" x="669.56" y="458.94" width="15.41" height="8.43"/><rect class="cls-4" x="669.8" y="529.88" width="12.56" height="11.7"/><rect class="cls-4" x="640.35" y="529.96" width="13.27" height="12.33"/><rect class="cls-4" x="642.57" y="499.04" width="7.51" height="7.7"/><rect class="cls-4" x="632.08" y="497.57" width="7.82" height="9.29"/><rect class="cls-4" x="609.53" y="597.46" width="12.26" height="9.53"/><rect class="cls-4" x="553.07" y="584.63" width="9.74" height="13.45"/><rect class="cls-4" x="458.32" y="591.74" width="7.14" height="26.46"/><rect class="cls-4" x="464.77" y="628.97" width="26.93" height="8.86" transform="translate(-167.88 1094.31) rotate(-88.45)"/><rect class="cls-4" x="541.13" y="414.71" width="15.63" height="10.68"/><rect class="cls-4" x="475.92" y="411.67" width="10.97" height="8.24"/><rect class="cls-4" x="475" y="404.46" width="5.56" height="5.77"/><rect class="cls-4" x="548.39" y="455.69" width="8.81" height="15.69"/><rect class="cls-4" x="580.86" y="526.34" width="10.05" height="8.6"/><rect class="cls-4" x="560.59" y="525.95" width="16.65" height="8.97"/><rect class="cls-4" x="527.85" y="524.9" width="13.48" height="8.92"/><rect class="cls-4" x="501.67" y="525.56" width="14.63" height="11.08"/><rect class="cls-4" x="485.13" y="524.38" width="12.26" height="10.49"/><rect class="cls-4" x="473.3" y="524.52" width="9.31" height="6.94"/><rect class="cls-4" x="487.1" y="549.8" width="10.13" height="9.35"/><rect class="cls-4" x="473.12" y="549.17" width="11.62" height="9.82"/><rect class="cls-4" x="491.06" y="491.64" width="13.57" height="9.69"/><rect class="cls-4" x="467.11" y="468.83" width="12.33" height="10.21"/><rect class="cls-4" x="445.99" y="493.13" width="14.57" height="10.05"/><rect class="cls-4" x="421.45" y="468.82" width="7.15" height="6.05"/><rect class="cls-4" x="395.54" y="466" width="16.1" height="10.99"/><rect class="cls-4" x="404.12" y="491.05" width="19.85" height="11.39"/><rect class="cls-4" x="359.69" y="501" width="5.62" height="5.33"/><rect class="cls-4" x="367.54" y="502.35" width="10.37" height="7.85"/><rect class="cls-4" x="404.32" y="554.68" width="17.84" height="14.35"/><rect class="cls-4" x="332" y="572" width="6.01" height="9.79"/><rect class="cls-4" x="248.87" y="639.65" width="8.87" height="7.3"/><rect class="cls-4" x="225.87" y="567.78" width="6.24" height="16.73" transform="translate(-162.43 95.34) rotate(-17.47)"/><rect class="cls-4" x="203.27" y="590.34" width="15.67" height="7.11" transform="translate(-196.26 112.93) rotate(-20.7)"/><rect class="cls-4" x="200.18" y="573.05" width="18.05" height="10.7" transform="translate(-165.85 90.9) rotate(-17.69)"/><rect class="cls-4" x="138.94" y="493.11" width="7.76" height="8.82"/><rect class="cls-4" x="200.78" y="531.83" width="6.94" height="5.91"/><rect class="cls-4" x="170.93" y="563.31" width="12.12" height="9.31"/><rect class="cls-4" x="180.83" y="540.11" width="10.49" height="17.73"/><rect class="cls-4" x="138.73" y="590.35" width="6.2" height="11.07"/><rect class="cls-4" x="99.13" y="579.22" width="23.91" height="8.85"/><rect class="cls-4" x="84.07" y="570.91" width="16.52" height="7.42"/><rect class="cls-4" x="147.96" y="516.58" width="12.31" height="10.18"/><rect class="cls-4" x="140.68" y="530.16" width="6.5" height="5.91"/><rect class="cls-4" x="151.57" y="537.1" width="19.49" height="10.18"/><rect class="cls-4" x="133.15" y="545.92" width="6.69" height="10.08"/><polyline class="cls-4" points="462.58 544.54 462.58 548.72 467.39 548.72 467.39 544.54"/><polyline class="cls-4" points="462.05 532.01 462.05 529.53 450.35 529.53 450.35 532.01"/><polyline class="cls-4" points="467.39 544.54 467.39 532.01 462.05 532.01"/><polyline class="cls-4" points="450.35 532.01 443.99 532.01 443.99 544.54 462.58 544.54"/><polyline class="cls-4" points="510.34 556.4 510.34 548.39 499.9 548.39 499.9 556.4 501.47 556.4"/><polyline class="cls-4" points="501.47 556.4 501.47 559.23 510.34 559.23 510.34 556.4"/><polyline class="cls-4" points="614.68 575.31 607.68 575.31 607.68 585.96 621.68 585.96 621.68 575.31"/><polyline class="cls-4" points="628.15 563.61 634.13 563.61 634.13 555.78 628.15 555.78"/><polyline class="cls-4" points="621.68 575.31 628.15 575.31 628.15 563.61"/><polyline class="cls-4" points="628.15 555.78 628.15 540.24 614.68 540.24 614.68 575.31"/><polyline class="cls-4" points="997.48 560.28 992.45 560.28 992.45 568.42 997.84 568.42"/><polyline class="cls-4" points="997.48 560.28 997.48 555.73 1012.56 555.73 1012.56 568.54 1006.69 568.54"/><polyline class="cls-4" points="997.84 568.42 997.84 594.15 1006.69 594.15 1006.69 568.42"/><polyline class="cls-4" points="970.69 470.53 970.69 461.8 959.93 461.8 959.93 477.8 970.69 477.8"/><polyline class="cls-4" points="965.31 477.8 973.01 477.8 973.01 470.53 970.69 470.53"/><polyline class="cls-4" points="1161.1 463.2 1157.11 465.2 1153.23 457.44 1168.15 449.98 1172.03 457.74 1169.11 459.2"/><polyline class="cls-4" points="1169.11 459.2 1171.45 463.88 1163.44 467.88 1161.1 463.2"/><polyline class="cls-4" points="1148.32 348.86 1145.88 343.69 1131.55 350.45 1136.25 360.4 1150.57 353.64"/><polyline class="cls-4" points="1151.43 349.65 1164.2 343.62 1160.92 336.66 1148.15 342.69 1150.56 347.81"/><polyline class="cls-4" points="1150.57 353.64 1152.34 357.38 1154.58 356.32 1151.43 349.65"/><line class="cls-4" x1="1150.56" y1="347.81" x2="1148.32" y2="348.86"/><rect class="cls-4" x="223.39" y="464.58" width="17.04" height="12.96"/><rect class="cls-4" x="1148.47" y="372.82" width="9.69" height="14.12" transform="translate(-51.83 528.41) rotate(-25.26)"/><line class="cls-4" x1="691.55" y1="345.31" x2="696.29" y2="345.31"/><polyline class="cls-4" points="696.29 339.22 696.29 337.33 691.55 337.33 691.55 339.22"/><polyline class="cls-4" points="691.55 339.22 689.78 339.22 689.78 345.31 698.91 345.31 698.91 339.22 696.29 339.22"/></g><g id="Pipes"><polyline class="cls-5" points="268.02 610.56 228.43 594.77 211.55 601.9"/><line class="cls-5" x1="166.52" y1="529.15" x2="122.31" y2="551.15"/><line class="cls-5" x1="219.43" y1="580.76" x2="271.86" y2="604.47"/><polyline class="cls-5" points="307.24 594.96 315.2 592.61 329.03 594.32 342.95 596.16 368.35 589.4 439.14 576.17"/><line class="cls-5" x1="363.74" y1="590.63" x2="363.22" y2="565.22"/><line class="cls-5" x1="222.51" y1="597.27" x2="224.91" y2="532.85"/><polyline class="cls-5" points="166.53 529.15 168.62 538.39 172.98 538.39 172.98 558.75"/><polyline class="cls-5" points="361.82 538.58 364.08 523.67 370.19 514.95 381.27 507.8"/><polyline class="cls-5" points="355.47 571.13 355.47 569.43 416.75 569.43 416.75 545.68"/><polyline class="cls-5" points="416.75 545.68 447.35 545.68 447.35 528.73 453.26 528.73 453.26 503.18"/><polyline class="cls-5" points="494.32 607.66 494.32 537.09 498.92 537.09 515.76 511.17 515.76 503.79 535.21 503.79"/><line class="cls-5" x1="515.77" y1="503.79" x2="376.44" y2="503.79"/><polyline class="cls-5" points="377.2 526.09 373.32 526.09 373.32 503.79 376.44 503.79"/><polyline class="cls-5" points="494.32 537.09 494.32 529.58 477.44 529.58 477.44 477.11"/><polyline class="cls-5" points="477.44 488.46 576.31 443.08 600.11 464.52"/><polyline class="cls-5" points="576.31 443.08 584.33 402.16 573.32 323.64 567.62 234.53 549.08 135.67 538.31 114.24 527.05 67.17 544.17 11.99"/><polyline class="cls-5" points="544.17 11.99 557.34 -62.49 570.34 -96.18 574.97 -164.59 559.52 -218.14 553.16 -240.21"/><polyline class="cls-5" points="437.36 573.76 469.01 573.76 474.82 560.22 474.82 554.8"/><line class="cls-5" x1="195.28" y1="433.96" x2="184.48" y2="417.16"/><line class="cls-5" x1="556.38" y1="329.88" x2="573.32" y2="323.64"/><polyline class="cls-5" points="378.01 544.85 395.37 533.83 409.02 519.23 441.45 493.25 461.32 484.6 465.08 471.52 486.83 467.12 504.96 448.49"/><line class="cls-5" x1="170.08" y1="417.97" x2="166.27" y2="537.1"/></g><g id="ponds_and_water" data-name="ponds and water"><path class="cls-6" d="M516.12,396.72c-1.7-.65-3.19-2.94-4.9-4.92a16.48,16.48,0,0,0-5.84-4.58,15.47,15.47,0,0,0-6.64-1c-2.07.1-3.78.44-4.87.15s-1.55-1.2-1.62-2.61a19.63,19.63,0,0,1,.82-5.63,18,18,0,0,1,3.2-7.1,14.94,14.94,0,0,1,7-4.35,15.31,15.31,0,0,1,8-.42,36.54,36.54,0,0,1,7.78,3.05c2.24,1.09,3.88,1.89,5.35,3.82a12.11,12.11,0,0,1,2.29,8.87,27.89,27.89,0,0,1-4.81,11.49C519.73,396.38,517.82,397.37,516.12,396.72Z"/><path class="cls-6" d="M722.18,496.62a6.87,6.87,0,0,1-3.49-3.42c-.8-1.86-.89-4.59-.78-7.23a18.91,18.91,0,0,1,1.82-8,28,28,0,0,1,6.41-8.13,24.36,24.36,0,0,1,8.2-4.88,22.27,22.27,0,0,1,8.9-.82,46.07,46.07,0,0,1,12.56,2.21,17.38,17.38,0,0,1,8.67,6.67,18.79,18.79,0,0,1,3.11,10.06,19,19,0,0,1-2.78,10.34,11.64,11.64,0,0,1-9.28,5.89c-4.5.38-10.63-1.32-16-2a69.62,69.62,0,0,0-12.63-.16C724.2,497.33,723.36,497.19,722.18,496.62Z"/><path class="cls-6" d="M821.68,449.75a16.07,16.07,0,0,1-4.19-6.78c-.93-2.91-1-6.11-2.47-8.72s-4.4-4.66-7.13-6.69-5.29-4.08-8.55-6.08a50.22,50.22,0,0,0-11.17-5.21A102,102,0,0,0,777,413.94a24.61,24.61,0,0,1-8.61-3.14,23.31,23.31,0,0,1-8-7.91,28.11,28.11,0,0,1-3.69-12.13A12.12,12.12,0,0,1,759,382.5c1.49-1.95,3.47-3.23,6.9-4.39a56,56,0,0,1,12.27-2.53,36.25,36.25,0,0,1,11.38,1c4.39.94,10.15,2.39,14.86,3.41a91.36,91.36,0,0,0,11.81,1.89c3.43.29,6.63.29,8.93.26a12.6,12.6,0,0,0,6.53-1.45c2.81-1.36,7.05-4,11.35-6.05a42.09,42.09,0,0,1,12-3.82,17.79,17.79,0,0,1,7.73.69c1.94.57,3.43,1.18,4.29,2.5a7.43,7.43,0,0,1,.84,4.88c-.25,1.55-1,2.62-.93,4s.84,3.17.7,4.92-1.2,3.51-3.39,4.91-5.52,2.42-7.83,4.46a10.2,10.2,0,0,0-3.51,7.52c.1,2.43,1.58,4.22,1.89,6.45a11.84,11.84,0,0,1-2,7.29c-1.45,2.39-3.48,4.49-4.88,7.45s-2.18,6.8-3,10.21-1.63,6.38-3.55,8.47-4.92,3.3-7.77,4.17a64,64,0,0,1-7.47,1.77C824.25,450.88,823.14,451,821.68,449.75Z"/><path class="cls-6" d="M1049.87,545.37c-3.5-.22-6-.89-7.81-2.32a13.05,13.05,0,0,1-4-6.44c-.94-2.79-1.57-6.17-2.3-9a43.72,43.72,0,0,0-2.69-7.73,74.75,74.75,0,0,0-4-7.52c-1.4-2.31-2.76-4.27-4-6.38a20.6,20.6,0,0,1-2.88-6.45,8.16,8.16,0,0,1,1-5.47,12.21,12.21,0,0,1,4.65-4.54A65,65,0,0,1,1039,484.2a160.47,160.47,0,0,1,16.46-5.13c5.51-1.39,10.51-2.28,15.08-3a103.4,103.4,0,0,1,11.8-1.32c3.09-.09,5.11.24,6.69,1.25a14.13,14.13,0,0,1,3.91,4.62,21.67,21.67,0,0,1,3.07,6.5,20.4,20.4,0,0,1,0,8.2,95.33,95.33,0,0,1-2.47,9.38,73.69,73.69,0,0,1-3.82,11.19c-1.72,3.63-4.07,6.83-6.64,10.84s-5.35,8.81-8.81,12a24.33,24.33,0,0,1-12,5.72A48.4,48.4,0,0,1,1049.87,545.37Z"/><path class="cls-6" d="M1112.52,764.32a6.07,6.07,0,0,1-4.42.09c-1.34-.55-2.17-1.72-3.24-2.62a12,12,0,0,0-4.29-2.11,28.55,28.55,0,0,0-7.25-1.33,38.78,38.78,0,0,0-8.21.73c-2.46.45-4.39,1-6.38,1.38a11.9,11.9,0,0,1-12-3,15.49,15.49,0,0,1-3.81-5,9.47,9.47,0,0,1-.83-5.18,12.77,12.77,0,0,1,1.82-5c.92-1.52,2.1-2.77,3.54-5a87.81,87.81,0,0,0,4.46-8.3c1.3-2.73,2.21-4.91,3.5-7.15a45.08,45.08,0,0,0,4.23-8.08,102.61,102.61,0,0,0,2.87-11.79c.76-3.5,1.43-5.75,1.93-7.83s.83-4,1.13-5.46a8.73,8.73,0,0,1,1-3.12,2.85,2.85,0,0,1,1.73-1.12,8.1,8.1,0,0,1,1.8-.24,6.31,6.31,0,0,0,1.71-.24,3.11,3.11,0,0,0,1.4-1,4.85,4.85,0,0,0,1.07-2.8c.15-1.5,0-3.76.07-5.42a8.53,8.53,0,0,1,.73-3.52,13.91,13.91,0,0,1,1.3-1.94,13.25,13.25,0,0,1,2.28-2.68,70.77,70.77,0,0,1,6.83-5.42c2.7-1.9,5.48-3.58,7.49-4.08s3.23.18,4.77,1.25a22.19,22.19,0,0,1,4.47,3.95,4.47,4.47,0,0,1,.94,4.24c-.44,1.55-1.62,3.36-2.93,5.87a66.35,66.35,0,0,0-3.79,8.72,34.41,34.41,0,0,0-1.85,8.87,91.69,91.69,0,0,0,0,10.85c.19,4,.47,8.27.92,12.84s1.06,9.42,1.69,13.33a77.36,77.36,0,0,1,1.44,11.26,54.06,54.06,0,0,1-1.18,13.67c-.94,3.49-2.45,4.67-3,5.94s0,2.64-.13,3.83A3.14,3.14,0,0,1,1112.52,764.32Z"/><path class="cls-6" d="M1081.23,804.3c.45,1.1,1.53,2.28,4.11,3.07s6.66,1.19,10,3.18,5.91,5.57,7.79,8.49,3.05,5.17,4.68,6.41a6.58,6.58,0,0,0,5.49,1c1.77-.43,3.25-1.51,4.58-4.26a32.31,32.31,0,0,0,2.72-11.18,26.39,26.39,0,0,0-1.48-10.17c-.94-2.62-2.07-4.29-2.56-6.1s-.33-3.73-3.06-4.71-8.34-1-12-.33a17.59,17.59,0,0,0-7.31,3.17,35.71,35.71,0,0,1-5.61,2.85,26.4,26.4,0,0,0-4.92,2.17,6.24,6.24,0,0,0-2.25,3.14A4.26,4.26,0,0,0,1081.23,804.3Z"/><path class="cls-6" d="M1084.55,922.24A20.82,20.82,0,0,1,1077.3,912c-1-3.26-.38-5.63-.71-7.92a13.18,13.18,0,0,0-2.8-6.08c-1.26-1.59-2.56-2.54-3.63-4.07a11.09,11.09,0,0,1-2-5.86,10.1,10.1,0,0,1,2-6.45,14.45,14.45,0,0,1,6.2-4.24c2.59-1,5.61-1.81,7.77-3.35s3.45-3.88,4.75-7.52,2.59-8.61,3.89-12,2.6-5.23,4.83-6.62a15.13,15.13,0,0,1,7.81-2.25,9.75,9.75,0,0,1,5.55,2.33,13.39,13.39,0,0,1,3.87,3.7c1,1.58,1.61,3.72,3,6.32s3.46,5.64,4.81,8.66a26,26,0,0,1,2.12,10.53,60.55,60.55,0,0,1-1.26,15.08c-1.11,4.43-3,7.18-5.17,10.48s-4.56,7.16-7.88,11.51-7.56,9.19-12.26,10.84S1088.37,925.1,1084.55,922.24Z"/><path class="cls-6" d="M295.6,627.43a18.68,18.68,0,0,0,7.81-1.24,17.2,17.2,0,0,0,6.19-5.4,13.63,13.63,0,0,0,2.88-6.08,24.33,24.33,0,0,0-.2-8.74,25.77,25.77,0,0,0-3.46-9.08c-1.6-2.35-3.58-3.6-5.35-5.93s-3.31-5.74-5.12-7.93a8.81,8.81,0,0,0-5.89-3.4,12.24,12.24,0,0,0-5.28.69,3,3,0,0,0-2.14,1.92c-.56,1.16-1.31,3.11-2.16,5.2s-1.81,4.32-2.78,6.29a27.19,27.19,0,0,1-3.21,5.17c-1.23,1.5-2.68,2.8-4.38,4.79a26.76,26.76,0,0,0-4.56,7,8.08,8.08,0,0,0,0,6.2,12.83,12.83,0,0,0,4.07,4.78,22.13,22.13,0,0,0,8,4.45c3.35.93,7.38.9,9.91,1S293.52,627.4,295.6,627.43Z"/><path class="cls-6" d="M188.43,638.89a9.29,9.29,0,0,1-4-2.46c-.79-1-.76-2.27-1-3.66a21,21,0,0,0-1.11-4.21,22.58,22.58,0,0,0-1.84-3.69,31.52,31.52,0,0,0-3.2-4.73,26.11,26.11,0,0,0-3.55-3.19,4.63,4.63,0,0,1-2-3.1,10.22,10.22,0,0,1,.87-5.26,10.81,10.81,0,0,1,3-3.52,23.86,23.86,0,0,1,3.57-2.88,18.66,18.66,0,0,1,5-2,13.68,13.68,0,0,1,5.26-.38,15.57,15.57,0,0,1,4.67,1.59,9.92,9.92,0,0,1,3.4,2.77,13.47,13.47,0,0,1,3.21,13.17c-.41,2.13-.91,3.86-1.14,5.33a17.26,17.26,0,0,0-.06,4.39,23.54,23.54,0,0,1,0,5.88,8.86,8.86,0,0,1-2.51,4.73,7,7,0,0,1-4.08,2A9.76,9.76,0,0,1,188.43,638.89Z"/><path class="cls-6" d="M135.19,706.44a19.29,19.29,0,0,1-7.36-.2,14.59,14.59,0,0,1-4.67-2.17,26.86,26.86,0,0,1-3.66-2.55,4.93,4.93,0,0,1-1.75-3.06,9.45,9.45,0,0,1,.54-4.27,8.7,8.7,0,0,1,2.47-3.72,10.29,10.29,0,0,1,4.35-2.06,48.39,48.39,0,0,0,5.07-1,12,12,0,0,0,4.1-2.69c1.19-1.12,2.24-2.32,3.32-3.3a10.5,10.5,0,0,1,3-2,1.79,1.79,0,0,1,1.8.19,1.59,1.59,0,0,1,.66,1.72c-.15.89-.83,2.19-1.37,3.91a19.14,19.14,0,0,0-.9,6.07,53.54,53.54,0,0,0,.86,6.67c.33,2.11.48,4-.58,5.51S137.72,706,135.19,706.44Z"/><path class="cls-6" d="M156.48,417.17a7.19,7.19,0,0,1-5.11-4.13,6.19,6.19,0,0,1-.91-4.24,12.65,12.65,0,0,1,2.25-4.39,7.08,7.08,0,0,1,3-2.72c1.2-.46,2.75-.43,5.11-.49s5.55-.22,9.51-.17,8.69.29,11.7.51,4.31.4,5,1.31.88,2.55,1.15,4.52.63,4.25.71,5.65-.14,1.94-1.16,2.65a13.32,13.32,0,0,1-5.88,2,103.62,103.62,0,0,1-12,.29C165.06,418,159.71,418,156.48,417.17Z"/><path class="cls-6" d="M732.88,844a18.09,18.09,0,0,1-7.31,6.25c-2.53,1-4.57.26-6.74-.22a38.47,38.47,0,0,1-6.7-1.69,8.47,8.47,0,0,1-5.14-5.14c-.8-2.62-.26-6.25.09-8.78s.53-4-.35-6.07-2.84-5-4.75-8.25-3.77-7-4.3-10.46S698,803,698.75,800s1.59-5.85,3.1-8a10.79,10.79,0,0,1,6.52-4.35,15.4,15.4,0,0,1,8.73.54c2.57,1,4.35,2.88,6.43,4.47s4.48,2.93,6.61,5.37a23,23,0,0,1,4.83,9.75,32.79,32.79,0,0,1,.35,10.46,24.58,24.58,0,0,1-1.28,5.72,11.75,11.75,0,0,0-.89,5.46c.27,2.08,1.42,4.47,1.73,7A10.87,10.87,0,0,1,732.88,844Z"/><rect class="cls-6" x="524.62" y="323.43" width="31.76" height="19.55"/><path class="cls-6" d="M511.93,453.86a35.4,35.4,0,0,1-6.87-5.27,51.56,51.56,0,0,1-5.1-5.72,17.68,17.68,0,0,1-3.18-5.89,12.56,12.56,0,0,1,0-6.69,25.72,25.72,0,0,1,2.86-5.88,46,46,0,0,0,2.25-4.32,12.64,12.64,0,0,1,1.81-3.33,1.51,1.51,0,0,1,2.26,0c.74.7,1.39,2.09,2.92,3.31s3.94,2.27,6.71,3.74,5.89,3.36,7.7,5.63,2.3,4.93,3.51,7.64,3.12,5.45,3.82,9.26.17,8.65-1.35,11-4,2.2-7.23,1.18A52.25,52.25,0,0,1,511.93,453.86Z"/><path class="cls-6" d="M363.1,566c1.6-.08,3.09.62,4.42.93a7.88,7.88,0,0,0,4-.2,5.4,5.4,0,0,0,4.07-3.18c.84-2.11.77-5.61,1.1-7.83a19.53,19.53,0,0,1,1.5-4.46,10.18,10.18,0,0,0,.26-4.59,7.11,7.11,0,0,0-2-4.24c-1.1-1-2.68-1.22-5.07-1.82s-5.56-1.54-8-1.88a41.4,41.4,0,0,0-5.43-.15c-1.45-.08-2.74-.5-3.82.14s-2,2.36-2.46,5.5-.63,7.69-.81,11.08-.4,5.63.07,7.12,1.63,2.24,2.92,3a8.36,8.36,0,0,0,4.29,1.54C359.79,567,361.51,566.09,363.1,566Z"/><path class="cls-6" d="M1137.31,704.19a7.58,7.58,0,0,1-3,1.39,4.05,4.05,0,0,1-3-1,11.35,11.35,0,0,1-1.85-2.2,2.94,2.94,0,0,1-.82-1.78,7.76,7.76,0,0,1,.78-4.1c.78-1.61,2.28-3.26,2.85-4.64s.2-2.5.41-3.49a3.14,3.14,0,0,1,1.85-2.21,4.23,4.23,0,0,1,3,.28,7.76,7.76,0,0,1,3.37,2.15c.78,1,.91,2.27.44,4.18s-1.54,4.43-1.9,6.18,0,2.72-.24,3.45S1138.23,703.6,1137.31,704.19Z"/><path class="cls-6" d="M1250.13,407.9c.81,2.78,1.86,5,3.32,5.89a4.45,4.45,0,0,0,4.94-.44,13.75,13.75,0,0,0,3.89-4.8c1-1.84,1.71-3.65,1.28-5.3a7.39,7.39,0,0,0-3.59-4.07,10.73,10.73,0,0,0-5.27-1.28c-2,0-4.26.22-5.11,2S1249.31,405.13,1250.13,407.9Z"/></g><g id="creeks"><path class="cls-7" d="M1261.06,410.55c22.27,15.49,30.12,20.94,41.45,26.28s26.12,10.55,46.89,15.09"/><path class="cls-7" d="M709.72,787.38C690.49,729.9,686.9,701.17,684.3,676s-4.18-46.68.22-73.47"/><path class="cls-7" d="M717.17,788.19c1.52-25.84,3.78-28.63,5.49-32.08s2.87-7.54,2.16-11.4-3.29-7.47-4.67-11.32a20.68,20.68,0,0,1-.55-12c1-4.1,3.2-8.22,5.95-13.4s6.06-11.4,7.05-17.27-.34-11.4-.88-17a73.37,73.37,0,0,1,.4-16.29c.66-5.14,1.73-9.84,1.77-13.83a19,19,0,0,0-2.75-10.33c-1.81-3.06-4.47-5.89-6-12s-2-15.38-2-22.12.31-10.91,1.91-14.59a31,31,0,0,1,7.14-9.48c2.7-2.62,5.27-4.66,8.66-7.78s7.6-7.34,10.81-10.12,5.44-4.15,8-7.92a70.19,70.19,0,0,0,6.89-14.69,36.27,36.27,0,0,0,2-11.64,34.69,34.69,0,0,0-1.06-10.49c-.95-3-2.63-5.15-2.76-7.5s1.33-4.9,2.79-8.59a129.07,129.07,0,0,0,4-12.49c1.07-4,1.74-7,1.27-9.78a15.1,15.1,0,0,0-3.42-6.94,8.44,8.44,0,0,0-4.36-2.9c-1.88-.64-4.54-1.25-7.52-2.24s-6.27-2.36-8.58-2.92a18.1,18.1,0,0,0-5.85-.26c-2.21.07-5.32,0-8,.33a37.35,37.35,0,0,0-6.72,1.74,20.25,20.25,0,0,1-5.06,1.09c-1.77.11-3.84,0-5.75,0a24.54,24.54,0,0,1-5.44-.17,6.66,6.66,0,0,1-4.92-4c-1.29-2.7-2-7.16-7.48-9.84"/><path class="cls-7" d="M706.28,455.84c-3.89-9.85-3.15-12.66-3.23-14.93a9.23,9.23,0,0,0-2.21-5.6c-1.24-1.59-2.83-3-3.42-5.18a14.53,14.53,0,0,1,.55-7.45,19.22,19.22,0,0,1,3.38-6.36,49.38,49.38,0,0,0,5.42-7.71,33.92,33.92,0,0,0,3.05-11.07c.52-4.2.62-8.83,1.26-14.13s1.8-11.3,2.29-15.9a31.15,31.15,0,0,0-.25-10.31c-.56-2.52-1.52-4.35-.65-15.69"/><path class="cls-7" d="M721.89,462.07c0-3.38-1.26-5.09-2-6.87s-1.13-3.64-2.07-6.34-2.49-6.26-3.11-8.49-.31-3.12.34-3.94a29.73,29.73,0,0,0,2.46-2.81,23,23,0,0,0,2.12-4.95,23.71,23.71,0,0,1,2.45-5.75,21.65,21.65,0,0,1,4.35-4.31c1.51-1.27,2.87-2.48,4.59-4.21a49.45,49.45,0,0,1,5.67-5.32,19.07,19.07,0,0,1,5.4-2.36c1.8-.64,3.72-1.5,5.41-2.2a30,30,0,0,1,4.77-1.6,28.36,28.36,0,0,0,7-2.25"/><path class="cls-7" d="M743.57,464.2c-2.24-8.53-2.5-10.93-2.57-14.16s0-7.29.14-11.43.14-8.38.44-12.71.85-8.77,2.1-12.06a11.18,11.18,0,0,1,6.17-6.75c3-1.3,6.95-1.75,10.66-4"/><path class="cls-7" d="M767.44,496.38q2.07-5.92-.39-8.34"/><path class="cls-7" d="M771.13,485c1.64-5.87,4.68-5.12,6.56-4.41s2.58,1.4,3.81.53,3-3.28,4.54-5.05a33.92,33.92,0,0,1,4.78-4.29,36.85,36.85,0,0,1,6.86-4.48c3.12-1.55,7.36-3.06,10.9-5.36s6.38-5.4,8.83-7,4.48-1.76,5.53-4.43"/><path class="cls-7" d="M732.88,844c10.22,6.92,17.29,6.87,22.25,6.46s7.79-1.18,10.28-3.08,4.65-4.91,8.68-6.53a23.92,23.92,0,0,1,14.83-.32,24.86,24.86,0,0,1,11.67,8.15,21.72,21.72,0,0,1,5,11.67c.57,4.67.07,10.42.32,14.48a15.16,15.16,0,0,0,3.3,9.15,56,56,0,0,0,9.12,9.09c4,3.27,8.87,6.71,11.42,11.09s2.77,9.7,2.88,18,.1,19.46.94,29.12,2.52,17.77,4.91,23.42,5.49,8.84,9.37,16.42,8.54,19.55,13.86,43.76"/><path class="cls-7" d="M832.2,912.22c-2.09-17.59,2-23.41,5-28.18s5.09-8.49,9.08-13.8,9.92-12.2,16.9-12.9"/><path class="cls-7" d="M805.46,859.32c6.31-6.51,11.36-15.42,12.21-22.93s-2.53-13.64-5.68-19.09-6.07-10.24-6.47-17.64,1.73-17.43,3.77-24.87A108.93,108.93,0,0,1,816,756.56c2.71-5.89,6.16-12.81,8.38-19.24S827.55,725,830,721.23s6.47-5.23,11.34-8,10.64-6.74,16.54-9.93A118.34,118.34,0,0,1,874.77,696c4.92-1.73,8.73-2.79,12.06-5.4s6.16-6.79,10.42-12.2,9.93-12.06,12.85-19,3.11-14.23,4.17-18.53,3-5.63,4.88-6.78a16.24,16.24,0,0,1,7.62-2.62c4-.49,10.2-.49,14.1-.8a15,15,0,0,0,8.52-2.88,37.34,37.34,0,0,0,10.78-10.09c3.32-4.87,5.51-11.33,6.88-16.75s1.91-9.79,5.8-13.95,11.11-8.1,20-8.1"/><path class="cls-7" d="M992.83,578.88c19,0,23.57-5.5,26.36-10.75s3.78-10.24,5.62-13.54,4.52-4.9,6.18-9.66,2.3-12.68,4.26-19.11"/><path class="cls-7" d="M844.31,1093.72c44-35.8,55.34-47.46,62.65-55.09s10.59-11.25,13.38-15.08,5.09-7.88,8.87-13.95A160.23,160.23,0,0,1,945,987.84c6.73-7.6,14.94-14.74,24.74-23.39s21.18-18.84,33.55-27.49,25.72-15.76,35.19-20.72,15.06-7.74,36.41-16.76"/><path class="cls-7" d="M1113.18,849.6a56.51,56.51,0,0,1-9-28.89"/><path class="cls-7" d="M1096.2,791.62a103.54,103.54,0,0,1,1.43-32.71"/><path class="cls-7" d="M1116.33,720.09q7.56-12.8,13.57-17.15"/><path class="cls-7" d="M1140.61,688.18q14.7-14.77,21.73-27.39"/><path class="cls-7" d="M1135,686c-5.63-27.41-3.94-37-3-45.87s1.27-17.09,1.34-23.64-.07-11.45-2.31-18.37-6.58-15.88-10.92-24.16a262.73,262.73,0,0,0-14-24c-5.35-8.06-11.7-16.59-20.31-27.46"/><path class="cls-7" d="M1048.79,480.91c4.1-15.56,1.14-24.73-2.64-32.33s-8.37-13.65-14.25-18.1-13-7.31-18.69-9.14-9.82-2.63-14.21-2.46-9,1.33-14.18,1a41,41,0,0,1-16.63-5.15,60.8,60.8,0,0,1-15.92-12.54,43.39,43.39,0,0,1-10.19-18c-1.82-6.92-1.73-14.81-.62-22A76,76,0,0,1,947,343.33c2.31-5.23,4.79-9.22,7.27-15.47a178.18,178.18,0,0,0,6.78-22.3c1.82-7.54,3-14.1,3-19.68s-1-10.2-.67-15.12,2.13-10.15,5.19-16.63S976,240,980.43,234.71s9-8,14.39-14.28a101,101,0,0,0,15.34-24.84c3.56-8.65,4.33-16.1,6.41-21.84s5.47-9.8,8.26-16.53,5-16.15,8.54-25.75a131,131,0,0,1,13.74-27.14c5.26-7.73,10.84-13.41,18.39-20.73s17.06-16.31,24.12-22.35,11.67-9.14,17.3-14.64a164.09,164.09,0,0,0,18.8-22.72,272.37,272.37,0,0,0,18.75-31.55"/><path class="cls-7" d="M1055.82,93.4c-10-28.7-13.09-47.46-13.43-61.67s2.06-23.87,6.65-40.54,11.37-40.34,30.26-60.29"/><path class="cls-7" d="M843.15,441.92c14.3-.35,23.63-3.53,30.75-7.57a40.76,40.76,0,0,0,15.67-15.14,57.59,57.59,0,0,0,7-20.21c1-6.53.43-12.09-.24-18.43s-1.47-13.47-1.87-21.65-.38-17.44-.43-26.09a213.09,213.09,0,0,0-1-23.36c-.81-6.65-2.32-11.88-3.78-18.43s-2.85-14.39-4.33-22.93-3.06-17.76-3.45-25.21.4-13.12,1.41-20.66,2.22-17,4.38-26.11A149.88,149.88,0,0,1,897.59,167,266.46,266.46,0,0,1,916,133.33a107.28,107.28,0,0,1,18.33-21.08c6.59-6.07,14.27-12.6,20.25-19.54a67.49,67.49,0,0,0,12.81-21.57c2.54-7.26,3.34-14.45,3.69-21.67s.27-14.5.62-25.63,1.15-26.11,2.22-40,2.39-26.78,3.66-34.68,2.45-10.85,4.07-14.5a48.71,48.71,0,0,0,4.59-15.3c.93-7.32.75-17.6-1-24.87s-5-11.53-8-16.32-5.76-10.11-9.57-14-8.66-6.4-13.35-10.71-9.21-10.42-16.39-32.23"/><path class="cls-7" d="M885.76,203.36c-5.23-37-11.22-43.64-16.08-48.84s-8.59-9-14.86-15.27-15.1-15.2-21.21-22.76-9.53-13.82-10.94-23.5-.83-22.76,0-37.61,2-31.45,2.43-46.75.08-29.32-2.3-52.91S816-101,810.76-133.23"/><path class="cls-7" d="M854,138.46c3.11-14.27,6.33-31.64,5.64-46.21S854.35,65.9,843,45.82"/><path class="cls-7" d="M1050.64,463.8c-1.75-22,5.53-43.26,12.22-59.8s12.81-28.35,16.73-38.62,5.68-19,5.88-26.91a54.83,54.83,0,0,0-3.59-21.35c-2.46-6.34-6-11.92-6.39-36.88"/><path class="cls-7" d="M1062.49,404.92c7.55,3,13.25-1.24,17.65-7.28s7.51-13.84,14.24-23.42,17.12-20.92,32.08-31.72,34.51-21,69.63-29"/><line class="cls-7" x1="1094.71" y1="483.7" x2="1249.89" y2="408.51"/><path class="cls-7" d="M1261.27,400.07c6.23-7.74,13.82-17.17,17.91-29.46"/><path class="cls-7" d="M132.32,1003.57C176.6,997.82,195.32,986,209,976a209.35,209.35,0,0,0,31.41-27.7C249.51,938.71,259,927.54,267,915a225.34,225.34,0,0,0,18.88-38.58c4.6-12,7.45-22,10.29-31.48s5.69-18.61,9.85-25.34,9.64-11.11,15.55-15.39,12.28-8.48,15.93-11.58a21.27,21.27,0,0,0,5.66-7,13,13,0,0,1,3.44-4.31c1.15-.72,2.23-.43,2.91-.68s1-1,1.69-1.94a14.72,14.72,0,0,1,2.8-2.55,3.21,3.21,0,0,0,1.9-2.76c.26-1.84,0-5.21,1-7s3-1.9,4.24-2.7a3.41,3.41,0,0,0,1.3-3.69c-.29-1.48-1.23-3-.83-4.1s2.12-1.83,3.52-2.58,2.48-1.55,3.48-4.82,1.94-9,5.35-15.87,9.3-14.83,14.87-21.4A152.42,152.42,0,0,1,405.4,694.4a167,167,0,0,1,20.66-15.48c8.43-5.39,18.9-11.15,28.34-13.94s17.87-2.62,27.73-2.6,21.17-.11,48-16.33"/><path class="cls-7" d="M366.62,752.23c4.53-4.52,7.29-2.42,9.52-1.85s3.91-.41,6.17-.86,5.1-.35,7.1-.93,3.14-1.82,4.39-2,2.57.58,3.59,1a7.25,7.25,0,0,0,3.46.31c1.72-.09,4.47-.27,6.11-2.22s2.18-5.67,2.84-7.09,1.46-.54,3.24.8,4.52,3.1,6.62,2.59,3.57-3.3,6.5,6"/><path class="cls-7" d="M223,965.08c14.67-12.5,23.25-14.57,32.44-17s19-5.27,25.78-7,10.49-2.23,14.24-4.23,7.53-5.44,10.16-16"/><path class="cls-7" d="M469.5,1015.76c43-40.07,62.56-62.4,74.8-81.06s17.15-33.66,22.46-51.84,11-39.51,17.14-62.83,12.69-48.6,18.93-77.5"/><path class="cls-7" d="M529.43,442.5c3.23-10.76,2.74-15.56,2.7-18.89a13.38,13.38,0,0,1,1.59-7.37c1.21-2.22,3.18-4.81,4.17-7.73s1-6.17.92-9.4-.21-6.43.9-9.73,3.46-6.69,7.57-11.64,10-11.45,23.55-25.3"/><path class="cls-7" d="M502.41,418.94c-4.38-11.37-1.55-22.68,2.67-31.85"/><path class="cls-7" d="M500.45,402.79c-13.18-1.48-24.55-16.88-43.4-16.71"/><path class="cls-7" d="M499.25,368.51c3-15.59-.32-21.09-1.54-26.57a23.08,23.08,0,0,1,2.19-15.83c2.54-4.87,6.74-9.16,10.26-13.57a43.31,43.31,0,0,0,8.3-15.52c1.95-6.58,3-15.19,3.46-26.15s.27-24.29,1.32-36.83a229.88,229.88,0,0,1,6.11-35.71c2.79-11.41,6.1-22.47,9.22-29.83s6.07-11,6.39-16.23-2-12-3.88-18.82a131.16,131.16,0,0,1-4.34-23.13,184.1,184.1,0,0,1-.28-32.86c1-11.92,3.38-24.13,4.75-32.86s1.72-14,.46-21A128.26,128.26,0,0,0,535,1.2C532.51-5.17,530.35-9,529.37-14A50,50,0,0,1,529.51-31a94.23,94.23,0,0,1,3.91-14.58c1.28-3.77,2.13-6.17,1.18-8.58s-3.67-4.8-5.32-7.14A12.17,12.17,0,0,1,527-68.38a39.32,39.32,0,0,1,1-8.55c.66-3.32,1.55-7.23,2.5-11.93s2-10.18.49-17.32S525.57-122.1,520.85-129,510.64-140.95,500-148.94,473.53-167.88,454.44-181s-41.46-28.5-62.93-41.49-42-23.61-61.91-29.29"/><path class="cls-7" d="M302.37,589.35c7.67-4.84,10.16-3.88,12.21-3.4s3.66.49,4.67,1.29,1.4,2.41,2.37,3.82,2.49,2.61,7.41,3.26"/><path class="cls-7" d="M315.17,586.08c3-6.82,4.58-8.38,6.17-9.48s3.21-1.76,3.75-2.34,0-1.12-.33-2.26a9.07,9.07,0,0,1-.18-4.19,9.45,9.45,0,0,1,1.47-2.78,2.39,2.39,0,0,0,.11-2.11c-.28-.81-.84-1.87-.64-2.72s1.16-1.5,1.86-2.13a5.6,5.6,0,0,0,1.62-2.75,33.79,33.79,0,0,1,2.8-7.07,51.71,51.71,0,0,1,8.14-10.69A67.62,67.62,0,0,1,350.46,529a51.46,51.46,0,0,1,6.93-3.86c1.74-.84,3.08-1.54,2.87-8"/><path class="cls-7" d="M330.59,550.74c-.64-9.26-1.18-14.8-1.15-18.7s.6-6.17,1.62-8,2.47-3.35,3.71-5.34a19.73,19.73,0,0,0,2.66-6.83,13,13,0,0,0-.5-6.33,10.62,10.62,0,0,0-3.38-4.85c-1.71-1.45-4.1-2.78-5.88-4.58a18.26,18.26,0,0,1-3.81-6.14c-.86-2.09-1.38-4-2.61-5.73A13.72,13.72,0,0,0,316,480a65.78,65.78,0,0,0-6.25-2.11c-1.94-.69-3.59-1.62-6.64-2.7a22.68,22.68,0,0,0-14.08-.67"/><path class="cls-7" d="M308.86,477.54c-2.61-1.12-2.81-2.28-3.45-3.69a21.59,21.59,0,0,0-2.81-4.37c-1.06-1.28-2.11-2.18-3.38-3.89a37.67,37.67,0,0,1-4.43-8.3c-1.69-4.1-3.57-9.79-3.88-24"/><path class="cls-7" d="M294.27,456q.17-11.48,10.94-22.54"/><path class="cls-7" d="M334.9,502c-3.08-3.54-1.36-7.79-.53-13.05"/><path class="cls-7" d="M322.47,486.39q-2-4.53,3.33-9.12"/><path class="cls-7" d="M381.27,507.8c1.3-6,2.46-6.82,2.34-7.94s-1.51-2.57-2.4-3.72a5.35,5.35,0,0,1-1.39-3.24c-.1-1.27.12-3,0-4s-.5-1.36-2.08-3-4.32-4.53-6.32-6.81a27.47,27.47,0,0,1-4.45-6.36c-1.22-2.46-2.43-5.74-4-9.77s-3.64-8.82-5.59-13-3.81-7.78-4.75-12.09a46.74,46.74,0,0,1-.46-14c.46-4.7,1.4-9.09,1-13.58s-2.12-9.09-2.94-12.22a16.49,16.49,0,0,1-.22-8.19,57.65,57.65,0,0,1,3.2-12.46c1.65-3.87,3.95-6.46,5.1-10.07s1.15-8.24-3.38-19.23"/><path class="cls-7" d="M379.13,487.35c-1.46-5.77.25-6.09,2.66-7.77a25.23,25.23,0,0,0,7.07-7.63c1.57-2.92,1.64-5.73,2.7-8.24A19.86,19.86,0,0,1,397,457a55.75,55.75,0,0,1,6.94-5.14c2.24-1.41,4.28-2.46,5.5-4.84s1.63-6.09,1.63-10-.41-8-.34-11.58a24.69,24.69,0,0,1,1.91-9.66,40.56,40.56,0,0,1,5.19-8.09c1.89-2.46,3.65-4.68,5.42-7a32,32,0,0,0,4.87-8.11,41.7,41.7,0,0,0,2.38-11c.29-3.45.06-6.12,1.28-9.25a28.8,28.8,0,0,1,6.59-9.3,26.56,26.56,0,0,1,8.09-5.3c2.69-1.17,5.36-1.93,7.71-3.59a14.4,14.4,0,0,0,5.49-7.83,34.44,34.44,0,0,0,.87-12.62c-.4-4.28-1.39-8.12-1.57-11.67a17.83,17.83,0,0,1,2-9.62c1.56-2.82,4.05-5.2,6.62-7.66a42.67,42.67,0,0,0,7.38-8.53,39.34,39.34,0,0,0,4.63-11.82c.81-3.79.75-6.87,1.42-10.74a44.18,44.18,0,0,1,3.64-11.57c1.57-3,3.31-4.48,6-6.38s6.25-4.24,9.41-6.18,5.89-3.47,8.62-6.38,5.47-7.19,8.14-11.74,5.29-9.35,10.56-24.37"/><path class="cls-7" d="M-3.59,1016.69c2.72-15.55,5-18.52,5.86-20.73s.35-3.67.06-5.76a30.87,30.87,0,0,1,0-7.88,58.45,58.45,0,0,1,1.9-8.79,21.68,21.68,0,0,1,1.89-4.77c.61-1.07,1.25-1.89.87-2.59s-1.78-1.28-2.47-2-.7-1.52-.06-3a17.11,17.11,0,0,1,3.08-4.68c1.17-1.14,2.21-1.31,3.09-2.94a17.86,17.86,0,0,0,1.54-7.68c0-3-.79-5.82-1.4-9a54.9,54.9,0,0,1-1-10.61,44.39,44.39,0,0,1,2.13-12.95,129.53,129.53,0,0,1,6.28-16.11c2.09-4.45,3.66-6.9,6-8.61s5.5-2.71,8.55-4.19a63.89,63.89,0,0,0,9.05-5.59c3-2.15,6.11-4.48,7.88-7.74s2.24-7.44,3.76-11.37a49.41,49.41,0,0,1,5.81-10.09,19.12,19.12,0,0,0,3.55-7c.88-3.17,1.69-8.18,2.5-11.14s1.63-3.9,3.32-5,4.25-2.29,7.8-4.59,8.08-5.68,10.61-9a14.65,14.65,0,0,0,3.09-9.22,45.64,45.64,0,0,0-1-8.54,52.77,52.77,0,0,1-1-13.29A39.61,39.61,0,0,1,92,768a22.35,22.35,0,0,1,6.14-7.86c1.86-1.36,3.26-1.48,5.67-2.24s5.85-2.15,9.4-3.37,7.21-2.27,10-4.39a13.83,13.83,0,0,0,5.06-8.76,23.89,23.89,0,0,0-1-9.83c-.79-2.73-1.6-4.54-1.61-6.51a11.27,11.27,0,0,1,1.88-5.79,40.3,40.3,0,0,1,4-4.64,9.39,9.39,0,0,0,2.8-8"/><path class="cls-7" d="M140.15,679.58c2.19-9.48,2.53-14.64,2-17.76s-1.94-4.24-2.91-5.86a36.67,36.67,0,0,1-2.18-5.62c-.71-1.89-1.62-3.53-1.59-4.8a4.4,4.4,0,0,1,1.67-2.88c.69-.7,1.11-1.19.56-1.84a6.93,6.93,0,0,0-3.21-1.69c-1.13-.24-1.87.09-2.39-.19s-.81-1.17-.78-2.54a15.14,15.14,0,0,1,1.07-4.9,19,19,0,0,1,2.71-4.48,32.45,32.45,0,0,0,2.93-3.93,6.9,6.9,0,0,0,.93-3.69c-.06-1.11-.46-2-1.29-4.31s-2.08-6-3.22-8.65-2.16-4.22-2.64-5.36a3,3,0,0,1-.16-2.42c.24-.58.64-1,1.11-2.24a10.1,10.1,0,0,0,.81-4.56c-.22-1.36-1.22-2.1-2.11-3.21a13.92,13.92,0,0,1-2.15-3.91,14.68,14.68,0,0,1-.74-4.47c-.08-1.86-.06-4.34,2.79-13.13"/><path class="cls-7" d="M142.76,679.9c7.37-6.12,12.51-10.39,15.83-14.37s4.82-7.69,6.76-10.94a26,26,0,0,1,7.28-8.07c2.94-2,6.44-3.36,13.24-8.87"/><path class="cls-7" d="M199.58,607.09c4.07-2.31,6.36-2.58,7.29-3.11s.5-1.3,4.68-2.08"/><path class="cls-7" d="M179.9,601.79c-4-14.76-6.25-15.42-8.36-16s-4-1.09-6.46-11.87"/><path class="cls-7" d="M224.91,532.85c-4.69-10.35-6.76-13.52-7.4-15.1s.16-1.58.54-1.76.37-.55-.79-1.83a24.82,24.82,0,0,1-4.87-6.6c-1.42-3.14-2-7.21-2.33-10.27s-.55-5.08-.81-7.36-.59-4.8-.69-7.88a38.84,38.84,0,0,1,.51-8.81c.49-2.1,1.37-2.67,1.56-3.93a11.77,11.77,0,0,0-.95-5,14,14,0,0,0-2.39-4.44c-.94-1.06-2-1.58-3-3.25s-1.95-4.5-3.87-8.25-4.82-8.41-5.1-14.43"/><path class="cls-7" d="M210.6,469.48c6.45-9.71,6.45-12.4,6.78-16.19a55.21,55.21,0,0,1,2.49-13c1.51-4.29,3.87-8,5.66-12.07s3-8.65,4.39-15.4a191.83,191.83,0,0,0,3.49-24.94c.61-9.25.33-18.78.24-28.89s0-20.8-.14-30.31-.6-17.82-2.4-26.85a131.19,131.19,0,0,0-8.93-27.48c-3.94-8.7-8.64-16.36-12.31-24.63a106,106,0,0,1-7.61-25.07c-1.31-7.93-1.31-14.94-.55-24.57s2.3-21.89,3.89-30.32,3.23-13,3.72-16.21-.16-4.92-1.64-8.86-3.78-10.07-6-16.26-4.27-12.42-5.09-18.39a39.3,39.3,0,0,1,.88-15.93c1.26-4.27,3.34-7.11,4.49-10.23a14.42,14.42,0,0,0-.08-10.43c-1.45-3.91-4.57-8.35-7.2-16.23"/><path class="cls-7" d="M207.52,144.27c14.39-5.4,15.9-12.06,17.52-19.27s3.38-15,3.22-21.23A23.22,23.22,0,0,0,223,89.15c-3-3.66-6.95-6.29-10.26-10.65a38.61,38.61,0,0,1-7-16.76,39.49,39.49,0,0,1,1.55-18.31c1.83-5.5,4.79-10,6.48-14.58a28.34,28.34,0,0,0,1.6-13.14C214.9,11.87,213.5,8.9,214.16,3s3.35-14.84,4.75-35.26"/><path class="cls-7" d="M205.91,62.61q-11-4.68-11.78-23"/><path class="cls-7" d="M-2.15,713.66c22.76,1.31,29.47,2.51,33.26,2.57s4.63-1,5.47-2.77,1.7-4.15-.4-8.6-7.14-11-10.55-15.74-5.21-7.85-6-10.7a11.69,11.69,0,0,1,.62-8.1c1.15-2.62,3.22-5.21,5-8.41A39.25,39.25,0,0,0,29,651.82c.64-3.06.5-5.37,1.06-7.42s1.84-3.84,3.23-6.57a37,37,0,0,0,3.63-11,75.75,75.75,0,0,0,.52-14.06c-.17-4.1-.45-6.88,1-11.45s4.74-10.94,9.12-37.66"/><path class="cls-7" d="M41,594c-2.43-16.07-7.58-21.91-11.81-25.68s-7.55-5.45-9.67-8.48a16.55,16.55,0,0,1-2.74-10.27c.32-2.88,1.89-4.27,3.84-4.13s4.28,1.84,6.75,3,5.09,1.72,7.21,1.11a7.22,7.22,0,0,0,4.57-4.63c.81-2.21.81-4.83,1.54-6.34s2.18-1.92,4-2a26.09,26.09,0,0,1,6.24.87,21.72,21.72,0,0,0,8.31.94c3.61-.38,8.4-1.89,11.24-4.28s3.7-5.64,4-9,0-6.73-7-15.7"/><path class="cls-7" d="M42.24,537c5.37-15.81,4.88-20.43,4.14-24.39a48.65,48.65,0,0,0-3-10.22c-1.27-2.94-2.8-5.52-5-7s-5-2-8.19-2.09-6.72.2-11.33,0A134.71,134.71,0,0,1,2,491.13a174.9,174.9,0,0,1-22.11-5.35c-8.09-2.55-16.82-6-29.21-13.9"/><path class="cls-7" d="M31.47,493.32c-4.1-6.16-6.14-10.19-7.32-14.23a50.05,50.05,0,0,1-1.7-11.59"/><path class="cls-7" d="M22.68,684.77c12.9-12.56,22.46-16.35,31.19-18.41s16.64-2.39,30.95,3.1"/><path class="cls-7" d="M233.62,354.28c-5.46-17.53-11.52-25.16-17.5-33.25s-11.9-16.62-16-25.08-6.4-16.83-5.09-34.23"/><path class="cls-7" d="M888.92,289.41c-6.19-4.56-9.52-4.7-12-4.09s-4.25,2-6.49,3.74-5,3.86-8,4.65-6.19.25-9.28,0a74.82,74.82,0,0,0-8.82-.1,61.33,61.33,0,0,1-8.84-.08c-3.45-.34-7.73-1.15-8,5.8"/><path class="cls-7" d="M838.71,376.86a133.63,133.63,0,0,0-1.28-17.9c-.31-3.18,0-4.51,1.35-7.87a35.6,35.6,0,0,0,3.05-16.88"/></g></svg>