<svg xmlns="http://www.w3.org/2000/svg" viewBox="0 0 705.36 580.56">
  <defs>
    <style>
      .cls-1, .cls-19, .cls-8 {
        fill: none;
        stroke: #282828;
      }

      .cls-1, .cls-19 {
        stroke-miterlimit: 10;
      }

      .cls-1 {
        stroke-dasharray: 6.05 6.05 2.02 6.05;
      }

      .cls-2 {
        font-size: 6px;
        font-family: Inter-SemiBold, Inter;
        font-weight: 600;
      }

      .cls-2, .cls-3, .cls-9 {
        fill: #282828;
      }

      .cls-4 {
        letter-spacing: -0.03em;
      }

      .cls-5 {
        letter-spacing: 0em;
      }

      .cls-6 {
        letter-spacing: -0.09em;
      }

      .cls-7 {
        letter-spacing: -0.07em;
      }

      .cls-8 {
        stroke-linejoin: round;
        stroke-width: 0.3px;
      }

      .cls-9 {
        font-size: 3.9px;
        font-family: Inter-Bold, Inter;
        font-weight: 700;
      }

      .cls-10 {
        fill: #d65d0e;
      }

      .cls-11 {
        letter-spacing: -0.09em;
      }

      .cls-12 {
        letter-spacing: -0.07em;
      }

      .cls-13 {
        fill: #699d6b;
      }

      .cls-14 {
        fill: #fabd2f;
      }

      .cls-15 {
        fill: #458588;
      }

      .cls-16 {
        fill: #fbf1c1;
      }

      .cls-17 {
        fill: #fb4934;
      }

      .cls-18 {
        letter-spacing: -0.01em;
      }

      .cls-19 {
        stroke-width: 0.75px;
        stroke-dasharray: 2 1 1 1;
      }

      .cls-20 {
        letter-spacing: -0.07em;
      }
    </style>
  </defs>
  <g id="circles">
    <circle class="cls-1" cx="169.9" cy="369.02" r="89.87"/>
    <circle class="cls-1" cx="305.13" cy="366.46" r="89.87"/>
    <circle class="cls-1" cx="415.8" cy="340.04" r="89.87"/>
    <circle class="cls-1" cx="513.03" cy="369.02" r="89.87"/>
    <circle class="cls-1" cx="659.53" cy="276.59" r="89.87"/>
  </g>
  <g id="circular-text">
    <text class="cls-2" transform="translate(138.98 282.54) rotate(-18.28)">N</text>
    <text class="cls-2" transform="translate(143.24 281.13) rotate(-15.39)">O</text>
    <text class="cls-2" transform="translate(147.75 279.9) rotate(-12.68)">R</text>
    <text class="cls-2" transform="translate(151.56 279.05) rotate(-10.22)">T</text>
    <text class="cls-2" transform="translate(155.49 278.33) rotate(-7.56)">H</text>
    <text class="cls-2" transform="matrix(1, -0.1, 0.1, 1, 159.93, 277.77)"> </text>
    <text class="cls-2" transform="translate(161.43 277.6) rotate(-4.14)">F</text>
    <text class="cls-2" transform="translate(164.4 277.37) rotate(-2.04)">A</text>
    <text class="cls-2" transform="translate(168.77 277.2) rotate(0.98)">M</text>
    <text class="cls-2" transform="translate(174.23 277.33) rotate(3.17)">I</text>
    <text class="cls-2" transform="translate(175.88 277.41) rotate(4.74)">L</text>
    <text class="cls-2" transform="translate(178.87 277.64) rotate(6.86)">Y</text>
    <text class="cls-2" transform="matrix(0.97, 0.26, -0.26, 0.97, 277.71, 459.46)">C</text>
    <text class="cls-2" transform="matrix(0.98, 0.21, -0.21, 0.98, 282.21, 460.67)">H</text>
    <text class="cls-2" transform="matrix(0.99, 0.16, -0.17, 0.99, 286.75, 461.65)">U</text>
    <text class="cls-2" transform="matrix(0.99, 0.12, -0.12, 0.99, 291.28, 462.39)">R</text>
    <text class="cls-2" transform="matrix(1, 0.07, -0.07, 1, 295.3, 462.88)">C</text>
    <text class="cls-2" transform="matrix(1, 0.03, -0.03, 1, 299.97, 463.22)">H</text>
    <text class="cls-2" transform="matrix(1, -0.02, 0.01, 1, 304.55, 463.32)"> </text>
    <text class="cls-2" transform="matrix(1, -0.03, 0.03, 1, 306.13, 463.31)">F</text>
    <text class="cls-2" transform="matrix(1, -0.07, 0.07, 1, 309.23, 463.22)">A</text>
    <text class="cls-2" transform="matrix(0.99, -0.12, 0.12, 0.99, 313.76, 462.91)">M</text>
    <text class="cls-2" transform="matrix(0.99, -0.16, 0.16, 0.99, 319.3, 462.19)">I</text>
    <text class="cls-2" transform="matrix(0.98, -0.19, 0.19, 0.98, 321.04, 461.91)">L</text>
    <text class="cls-2" transform="matrix(0.97, -0.23, 0.23, 0.97, 324.09, 461.34)">Y</text>
    <text class="cls-2" transform="translate(391.57 251.23) rotate(-14.17)">C</text>
    <text class="cls-2" transform="translate(395.85 250.16) rotate(-11.6)">E</text>
    <text class="cls-2" transform="matrix(0.99, -0.16, 0.16, 0.99, 399.37, 249.43)">N</text>
    <text class="cls-2" transform="matrix(0.99, -0.11, 0.11, 0.99, 403.73, 248.74)">T</text>
    <text class="cls-2" transform="translate(407.61 248.31) rotate(-4.01)">E</text>
    <text class="cls-2" transform="translate(411.21 248.05) rotate(-1.66)">R</text>
    <text class="cls-2" transform="matrix(1, 0.02, -0.02, 1, 415.08, 247.94)"> </text>
    <text class="cls-2" transform="translate(416.55 247.94) rotate(1.56)">F</text>
    <text class="cls-2" transform="translate(419.48 248) rotate(3.67)">A</text>
    <text class="cls-2" transform="matrix(0.99, 0.12, -0.12, 0.99, 423.78, 248.26)">M</text>
    <text class="cls-2" transform="translate(429.13 248.93) rotate(8.98)">I</text>
    <text class="cls-2" transform="translate(430.73 249.17) rotate(10.58)">L</text>
    <text class="cls-2" transform="translate(433.6 249.69) rotate(12.71)">Y</text>
    <text class="cls-2" transform="matrix(1, -0.02, 0.02, 1, 514.36, 465.66)">S</text>
    <text class="cls-2" transform="translate(518.41 465.57) rotate(-3.54)">E</text>
    <text class="cls-2" transform="translate(522.22 465.34) rotate(-6.07)">C</text>
    <text class="cls-2" transform="translate(526.84 464.85) rotate(-8.92)">O</text>
    <text class="cls-2" transform="translate(531.62 464.09) rotate(-11.79)">N</text>
    <text class="cls-2" transform="matrix(0.97, -0.25, 0.25, 0.97, 536.14, 463.14)">D</text>
    <text class="cls-2" transform="translate(540.46 461.99) rotate(-16.41)"> </text>
    <text class="cls-2" transform="translate(541.99 461.56) rotate(-17.99)">F</text>
    <text class="cls-2" transform="matrix(0.94, -0.34, 0.34, 0.94, 544.96, 460.61)">A</text>
    <text class="cls-2" transform="translate(549.25 459.04) rotate(-23.23)">M</text>
    <text class="cls-2" transform="matrix(0.9, -0.43, 0.43, 0.9, 554.36, 456.81)">I</text>
    <text class="cls-2" transform="translate(555.95 456.06) rotate(-27.06)">L</text>
    <text class="cls-2" transform="matrix(0.87, -0.49, 0.49, 0.87, 558.71, 454.67)">Y</text>
    <text class="cls-2" transform="translate(592.02 214.39) rotate(-46.24)">S</text>
    <text class="cls-2" transform="translate(594.69 211.59) rotate(-43.55)">O</text>
    <text class="cls-2" transform="matrix(0.76, -0.65, 0.65, 0.76, 598.03, 208.41)">U</text>
    <text class="cls-2" transform="matrix(0.79, -0.62, 0.62, 0.79, 601.32, 205.59)">T</text>
    <text class="cls-2" transform="matrix(0.81, -0.58, 0.58, 0.81, 604.39, 203.17)">H</text>
    <text class="cls-2" transform="translate(608.03 200.61) rotate(-33.57)"> </text>
    <text class="cls-2" transform="translate(609.24 199.79) rotate(-32)">F</text>
    <text class="cls-2" transform="matrix(0.87, -0.5, 0.5, 0.87, 611.71, 198.22)">A</text>
    <text class="cls-2" transform="translate(615.42 196.07) rotate(-26.77)">M</text>
    <text class="cls-2" transform="translate(620.26 193.67) rotate(-24.53)">I</text>
    <text class="cls-2" transform="translate(621.73 192.98) rotate(-22.93)">L</text>
    <text class="cls-2" transform="translate(624.41 191.84) rotate(-20.79)">Y</text>
    <path class="cls-3" d="M99.4,195.55l-1.14.66-.29.17c-.08,0-.26.05-.18.19l.33.57.66,1.14.33.57c0,.09-.08.07-.12.09l-.14.08-.29.17L94,201.82l-4.57,2.64-.57.33c-.11.06-.14-.19-.17-.25l-.17-.29-.66-1.14-.33-.57c-.07-.12-.15,0-.24,0l-.28.17-1.14.66c-.51.29-.84-.2-.58-.69l.63-1.16,1.25-2.32,1.25-2.32a9.31,9.31,0,0,1,1.4-2.2,7.89,7.89,0,0,1,2.6-.13l2.64.07,2.63.07,1.32,0C99.55,194.75,99.92,195.25,99.4,195.55Z"/>
    <text class="cls-2" transform="translate(576.21 489.67) rotate(61.27)"><tspan class="cls-4">T</tspan><tspan class="cls-5" x="3.77" y="0">O WEST </tspan><tspan class="cls-6" x="28.94" y="0">F</tspan><tspan x="31.9" y="0">AMI</tspan><tspan class="cls-7" x="43.33" y="0">L</tspan><tspan class="cls-5" x="46.29" y="0">Y</tspan></text>
    <path class="cls-3" d="M599.25,545.08l1.15-.64.29-.16c.08,0,.26,0,.18-.19l-.32-.58-.63-1.15-.32-.58c-.05-.08.08-.06.12-.08l.15-.08.28-.16,4.62-2.54,4.62-2.54.58-.32c.11-.07.13.19.16.25l.16.29.64,1.15.32.58c.06.12.15,0,.24,0l.29-.15,1.15-.64c.52-.28.84.22.56.7l-.65,1.15c-.43.76-.86,1.53-1.3,2.29s-.86,1.53-1.3,2.29a9.16,9.16,0,0,1-1.44,2.18,8.44,8.44,0,0,1-2.6.08l-2.63-.13-2.64-.13-1.31-.06C599.08,545.88,598.72,545.37,599.25,545.08Z"/>
  </g>
  <g id="scale-black">
    <rect class="cls-3" x="29.5" y="551.52" width="21.19" height="2.78"/>
    <line class="cls-8" x1="50.7" y1="550.58" x2="50.7" y2="558.01"/>
    <line class="cls-8" x1="29.5" y1="554.3" x2="29.5" y2="550.59"/>
    <text class="cls-9" transform="translate(51.93 553.35)">100</text>
    <rect class="cls-3" x="50.7" y="554.3" width="21.19" height="2.78"/>
    <line class="cls-8" x1="71.89" y1="550.75" x2="71.89" y2="558.17"/>
    <rect class="cls-3" x="71.89" y="551.52" width="63.57" height="2.78"/>
    <line class="cls-8" x1="135.46" y1="554.3" x2="135.46" y2="550.59"/>
    <text class="cls-9" transform="translate(73.37 558.53)">200</text>
    <text class="cls-9" transform="translate(136.93 553.35)">500’</text>
    <polygon class="cls-3" points="159.11 554.07 163.04 551.8 163.04 556.34 159.11 554.07"/>
    <path class="cls-3" d="M172.94,550a5.47,5.47,0,1,1-7.73.37A5.47,5.47,0,0,1,172.94,550Zm-4.82,1.24h-1.23v5.62h1.16v-3.76h0l2.35,3.76h1.23v-5.62h-1.16V555h0Z"/>
    <circle class="cls-10" cx="30.39" cy="492.33" r="2.46"/>
    <text class="cls-2" transform="translate(36.32 494.49)">NORTH <tspan class="cls-11" x="22.91" y="0">F</tspan><tspan x="25.88" y="0">AMI</tspan><tspan class="cls-12" x="37.31" y="0">L</tspan><tspan x="40.26" y="0">Y</tspan></text>
    <circle class="cls-13" cx="30.39" cy="502.46" r="2.46"/>
    <text class="cls-2" transform="translate(36.32 504.62)">CHURCH <tspan class="cls-11" x="27.65" y="0">F</tspan><tspan x="30.61" y="0">AMI</tspan><tspan class="cls-12" x="42.04" y="0">L</tspan><tspan x="45" y="0">Y</tspan></text>
    <circle class="cls-14" cx="30.39" cy="512.33" r="2.46"/>
    <text class="cls-2" transform="translate(36.32 514.49)">CENTER <tspan class="cls-11" x="25.55" y="0">F</tspan><tspan x="28.52" y="0">AMI</tspan><tspan class="cls-12" x="39.94" y="0">L</tspan><tspan x="42.9" y="0">Y</tspan></text>
    <circle class="cls-15" cx="30.39" cy="522.33" r="2.46"/>
    <text class="cls-2" transform="translate(36.32 524.49)">SECOND <tspan class="cls-11" x="26.93" y="0">F</tspan><tspan x="29.9" y="0">AMI</tspan><tspan class="cls-12" x="41.33" y="0">L</tspan><tspan x="44.29" y="0">Y</tspan></text>
    <circle class="cls-16" cx="30.39" cy="532.45" r="2.46"/>
    <text class="cls-2" transform="translate(36.32 534.61)">SOUTH <tspan class="cls-11" x="22.86" y="0">F</tspan><tspan x="25.83" y="0">AMI</tspan><tspan class="cls-12" x="37.25" y="0">L</tspan><tspan x="40.21" y="0">Y</tspan></text>
    <circle class="cls-17" cx="30.39" cy="482.33" r="2.46"/>
    <text class="cls-2" transform="translate(36.32 484.49)">SHARED BUILDINGS</text>
    <text class="cls-2" transform="translate(94.97 207.52) rotate(60.99)"><tspan class="cls-4">T</tspan><tspan class="cls-5" x="3.77" y="0">O E</tspan><tspan class="cls-18" x="13.55" y="0">A</tspan><tspan x="17.83" y="0">ST </tspan><tspan class="cls-11" x="27.17" y="0">F</tspan><tspan x="30.14" y="0">AMI</tspan><tspan class="cls-12" x="41.57" y="0">L</tspan><tspan x="44.52" y="0">Y</tspan></text>
    <circle class="cls-19" cx="30.39" cy="472.2" r="2.46"/>
    <text class="cls-2" transform="translate(36.32 474.36)">3 MINUTE <tspan class="cls-20" x="30.42" y="0">W</tspan><tspan x="36.06" y="0">ALK</tspan></text>
  </g>
</svg>
