<svg xmlns="http://www.w3.org/2000/svg" viewBox="0 0 543 1001"><defs><style>.cls-1{fill:#efefef;}.cls-2,.cls-4,.cls-5,.cls-6{fill:none;stroke-linejoin:round;}.cls-2{stroke:#282828;stroke-width:0.25px;}.cls-2,.cls-5{stroke-linecap:round;}.cls-3{fill:#8ec07c;opacity:0.5;}.cls-4,.cls-5,.cls-6{stroke:#efefef;}.cls-4{stroke-width:0.5px;}.cls-5{stroke-width:0.35px;}.cls-6{stroke-width:0.75px;}</style></defs><g id="Waterline"><polygon class="cls-1" points="343.59 418.87 343.29 418.32 343.29 417.74 342.63 417.68 342.19 417.63 341.35 417.19 341.03 416.65 340.53 416.81 340.6 417.55 339.85 418.31 339.52 419.02 339.7 419.76 340.33 420.18 341.06 419.89 342.02 419.71 342.94 419.94 343.5 420.27 343.98 420.33 343.89 419.9 343.52 419.48 343.59 418.87"/><polygon class="cls-1" points="275.17 440.66 275.2 439.9 275.08 439.15 275.84 436.93 276.2 435.73 275.75 434.83 275.67 434.02 275.92 433.09 276.28 431.92 276.12 431.26 275.67 431.2 275.55 431.72 275.42 432.58 274.1 437.13 273.62 438.52 273.5 440.03 273.57 441.78 274.16 441.4 275.17 440.66"/><polygon class="cls-1" points="309.67 439.08 308.76 439.14 306.71 439.64 305.85 439.93 305.11 440.3 304.31 440.76 303.38 441.21 301.65 442.13 296.72 444.61 296.54 445.51 303.98 441.83 306.74 440.31 309.42 439.61 309.67 439.08"/><path class="cls-1" d="M347.85,418.73c0,.72.07,1.44.11,2.16-.49-.49-1-1-1.46-1.49l-.88-.08-.22.39v.51l-.14.69-.6.22-.15.79h-1.24c-.09-.26-.17-.52-.26-.77l-.38-.81-.64.1-.39.37c.24.43.48.86.71,1.3l-.14.41-.67.08-1,.48c-.19.48-.37,1-.56,1.42l-.72,1.35-.86.37-.44.31v.65l-.14.71c-.08.2-.15.39-.22.59l-.87.87-.87.18-1-.14-.92-.23H333l-.76.83-.42-.24-.44-.06-.46.05-.45.15c.05-.4.11-.79.17-1.18l.65-.29.81-.28c.43-.52.87-1.05,1.31-1.6l-.11-.54.32-.54.45-.67.43-.06.42-.32.19-.08.94-.21.12-.79.49-.08.47.61.45.35.09-.54c-.07-.23-.15-.46-.22-.69l-.23-.55,0-.54.22-.32.76-.35h.93c0-.25.06-.51.1-.76l-.35-.1-.34-.18-.68-.05c0-.2,0-.4,0-.61l2.39-3.26,1.48-1.3.82.92.51-.31.59-.57c.16-.22.31-.45.46-.68s.07-.44.11-.67l-.34-.46-.58-.18-.68,0-.57.18L340,414.79l-.54.64c-.26.48-.53.95-.8,1.43l-1.06,1.29-1.32.47c-.08.23-.17.47-.25.71l-.56,1.16-2.62,2.32-2.38,2.37-.89.53-2.84.65-3.42,1.54-2.1.14-2.91.87-4.64.59L312,430l-1.25-.3-.33.22.33.55c0,.14,0,.28-.05.42l-.35.24-.57.07c0-.4,0-.8,0-1.2l-.65-.11-.89.44-.66.47.36.91c-.12.31-.23.62-.34.93l-.7.78-1.85.94-.44.09-.37-.07-.87-.05-1.36-.38-1.43,0-1.08.08-1-.1-.35-.58-.72-.3-.28.05-.18.45,0,.42.59.74.88-.11.77-.15.35.55c0,.27,0,.53,0,.8l-.54.1-.8-.19-.68.23-.61.3-.57-.3-.44-.33c.08-.37.15-.74.23-1.11l-1.33.05-1.09-.35-.18,1.1,1.31,1.25c0,.14.07.29.11.43l-.27.21.19.45-.25.33-.6-.14-.12-.57h-.61l0,.46v.48l-1,.09-.73-.58.31-.31.55.12.48-.58.07-.28-.45-.65-1.86.5L288,437.85c-.2.64-.39,1.28-.58,1.93l.66,2-.24.45-.65-.74-.55-.95-1.4-.34-.63.14-.37.74c0,.2,0,.41,0,.61l1.47.33.27.62-.15.7-.44.38-.37-.3-.44-.66-.55-.5-.63.2c-.06.44-.11.89-.17,1.33l.78.94-.12,1.18-1.12-1-1.91,0-1.4,1.45-.46-.28-.69.27-1-.34-.77,1-.84,1.85.06,1.07-.27,1-.42.31-.4.34-.26.26-.13.36-.46.78c.08.23.15.47.23.71-.11.32-.21.63-.31.95s-.28.44-.41.66v1.1l.55.73,1.15.27.35.37-.05.39-.43.29.42.43.68-.05,1.92-.62.38-.25.19-.36.61-.11.61-.07.3.31.56-.39c-.14-.33-.29-.66-.43-1l-.52-.72,0-.52.27-.52.22-.28.31-.28.71-.32.88-.45.64.08.79.29.82.38.46.25.15.26-.24.48-.48.68-2.39,1.51c-1.18.69-2.36,1.38-3.55,2.06.05.25.09.5.14.75l1.67-1,3.33-2.21,1.83-.67.7.12,1.94-.17,5.31-1,.19-.53-1.32.16-4.43.7c-.06-.28-.11-.56-.16-.84.18-.24.35-.49.53-.74l1.15-.44.6.34c0,.18.05.35.07.53l-.32.34.51.05c.12-.09.24-.18.37-.26l.6-.65,2.59-1.81,2.33-.73,4.22-1.52,1.23-.48,2.11-1.58,1.77-.5.47-.59.51-.74.51-.52,1,.35,1.39-.21.95.13.5-.4V443.9l.42-.3h.64l.74.31.62-.36,1.16-.45.89-.3.3-1,.43-.17,2.84-.07.73-1,.65-.23.82-.56.63,1,1.07-.41.75-.72.55-.6c0-.25,0-.51,0-.76l-.69-.34,1.18.18,1.55-.29c.46-.57.92-1.11,1.37-1.66l1.2.25.89-.23.66-.12.58.09-1.12.57-1.85,1.06-.26.08-.23.27.29.16.34-.08.77-.46,3.94-2.16,2.5-1.56,1.48-1.33.4-.51-.11-.52-.39-.48-.21-.56.09-.47.47-.29,1.1-.08.57.25.06.62-.37,1,.8-.28,1.4-.67,1.33-1c2-1.45,3.9-2.92,5.81-4.39l2.33-1.7,2.76-2.12,3.06-1.95,3-2.31,1.8-.77.66-1.09.23-.6-.79-.08-1.29-.28L358,415l.65.67.06.36-.67-.24-.58-.39-.5.31.21,1.32-.69.29-.78-.21-.72.57-1.35,1.65-1.48,1-.85.35-.44-.23c-.1-.19-.2-.37-.31-.55l-1.76-1.85h-.5Z"/><path class="cls-1" d="M315.16,435.63l-5.48,2.73c-1.05.59-2.09,1.17-3.13,1.77l-2.11.35.39.35,2.19-.45,4-1.86,4.23-2.38q2.54-1.59,5-3.19l4.23-2.93,1.92-.88-.08-.49-.92.28-2.06,1.47-1.95,1.1-1.29.81-1.37.76-2.51,1.87Z"/><path class="cls-1" d="M150.86,688.94c-1.81-44.54-3.47-89.08-5.3-133.61l1.23,1.63,1.53,1,1.35-.6-.09,1.21.33.73.68.39.94.32,4,.5,3.82-.58,7.19-3,7.69-4.82c28.83-1.43,57.6-3.41,86.4-5,.08,1.16.17,2.32.25,3.48l7-.79,7.1-.61,3.6-.44,3.61-.26,3.38-.43,3.55-.37,3.57-.51c2.34-.26,4.66-.5,7-.69,3.51-.45,7-.92,10.52-1.36l3.62-.29,3.78-.53,0,.21.26.44,3.36.77.67,0,.7-.15,1-.44h.48l1,.55,2.15,1.94,1.18.72,2.75.9,1.46.25,1.14-.09,1.17.93,2.39,2.52,1.3.46.73.07,1.53.44.83,0,1.39-.44.65-.37.5-.55c.06-.17.11-.35.17-.52s.08-.53.13-.79l0-.74-.09-.29.77.23.59.6.54.9.23.19.3.34.35.22.65-.46.44-.08,1.63,0,.45.25c.11.17.21.34.31.51s.24.6.35.9l-2.87.38-1.4.49-.86.82-1.05-.43-.93.13-1.95.63L341,556l-.42.13-.37.22-.31.44-.16.54-.3.25-.6-.36-.66.42-1.54.19-.67.43,2.54-.11.42.08.23.67.39.09.46-.24.36-.44,1.53,1.13,1.93-1,2-1.53,1.72-.45.91.51.35.14h.58l.4-.11.64-.33.5-.1,1.09.14,1.18.49,2.18,1.32-1-.95-1.93-1.43-.64-1.16.46.11.34.34.33.46c.15.15.29.31.44.47l.31.17.8.29.42.21,3.19,2.17L360,560l2-.05.8-.39,1.8-1.41.55-.64.65-.49,2.91-.38,1.81-.69,3.12-2.15,5.48-2.1,1.8-.23,5.23.76,1.09-.05.53-.23.78-.83.47-.28.36.05,1.45.58,1-.21,1.34-1,1.52-.65q6.28-6.52,12.56-13l13-7.93,2.86-.85,1-.79,1.48-.47.22-.23.47-.73.32-.32.74-.31,1.6-.4,1.24-1.13,10.58-4.86q4,37.69,8.08,75.36l-.62.26-1.78,1.56-.77-.34-1.08.17-1.06.47-.71.68-.33,1.17.42.94,1.62,1.79c.39.59.77,1.18,1.16,1.76l.5,1c.07.26.15.52.23.79l-.08,1.29c-.22.76-.44,1.52-.65,2.28l.06,1.34.12,0,.29,0,.31.09.21.18a2.68,2.68,0,0,0,.07.27c0,.21,0,.41,0,.61l0,.28.42,1.22c.05.25.1.5.14.75l-.16.34-.23,1.79-.19.37L445.62,616l-.36.48c-.23.77-.45,1.54-.67,2.31-.09.44-.18.88-.26,1.32,0,.68-.08,1.36-.11,2-.09.36-.17.71-.26,1.06l-.73,2.05c-.1.48-.21.95-.32,1.43l0,1.1c.09.77.19,1.53.28,2.3v1.29l-.25.82c-.11.24-.21.48-.32.71l-.22,1c0,.12.07.24.11.36s.14.3.22.45.07.35.11.52l-.24.59-.53.13-.62-.27H441l-.09.89.17.56.31.63.22.59-.06.48-.7,1.07-.22.51-.21.68-.09.59-.06,1.13c-.06.2-.12.4-.17.61l-.88.69-.3.51.31.65.77.7.52.61.21.74c0,.36-.07.73-.11,1.09l-.63.65-.18.25v.25l.12.63,0,.27c-.12.53-.23,1.06-.35,1.59l0,.57-2.81,2-4.43,4.29-1.22,1.73c-.28.65-.55,1.3-.83,1.94l-.57.93-1.66.81-.71.75-1.09,1.47-.62.51-.84.47-.92.36-.9.2-.85.43-1.37,1.57-1,.24-.92-.53-.68-1-.5-.94-.46-.39-1.85.16-.66.41-3,3.48-.26,1-.09,2.19-.43.74-.38-.25-.28-.08-.25.13-.32.33-.34-.38-.91.46-1.07.12-.85.34c-.17.66-.33,1.32-.5,2l-1.86,2.65-.26.91c0,.23,0,.47,0,.7l.33,2.07c0,.43,0,.86,0,1.29l-.29.55-2.11,1.11-.25,0v.21c.09.24.18.47.28.71l.19.33.34.35.35.27.28.1.62.37c.06.33.11.66.17,1l0,2,.38.9.49.85.08.64-.84.34-.49-.15-.85-.76-.54-.14-.44.33-.19.68-.21,1.38-.46.84-.77,1-.89.59-.86-.34-.38-.58.06-.3.2-.33.06-.75.08-.17.22-.12.19-.17.07-.34-.09-.36-.12-.29-.18-.28-.3-.87-.48-.84-.66-.62-1.41-.45-.75-.56-.86-.47-1,.07-1.29,1.2c-.43.69-.87,1.38-1.3,2.08l-1,2.27c-.18.59-.35,1.19-.53,1.78,0,.78-.05,1.55-.08,2.32l-.18.54-.47,1-.39,1.34-.78.66-.69.73v1.32l.41.94.46.73.42.88c.1.47.19.94.29,1.41l-.21.84,0,.57.5.93c.08.23.16.46.25.7l.16.74,0,.57-.58,1-1,.26-2.13-.11-.58.58-.38,1.25-.48,5c-.09.34-.17.68-.25,1s-.37.69-.55,1l-.75.4-3.29.56-3.59,1.68-1.91.37-1.67-.59,0,0c0,.32,0,.64.06,1l0,1.48v.19l0,.16.18.41,1,1.71c.07.21.13.42.2.63s.07.35.1.52l-.06.72c0,.43,0,.85,0,1.27,0,.2,0,.4.08.6l.06.29,0,.31v.28l-.08.22-.18.14-.53.16-.21.09-.12.16-.05.26v.31c0,.3.09.61.13.91v.28l0,.24-.12.25-.29.38-.74.65-.13.15-.07.14,0,.18v.28l.05.27.29.46c1.25,1.49,2.5,3,3.74,4.46.1.15.19.3.28.45l.3.79.27.49.33.37,2.61,1.94.19.17.26.32.2.42.06.28v.21l-.08.25-.48.93-.07.17.06.26.27.29,1.91,1.13.27.22.28.3.37.56.21.37.11.35c.12.59.24,1.19.37,1.78.06.19.13.37.19.56l.12.25.15.21,3,2.6.63.76.37.57,0,.3.09.28c.27.59.54,1.19.8,1.79.1.27.19.54.28.81l.24.29.4.21,1.78.51.38.15.35.21.46.37.93,1.13.13.1.17-.13.24-.11.34,0,1.5,1.12.38.39.17.22.13.25.08.28c0,.1,0,.2,0,.31v.31l.33.3.63.29,3.62.78h.55l1.28-.43h.51l.87.37q-7.92,8.09-15.86,16.11l-1,.84-11,6.69-2.06,1.68-.74.88-.33.56v.36l.24.85c.06.42.12.84.19,1.26,0,.11,0,.22,0,.33s0,.21-.05.32-.07.2-.1.3a2.39,2.39,0,0,0-.13.28l-.15.22-.45.36L368,807.54l-1,.93c-.13.17-.26.33-.38.5l-.22.47c0,.3.05.61.07.91l.06.3.07.59c0,.29,0,.58,0,.86l0,.29-.07.28-.08.29-.14.26-.17.24-.65.42c-1.78.87-3.55,1.73-5.33,2.58l-1.91.18-.28.11-.27.19-.8,1-.67,1.87-.29.5-.48.62-.08.21,0,.2c0,.17.09.34.13.51v.3l-.07.26-.23.24-.37.21-4.53,1.1-4.49,1.94-1.7,1.14-.54.54-.32.2-.48.21-4.27.78-3.85,1.76-.31.06-.82.48L331.62,833l-1.17.66-1.56.57q-13.44.57-26.88,1.07-17.94.68-35.87,1.24l-13.73,1.21q-14.44.56-28.89.83l-6.78,0c-3.73-.17-7.47-.33-11.18-.53l-2,0-.38,0-1.61.44q-13.26.87-26.54,1.66-15.56.93-31.14,1.73l-.26.09-.24-.23-.2-.3c-.12-.25-.23-.5-.35-.76l-.24-.29-.36-.12q-4.5-.24-9-.51l-.23,0-.08.08v.29c0,.18.09.36.14.55.3.86.61,1.73.91,2.6s.47,1.91.71,2.87c0,.3.06.6.1.89l0,2v0c0,.43-.06.85-.08,1.28q-11.72.44-23.44.83-19.47.64-38.95,1.17c.08-.22.16-.43.23-.65.22-.88.43-1.76.65-2.64,0-.29.07-.57.1-.85.2-.71.39-1.41.59-2.11.13-.33.27-.66.41-1l.27-.33.52-.3,1.09,1,1.12,1.26,1.22,1.09,1.42.43,1.19-.66.91-1.55c.34-1.09.69-2.18,1-3.27.56-1.31,1.13-2.61,1.69-3.92.11-.49.21-1,.31-1.47l-.12-1.26-.73-1.95c-.07-.39-.13-.77-.2-1.16l.15-.67.41-.6.4-.5.22-.38,0-.55c0-.59-.07-1.18-.1-1.77l.23-2.44c-.09-.33-.17-.66-.26-1l-1.59-1.74c-.28-.45-.57-.89-.86-1.34l-.15-1.47.94-1.75L85,817.05l1.44-2.88.45-.61,1.51-1.34,1.85-.88,2.07-.31,2.18.35L107,816.89l3.29,2,1.8.46,1.66-.32,1.28-1.37.87-2.31-.09-1.78-.85-1.67c-.47-.64-.94-1.28-1.42-1.91l-1-1.82-.48-2c0-.74.09-1.47.13-2.21.27-.79.53-1.59.79-2.38l.43-.78.57-.61.74-.41.92-.17,2-.06.75-.22,2.57-1.59,8.15-1.79,1.4-1c.1-.54.2-1.07.29-1.61L129.72,791l-1.38-1.36-.24-.32c-.27-.49-.53-1-.8-1.49-.11-.35-.23-.7-.34-1.06l.24-1.36.53-1.25.49-.77,2.43-2.24.66-.78c.14-.43.28-.86.41-1.29l0-1.11.17-.75-1-.39-.87-.06-.3-.11-.18-.24v-.28l.16-.13,1.29.06.69-.08.46-.28-.3-.6-2.27-2-.78-.93,2,.3h.45l.69-.4c0-.14.09-.28.13-.41l-.15-.53-.15-.77c-.1-.38-.2-.76-.31-1.15l0-.68.41-.3.2-.39-.06-.85-.2-.91-.21-.56.52-.68c-.22-.46-.45-.91-.67-1.36l.53-.27.74-.17.77-.38.73-.53.59-.58L134,761l-1.4.2-.72-.33,1-.79.93-1,.42-.31,1-.27.4-.28.41-1-.57-.63-.87-.45-.46-.51-.14-.37-.33-.35-.33-.41c0-.2-.09-.4-.13-.6l.1-.68c.1-.13.2-.26.29-.4l.36-.34c.13-.17.26-.34.38-.52l.28-.91c.07-.3.15-.61.22-.91l.38-.71.84-.25.07.35.45.63.49.28c.1-.35.21-.71.31-1.07l.26-.46.33-.44.31-.18.18.23c0,.18.09.36.14.54l.21.54.44.23.27-.3c0-.2.07-.41.1-.62l0-.72.12-.52c.08-.21.17-.42.26-.63.11-.43.23-.86.34-1.29l.33-.62.35-.3.85-.34.31-.2.64-.88.63-1.21.18-1.14-.7-.63c0-.14,0-.28,0-.42l1.33-.49,1.37-.78.35-.34.45-.58.33-.29.39,0,.27.24.25,0c.09-.21.17-.42.26-.64l0-.64-.78-1.16c-.07-.29-.13-.57-.2-.86l.18-.86.42-.66.55-.49.56-.38-.28,0,.17-.14.15-.15.13-.23c0-.1.08-.2.13-.3l-.27-1.12c.11-.38.21-.76.32-1.14l.63-1,.69-.65.44-.1.61,0,.5-.13c.08-.13.15-.27.22-.41l1.21-4.19-.68-2.18-1-2.13-.57-2,.11-.67.58-.91.12-.63c0-.77-.07-1.53-.11-2.3-.1-.23-.19-.47-.29-.71L150,709.89l-.53-.61-.32-.93c-.15-.69-.31-1.39-.46-2.08l-.48-1-1.41-1.3-.65-.38-.35-.26-.26-.45.06-2.17,2.71-2.89-.06-2.4-1.08-1.87-.24-1,.39-1.15.76-.87,2.58-1.37Z"/><path class="cls-1" d="M333.83,191.16q-36.94,7.31-74,14-27,4.89-54,9.42l-.72,0-1.14.22-5.21.16-.72.17-.66.35L196,216.75,193.8,218l-.58.47c-.52.56-1,1.13-1.54,1.7l-.64.42-2.09.92-5.14,4.39q-7.42,9.36-14.91,18.67c-.59,1.14-1.18,2.28-1.76,3.42l-1.25,2,.63.72.45,1c.07.33.15.66.23,1l-.31.85-2.37,2.15,0,.19,0,.32v.39l-.11.3-.12.13-2,1.2-.16.4-.32.6-4.59,5.44-4.92,3.19-6.35,6.23c-.08.29-.16.57-.23.86.13.4.26.79.4,1.19l.61.3.76.13.83.58.29.63,0,.45-.11.39.13.44.33.28h.4l.27-.32c0-.22,0-.45,0-.67s.19-.53.28-.8l2.46-1.73c.16.23.32.47.47.71l1.57-.54.68.54-.26.32-.08.2-.06.77.26-.39.3-.3.34-.2.4-.09-.15.76c-.11.28-.23.55-.35.83l-.5.66-1,.72-.6.76c-.11.24-.23.48-.34.71l.31.29,2.53-.37.73-.37,1-1.23.62-.33.7.07.37.43v.65c-.13.25-.25.5-.38.74l-.58.44L157,282l-.47.64c-.06.29-.11.59-.17.88s0,.48.07.72-.05.48-.07.72l-.5,1-1.57,1.79-.33.86-1.23-.64.15-.39.21-1.2-1.89,1.28-.47.6-.33,1c.1.13.2.25.29.38l.67.18.72.5.27.24.59.34.24.24.18.4c0,.14,0,.28.08.43l.12.42.71,1c.19.5.39,1,.59,1.49l.38.67c-.08.38-.15.76-.23,1.15s.09.86.14,1.29l.36,1.35c.15.41.3.83.46,1.25l.24-.84.32-.58.42-.24.56.27-1.35,2.8,0,1.27,1.24.68-.68.86L155.38,307l-.78.53-2.68,1-1.09,0-1.81-.42-.72.24-1.82,2.49-.69.74-4,2.71-1.42,1.37-1.23,1.65-1.34,3.81c-.37-.18-.73-.37-1.09-.56l-.6-.06-.18.68-.18.25-2.49,1.6-4.13,1.51-.2.19c-.05.18-.11.36-.16.54l0,.42.09.34,0,.29-.1.37,0,.17-.05.12-.37.19-.41.11-.39-.06-.37-.24-.35-.38.08-.24.12-.58-15.95,1.42-1.84.65-4.92,2.63-1.87.23-1.82-.57-3.32-2.31-.22-.07-.95-.13-.09-.58-1.1-.38-15.15-.86L75,327.21l-6.44-.11L56,330.68l-2.51,1.65-4.37,1.33L44,336.42l-2.75.84v0h0l.3,1c.28,1.69.56,3.37.83,5.06,0,.2,0,.4,0,.61s0,.5,0,.75l-.1.5-.18.48c0,.2-.08.4-.11.59s.07.54.1.81v0L44,348h4.68l1.29,1.28-.07,1.29-1.26,1.71c-.07.44-.13.88-.19,1.31l.23.48.88.64.22.29c.2.82.4,1.64.61,2.46l.3.59,1.1,1.6.32.69.13.49.16,1.31,0,1.38c-.09.35-.19.7-.29,1.06l-.55.8-.76.68-3.07,1.87-1.43,1.16-1,1.59c-.21.73-.41,1.46-.62,2.19-.18.35-.36.71-.55,1.06l-.85.53-.14.25-.53,1.62-.39.89-.21.25-.5.37L38.84,379l-.72,1.31-2,1.71-2,1.1-.4.33-.26.4-.28.56-.37.52c-.39.26-.78.52-1.18.77L30,388.59l-2.19,1.59-.58.86-.64.75c-.92.47-1.83.95-2.74,1.43L21,396.08l-1.1.72-.78.78-.45.25c.57,5.07,1.15,10.11,1.74,15.17q93.12-10.62,185.76-24.86l.09.75,1.12.62,1.41.42,1,.49.4,1c.1.46.21.92.31,1.38s.29.8.44,1.21l.77.42,2.26-.74.57.08,1,.66,1.21.25.76.95.44.16.57.15-.09.54-.77,1.36.94.35.78.14.58.44.39,1.19c0,.18,0,.36-.05.55l-.52.57,0,.55.9,2,.18,1.16c.07,1,.14,2,.2,2.93.07.19.14.38.2.57l.63.45L224.7,413l.7.77.82.53,2,.17.61.43.51.57.68.45L231,416l2-.47.89.39.61.41.45-.08.39-.26.47-.21.33.14.29.4.47.86.46.48.84,1.11c.14.35.28.7.41,1.06q18.45,7.59,36.8,14.92l-.21-1.43-1.41-4.68-.24-2.47-.21-1-.75-.71-.94-.49-.62-.84-.42-.68-.63-1.85-.27-.42c-.07-.15-.13-.3-.2-.46s0-.54,0-.8l.18-.52.35-.51.68-.75c.1.37.19.73.28,1.1-.07.32-.13.65-.2,1v1l.9,1.1,1.59,1,.6.47.57.81.76,1.85c.18.69.35,1.39.52,2.08l.74,4.56.06,1.17-.2,2.4,0,2.39c-.19.86-.39,1.73-.59,2.6l.43.23.29.69-.17.71-.24,1.22c-.06.21-.12.42-.19.63l.09.45.35.69,1.41-.19,1.1-.65,1.54-.21,1.34-.36-.43-.66-.76-.61-.08-1.3.13-.55.48-.15.51-.06.18-.27.06-1.05.4-1,1.52-2.37.34-.41.49-.18.92-.16.08-.24.67-1.45.12-.6a1.71,1.71,0,0,0-.13-.23,3.88,3.88,0,0,0,.26-.31l0-.05c.09-.11.17-.23.25-.34l.64-.2.32-.21.2-.69.28-.1.37.44,1-.41.68-.67.37-.22.69.45c.2-.44.39-.88.59-1.31l.7-.77.44-.13,1.39-1.29.53-.36,1.64-1.58.32-.15.29-.29.59-.14.67-.52.68-.22.57-.19.29-.39.2-.7.38.19.41.65.37-.22.67-.57.38-.55.18-.4.08-.41c-.05-.25-.11-.49-.17-.74l.14-.26.1,0c.17.15.34.31.52.45l1-.46-.11-.69.63.16.29.19.45.28,1,.5,1.06-.27-.21-.73v-.72l.1-.36c.09-.23.19-.45.28-.67l.33-.38.84-.6.36-.47.7.26,1-.27c.12-.31.24-.62.35-.93s.21-.32.31-.48l.81-1.71,1.3-1.8.05-.3.27-.62.31-.43.23.24.33,1.27.46.57.08.58.24.57,1.53-.31.42-.82.71,0,.53-.26.32,0,.59-.66.4-.23,1.59-.4h.58l.46.17.42.23.46.15.53-.09.29-.28.25-.46.33-.43,2.3-1,1,.12,1.89.52.39-.44.33-.06.15.27.14.09.17.08.27.22.39-.88.75-.74.86-.56.79-.26,1.92.34.9-.08.64-.89-.16-.06-.48-.26c.06-.47.13-.93.19-1.4l-.55-.81c-.28-.2-.56-.4-.83-.61l-.66-.81.82-.06.68.27.51.46.31.51.07.51c0,.16-.05.31-.08.47l0,.4.2.39.31.17.64.15.35.23,1.45.34,2.28-2,1.26.54c0-.51,0-1,0-1.52l1.11-.13,1.47.32,1.06-.13.29-.71v-1.36l.43-.42,2.34,1.53,2.39-1.93.38-.17,2.74-.58h.55l.6.2.48.29.35.52-.78.78.36.45.93-.66.71-.47,3-1.38,6.11-3.27,1.74-.75,1.06-.29,1,.29.44,0,.34-.32.09-.55c.15-.25.31-.5.47-.75l.47-.95.54-3.71-.07-1c-.21-1-.41-1.94-.61-2.91l-.38-.82-.77-1,.11-.61.47-.64.28-1.11L374,380l-.36-1.08-.57-.77-1.07-.32.14-.43.41-.47.44-.29.5-.05.39.15.37.33.38.44c0-.19.05-.37.07-.56.12-.41.24-.82.35-1.23l0-.5-.28-.62-.41-.31-.44-.2-.34-.34c-.11-.31-.23-.61-.34-.92l-.3-1.31c-.06-.42-.13-.84-.2-1.26l0-.76.68.67.48.65.36.76c.09.33.17.66.25,1s.33.46.5.68l.9.55.88.35.42.09c0-.17.07-.33.1-.49l-.12-1.23.08-.27.41,0,.33.23.16.42c-.1.43-.21.85-.31,1.28l-.12,1,0,1,.06.8.42.57.66-.14,1.16.28.33-1.76.15-.07v-.21l-.15-.74v-.53l0-.14h0l.2-.7,0-.28.19-.36.57,0,1,.23.34-.35.22-.43.79-2.85.38-.78.58-.39c-.2.84-.39,1.68-.58,2.52l-1.53,4.33-.06.52-.21,1.81c0,.38.07.77.11,1.15l.21,1.32.63,2.43.87,2,.05.42-.11.65c.07.19.15.38.23.57.27.39.54.78.8,1.18l2.2-3h0l.91-.78-.24-.25-.54-.78,1.59,0,.44-.38-.24-1.14.69.59c.14.27.27.54.4.81,0,.25-.07.5-.1.76l-.79.54,1.35.3,1-.48c.52-.6,1.05-1.19,1.58-1.79l0,.16v.27l.57-.15.45-.39.79-1-.6-1.59.25-1.1.38-1-.18-1.41,1.14.48.35.21.25.37.5,1,.31.25.48-.13L398,377c-.18-.45-.37-.91-.55-1.37l.41,0,.75-.5.58-.56-.06-.19-.05-.27c.07-.17.15-.33.23-.5l.47-.19.65.69L401,373c0-.33.07-.66.1-1s.2-.45.29-.67l1.13-.08-.52-.7-.19-.66-.21-1.83.37-.18.95.29,1.5.73.29-.06c0-.24,0-.48,0-.71s.17-.3.26-.45l.4,0,.41.53-.17.11-.34.42.37.55-.24.57-.41.57-.16.56.21.77.4.87.81,4.24-.08,1.61-.78,1.29,1.23.31,2.27-2.28,1.2-.55,1.37-.33,1.14-.48.91-.78.66-1.15L415,372c.12-.18.23-.36.34-.54l.54,0c.26.3.53.6.8.89l.4-.3.51-.68.56-.23,1.4-.14.65-.26,1-.75.6-.24c-.05.49-.09,1-.14,1.48,0,.2,0,.4.05.6l.29-.38.43-1.21c.1-.16.19-.33.29-.5l.38-.26.49-.2,1.2-1,2-.41,6.37-2.55,1.71.09-.49-3.77c-.23-.95-.45-1.91-.68-2.86l-.47-.7-.62.06-.84.79c0-.26,0-.52,0-.78l-.17-1.63.3-.3.47.06.69.37.18,0,.13-.08.12-.14.1-.21-1-.92-2.71-5-1.84-2.25-2-1.95-1.46-.78-1.69-.55-1.26-.16-.9.06-1.06,0-1,.28-.52.33-.25.33-.24.47,0,.42.31.07.37,0,.36.33L420,348.2l.64.36.66-.73c-.05-.18-.09-.36-.14-.55l-.21.07-.66.11,0-.67.85-1,1.21.12,1.82.79.94,1.26.37.93c.35,1.23.71,2.45,1.09,3.67.18.63.35,1.26.52,1.89l.35-.7-.12-1.77.51-.48.45.11.48.37.61.3.82-.08.09.43-.63.42-.33.16-.41.08,1.1,1.24c.1.66.21,1.32.32,2s.33,1.1.5,1.64l-.6,1.59-.57.42-1.27,1-1.18.68-3.56,1.82-1.92,1.72-1.19.76-1.69.32-.88,0-.25-.33.47-.41,1.53-.33.58-.4-5.35.58-1.72-.29-3.09-1.34-1.5-1.22c-.07-.48-.15-1-.22-1.44l0-1.54-.66-2.08c-.34-.59-.68-1.18-1-1.77l-1-.64-1.59.47h-.81l-1.33.15-3-2c.29-.3.59-.59.88-.88l.31-.14h.34l.46.15c-.05-.91-.09-1.82-.14-2.72l.22-.47.46.28.56.73.81,1.45-.26.07-.34.31-.18.12.46.2.47,0,.43-.16.34-.43.17-.41-.09-.14-.25-.12L402,349.91c-.18-.28-.35-.56-.53-.83,0-.33,0-.67,0-1l-1.11-.74-1.43-1.74-1-1-.6-.36-.2,0-.06-.15-.33-1.67-.18-.34L395.28,341l-.95-.59-1-.41-2.09-.17-1.17-.59-2.15-1.58c0,.22.08.44.11.66s.32.56.47.84l.66.68.59.23.06.32-.23.65-.45.31-.61-.65-.38.46c-.2.17-.4.34-.59.52l-.57.36-.27,0-.08.22-.24,0-.29-.11-.22-.16,0-.22c.12-.18.24-.36.37-.53s0-.22,0-.33c-.18-.22-.37-.43-.56-.64l-.85.19-.68-.1-.08-1.56-.88.8-.4.05-.55-.32-.49-.69.08-.6c.15-.15.29-.3.44-.44l.62-.2-.31-.46-.38-.24-.46-.12-.47,0c.11-.28.23-.55.34-.83l.65.21.79.41.75-.29-.48-.15-.41-.34-.13-.36.39-.24.59.1c.29.25.58.5.86.76l.62-.05-.43-.48-.21-.5-.37-1.19-.52-.84-.06-.49.3-.82c.24-.21.47-.43.7-.65L386,332l1-.52-.58-.24-.64-.37-.44-.51v-.72l.24-.26.67-.07.32-.13.22-.25.68-.94.13-.3.18-.24.35-.16.32-.2-.16-.31-.5-.42c-.09-.17-.18-.35-.28-.52-.12.12-.24.25-.35.38l-.44.7-.51.4v-.56l.09-.46.17-.39.3-.32-.39-.34c.2-.21.39-.43.59-.65l1.94-1.3,4-1.89.25-.44c.05-.18.09-.36.13-.54l.28-.58.42-.42h.25l.12.15.07.11.78-.05.18-.15.38-.42.24-.51.11-.51.24-.36.59-.12c0-.12,0-.23-.07-.35l-.3-.4,0-.53,0-.41-.44-.09-.55.06-.4-.11-.24-.43c0-.27-.06-.54-.1-.82l-1,.79-.43.51-.24.58.39,1.47c0,.18-.07.37-.1.55l-.82-.33c-.06-.23-.13-.46-.2-.69l-2.34.24-.94-.84.41,0,.33-.14.56-.46-2.56-.68-1.06-.76-.51-1.71.55.34,1.6,1.61.22-.48c-.63-1.11-1.26-2.22-1.9-3.33v-.7l-.29-.46-.18-.14-.16,0-.3.1-.1,0-1-.24-.45-.2c-.17-.15-.34-.3-.52-.44l1.9-.24.36-.21c0-.17,0-.33,0-.5l-.72-1.91c0-.13,0-.27,0-.4,0-.3,0-.6-.07-.91l.13-1.23.48-2.14,1.52-3.92c.05-.32.11-.65.17-1l.1-.3c0-.26.11-.52.17-.78s0-.54,0-.81l-.29-.3-.92.3-.86.41.16-1.47c.05-.61.12-1.22.18-1.83-.05-.1-.11-.2-.16-.31l.76-.23.73.63.73.81.69.25.38-.57.63-3.21.49-1.61.4-.61.62-.5-.66-.26.33-1.15c.15-.32.29-.64.43-1l-.81-1.11c-.08-.45-.15-.9-.22-1.35l.19-1.42.34-.21.93-2,.36-.53.41-.18,1.22-.32.9-.64.54-.83.47-.9.62-.89.32-.23.5-.17.22-.24.06-.27c0-.27,0-.54,0-.8l.07-.33.59-1.2.38-.54.5-.4c0-.11-.05-.23-.08-.35l-.44.16-.38.27-.69.67-.48-1.19-.32-1.06c0-.36-.05-.72-.07-1.08s.13-.87.19-1.31l.38-.8.63-.71.62-.06.34,1.18.54-.55c.21-.47.41-.95.61-1.43l.73-.39c0,.13,0,.27-.05.41l-.1.42.55-.25.94-.74.6-.23v-.38c-.06-.6-.11-1.19-.17-1.78l-.12-.61-.8-1.33-.92-.19-1.05.27-1.22.1c0-.14-.05-.28-.08-.42l1.24-.22.51-.32.31-.67-.16-.49c-.11-.25-.23-.5-.35-.74l-.18-.73,1.07-1.09c.19-.86.39-1.71.59-2.57l.77-.7,1.66-2.7.36-.25.44-.17.5-.28.88-.74.36-.43c.17-.37.34-.74.5-1.11l.33-.56.43-.43.54-.18-.09.71-.25.64-.34.51L407,246l.58,0,1.12-1.4.87-.29-.15,1.67-1.29,3.43-.41,1.65.74-.22.5-.72c.08-.32.16-.64.25-1l0-1c0-.3,0-.61.07-.91l.33-1.38c.15-.41.29-.83.43-1.24l.37-.52.42,1.11c-.5,2.11-1,4.22-1.51,6.33l.32-.11.21-.22.1-.35,0-1,.18-.22.27-.15.25-.28,1.18-2.65c.12.25.23.5.35.76l.42-.21c.11-.25.23-.49.35-.73s.07-.55.11-.83l-.17-1-.38-.61-.51-.31-.56-.2.22-.45.27-.33.36-.21.43,0,.53.12.07.2c0,.12-.07.24-.1.36v.62l.25.48.72.43.24.45,0,.59-.11.26-.17.22-.06.4.15,1.32.21.93.32.37.49.28.46,1.72.59.52.08-.7.21-.71.36-.56.47-.3.09-.27c0-.51,0-1,0-1.52l-.21-.51-.59-.94-.75-1.83-.48-2-1.36-4-.57-1.49c-.1-.16-.19-.32-.28-.48l-.3-.15-.29.5c-.14.19-.29.37-.44.56l-.73.14-.48-.19c0-.25-.11-.5-.16-.75l.21-.64c.09-.22.19-.44.29-.67l.64-.89.81-1.69.64-.59.37-.38.17-.49.28-.21.28,0,.07.29,0,.46-.6,1.12-.3.9c0,.32.05.64.08,1s0,.54.07.82.24.66.37,1l.33,1.11.35.58.15.63.13.66c.06.24.13.47.19.7l.27.6.45.68.24.57.84,2.64.11,0,.19,0,.23.07c.05.13.11.26.16.38l0,.17-.08.19-.05.24,0,.4c.23.51.46,1,.7,1.51l.53-.06c.13-.36.25-.72.37-1.08.13-1,.25-2,.37-3.06l-.07-.87-.39-.33-.36.36-.27,1.44-.34.43c.07-.55.15-1.1.22-1.66,0-.27,0-.54,0-.81s-.17-.49-.26-.74l-.39-.23-.56-.13-.34-.36c.08-.29.15-.58.22-.87.83-2.29,1.65-4.58,2.48-6.88l.43-.77.48-.46.6,0c0,.17,0,.33-.07.5l-.33.63-.2.3c-.09.72-.19,1.44-.28,2.16,0,.24,0,.48,0,.73s.24.58.35.87l.47.23.52.14.47.59-.28,0h-.56l-.32-.12c0,.16,0,.33-.07.49v.32c0,.1.07.2.11.3s.18.25.26.38c-.18.51-.37,1-.55,1.51l.12.37.61.49.85.53.67.21.59-.19.5-.67c.11.63.22,1.26.34,1.89l.24.42c.1-.3.2-.59.29-.88v-1l-.27-.91-.45-.79-.55-.63c.05-.13.1-.27.14-.4v-.44l-.17-.41-.29-.3.16-.4.1-.52v-.51l-.19-.38-.12-.36c0-.18.07-.35.1-.52.12-.34.23-.67.35-1l.24-1.56.21-.83.34-.59.4.88-.75,2.48-.07,1.37.15.39.47.28.17.38v.29l-.06.69,0,.38c0,.21,0,.42,0,.62s-.07.37-.1.56.11.34.17.52l.76.53c-.08.16-.15.32-.22.48l.72.68-.39-1.84c0-.29-.06-.59-.1-.88s0-.56.05-.85l.26-.06.33.79.49.65.47.75.3,1.15.57-1.06.27-1.78c.08-1.71.16-3.42.23-5.14l.12-.84.28-.75.28,0,.62-.28.42-.56-.57-1.31.39-.38.52-.4.2-.51c0-.31,0-.62,0-.92l.41-.09.4.5,0,.76-.56,1.07.11.3.73,0,.26.29-.09.78c-.14.46-.27.92-.41,1.38l.67-.14.88-.82.55-.29.49.2c0,.53-.07,1.06-.11,1.59l.27.68.39-.58,1.76-3.71.75-.22-.19,1.05c-.26.76-.53,1.52-.8,2.28l.14,1.44.25.05.74-.37.42-.29,1.25-1.26-.5-.34-.22-.56,0-.69c.06-.23.13-.46.19-.69l.4.08.26-.12.1-.36c0-.2,0-.39-.07-.59l1.25.24.31-.82-.06-1.12c.06-.21.13-.41.19-.62l1.06-.39.54-.63.24-.94.21-1.32-1.31.44c-.08-.2-.17-.41-.26-.61s.05-.68.08-1l-.41-.8c0-.11-.05-.23-.08-.34l.34-.57.22-.87.27-1.58c.05-.94.09-1.88.13-2.83.14-.32.28-.64.41-1,.12-.94.23-1.89.34-2.83l.5-.48.75-.55.64-.69c0-.3.09-.6.14-.9l-.49-.87L442.72,206l-.2-.55c0-.23,0-.46,0-.69l-.52-.35-.27-.38.73-.78,1.74-.94.43-.52c.28-.44.56-.89.83-1.34l.6-.53h.62l-.15,1,.5,0,.73-.59.57-.81-.63-.19h-.27l.15-3.27-.09-1.5.2-.14.68-.13,1.4.1.36,1c-.2,1-.4,2.08-.59,3.12v.36c0,.29.08.58.11.87l0,.37-.16.32-.41.41-.12.2-.14.7-.09,1,.12.9.51.54.43-.18.33-.67.46-1.38.34-.45,1.33-1.14.2.77c.34.35.67.71,1,1.07l-.16.37h-.42l-.93-.35-.26.08-.34.62-.44.55.34.4.38.58.16.57-.32.34-.34,0-.5-.45-.4,0-.49.54-.09,1.06.08,2.16,1.15-.36,1.2-1.33,1.05.14,1.41,1,.94.44.64-.37,1.37-.18,4.42,2.48,1-.75-.52-.16-.44-.21-.38-.36-.36-.53.68.3.32-.24,0-.62-.38-.78-.42-.25h-.48l-.44-.12c-.11-.21-.22-.43-.32-.64s0-.46,0-.69l.24-1.64c-.05-.16-.1-.33-.16-.5l-.48-.55c-.24-.4-.49-.8-.74-1.2l-.59-.48,1.07.06.94-.19.77-.62.54-1.22.34.54.2.59.29,1.31.24.24.27-.5.24-.76c0-.18.06-.36.08-.54s0-.3-.07-.45l-.13-.18-.18-.08-.27-.17-.19-.31v-.27l.09-.25v-.35l-.25-.74c-.37-.53-.74-1.06-1.12-1.58l1.13-.27.82.24c.17.27.35.53.53.8l.52,3,.3.65.56-.09,1-.59-.32-.72.72-1.42c0-.4,0-.8,0-1.21l.82.46.87,0,1.77-.41-.16-.18-.14-.19-.18-.16-.24-.16c.14-.42.28-.84.41-1.27l-.62-.64-1.43-.34v-1.08l.57-.05.81.24.72-.17c.06.31.11.62.17.93l.33.55,1.63,1.26.05-.36-.21-.77c0-.28,0-.56-.08-.84l.31-1.51.4.2.42,1.24.37,1.56.19.39.26.12.6-.11.32-.21c0-.11-.06-.21-.1-.32l-.24-.34-.08-.31,0-.4c0-.11-.05-.22-.07-.33v-.3l.31-.31h.23l.09.29.06.31.2.13,1.19.1.35.9c0,.43.07.86.1,1.28l.53,1.41c.25.52.51,1,.76,1.58l.57.84.2-.24.58-.37c0,.29-.06.59-.08.88s0,.49,0,.74l.27.58.63.46c.34-1,.7-2.06,1-3.09l.12-.54-.12-.27,0-.18.35-.29.26,0,.15.35.19.29.39-.09.18-.31.08-.44v-.51c0-.13,0-.26-.05-.39l-.15-.13c-.26-.47-.51-.95-.76-1.43,0-.09-.05-.18-.08-.27l-1.41-.45-.64-.43.47-.38.78.22.38-.09,0-.57-.11-.57c0-.16,0-.31,0-.46l.14-.33.39-.18c.32,1.22.63,2.43.95,3.64l.18.46.21.21.26.13.3.22.48.22V195c-.12-.34-.23-.68-.34-1s-.07-.63-.11-.94l.06-1,.26-.84.54-.41c-.09.42-.17.83-.26,1.25s0,1.11,0,1.67l.43,1.46.94.61-.21-1.41c0-.88,0-1.76,0-2.64l-.42-1.06.53.13.6.05.41-.28v-.86c-.11-.2-.22-.4-.34-.6l-1.06-1-.26-.63.2-.21.45-.19c.13-.13.26-.26.4-.38,0-.53,0-1.05,0-1.58l.26-.44.46-.07.52.37.13-.81.22-.7.29-.17.33.84c0,.3,0,.61-.05.92l-.24,1v.78l.53.44.22.19c0-.19,0-.38,0-.57l-.17-.23c.21-1,.41-2,.62-3l.36-.44.26.38c.06,1,.11,1.94.17,2.91l.34.88.5.56.57.3.59,0c.2-1,.41-2,.61-2.94l.44-.89.31-.36.38-.21.26.22.26.47.12.4.15.45v.28l.09.15.46.14h.3l.37-.07.32-.18.2-.21.28-.19.45-.23.31-.27-.13-.34-.3-.43,0-.52,0-.53v-.46l-.34-1.73-.41-.36-.8.24,1.23-1.91.58-.26.52,1.21.28-.07c.08-.23.15-.47.22-.7l.48,0,.38.5c0,.28-.05.57-.08.85l.69.12.72-.06.71-.25.64-.44c-.23-.14-.46-.28-.68-.43l-.22-.7c-.05-.29-.1-.58-.16-.87l-.46-.91,1,.12.56,1,.5,1.32.75,1c0-.2.05-.4.08-.6l.16-.39.5-.83.15.12.34-.14.06-.32-.73-.42c.05-.4.11-.81.17-1.22l-.42-.69-.61-.55c-.16-.28-.31-.57-.47-.86.17.12.35.23.53.34l.52.19.52-.11.45-.52-.63-.21,1-.86.83.32c.12.33.24.67.35,1-.13.38-.26.76-.4,1.13l.1.42.85.25.65.43.68.35.89-.13-.63-.82c0-.16-.07-.32-.1-.48l.23-.22.44-.07.12.06.77.36.37.05,1.09-.25c-.1-.16-.2-.32-.31-.48l-.14-.17.26-.42.64-.4.31-.28,1.63-3.05.21-.8.17-1.11.39.35.09-.37c0-.37.07-.73.1-1.09l0-.2.37-.17.87-.07.39-.14c.15-.18.29-.37.43-.55l1-2,.17-.66-.14-.17c-.26-.42-.53-.84-.8-1.26l-.08-.21,0-.26,0-.22-.16,0-.55.18-.14,0-1.18-1.34-.55-.44-.68,0,1.26,2.26c.07.39.14.77.2,1.15l-.74.86-.33-1.22-.65-1.4-.77-.86-.7.46.28.25.34.52.18.22-.46.47.39.36-.53.27-.86-.85-.44.19,0,.45c.1.56.2,1.13.31,1.7l0,.58-1.23-2.72-.52-.5-.9-.58L507,161c0-.28.07-.56.11-.83h.48l1.61.86.57.16.62-.37.26-.62c-.06-.21-.13-.42-.19-.63l-.72-.4.13-1.4.49,0,.61.61.54.33.75-.53c0-.28.06-.56.08-.85s0-.61-.05-.92.22-.53.32-.79l-.6-.46-1.19-1.55-.3-.32-.58-.15-.73-.55-.48-.81c.09-.33.17-.66.25-1l-.77-.86-.79-.77-.56-.37-.31-.15-.25,0-.12-.13-.38-.68-.39-.54-.2-.35-.22-.28-.33-.06-.78.23-.17,0-.44-.7.15-.45.49-.25.63,0-1.34-.34-.54,0-1.06-.36-.53,0-.47.24-.3.52,0,.45.09.46-.08.57-1.17,1.21-1.61-.33-1.71-1.23-2-2.09-2.11-1.27-.36-.88v-1.15l.18-1,.55-2-.24-2.12-3-3.36-.9-2,.81-1.08.78-1,.54-.79c-.1-.67-.2-1.35-.31-2l-.74-1.54-.9-.55-1,.1-1.17.46-1.81.37-2.31,0-2.31-.49-1.42-.65-.68-.46-.36-.58-.41-.51-.5-.3-.28.17-.11.44-.22.4h-.57l-1.11-.41-.65-.37c-.14-.22-.29-.44-.44-.66l-.84-3c0-.3,0-.59,0-.89s.17-.73.26-1.1.23-.71.35-1.07l.12-.75-.28-.69-.88-.87-.48-.88.28-.91.52-1,.27-1-.2-.5-.4-.35-.45-.31-.33-.36c-.06-.18-.13-.36-.19-.53q-7.27-30.33-14.54-60.63c-.21-.74-.43-1.47-.65-2.21l-.27-.34-1.8-.54-.74-.42L451,41.31l-2.05-1.08-.36-.42c-.11-.25-.22-.49-.32-.74l-.48-.55-1.51-1.18-2.07-.86-2.92-1.79-.62-.23-1.26-.27-.49-.19-1.43-1.26-.58-.36-2.16-.67-2.15,0-1.74.94c-.32.68-.63,1.36-.94,2,0,.23,0,.46,0,.7l.17.48,0,.33-.89.46-.43.35-.46.21-1.4-.56-1,.11-1,.38-.78.47L422.57,39l-.71.91-.51,1-.6.72-.93.3-1.91.31-1.61.83-4.38,3.73-.65.16-5.9-2.24c-.31-.34-.61-.68-.92-1-.21-.5-.41-1-.62-1.47s-.3-1.26-.46-1.89l-.27-3.49-.34-1.67-.76-.64-6.23-.33-.58.19-.46.44-.49.89q-9.89,24-20,47.88l-.12,2.55q.5,6.28,1,12.56l-.19,1.59-2.55,3.28-.52.37-.7.72L371,106l.15,1.25c0,.19,0,.38,0,.57l-.81.44c-.12.27-.23.53-.34.8l-.26,2.22c-.21.83-.42,1.65-.62,2.48l.08,1.16.94.32.79,1,.45,1.18c0,.41,0,.81,0,1.21s-.28.61-.43.91l-1.21,1.27c-.13.22-.25.44-.38.65l.14.43.33.27.2.22.23.18.17.2.11.29-.05.23-.31.43-.05.21v2.13l.21.91.64.73,1,.32.71,0,.37.39,0,1.52c-.14.67-.29,1.33-.44,2l-.89,1.53-2.58,3-.63,1-.14.4,0,.61.21.31.29.31.28.56c.11.4.21.8.31,1.21s0,.71,0,1.06l-.31.92-.66.79-.43.21-.88.18-.44.32-1,1.25-2.08,1.56-.56.74-3,5.23-1,4,.12.94.6,1.1.78.7,1.74.67.85.51.58,1-.36.83-.8.56-.84.17-.94-.31-1.65-1.15-.86-.28-.93.15-.64.54-.37.84-.12,1,.17,1.14c.21.84.42,1.67.62,2.51l.09,1.07-.19.54-.68.77-.23.47,0,.52.28,1.05-.05.59-.59.76-.71-.54-2.73-4.5-.8-.58h-1l-.89.46-.36.56-.22.71c-.19.29-.38.58-.56.88l-.37.26-.79.31h0l-.35.26-.48.91-.84,2.21-.68.51-1,0-1-.16-3.77-1.48-.74,0-.85.48-.61.73-.85,1.77-.45.64-1.66.79-.34.45L335,179l.78.56c0,.37,0,.74-.07,1.11-.24.74-.49,1.48-.74,2.23l-.06.62c0,.37,0,.73,0,1.09l-.1.65c-.39.94-.77,1.88-1.15,2.81l-.15.84.09.92.36,1.28"/></g><g id="State_lines" data-name="State lines"><path class="cls-2" d="M318.68,327v0l-.57-1.57-1-1-2.1-1.51-.47-.56-.33-.51c-.1-.2-.19-.41-.29-.61l-.24-.85c-.05-.34-.1-.69-.16-1l.09-.68c.06-.22.13-.43.19-.64l.17-.86-.15-2.5.1-1,.63-.55.93-.53c.07-.33.14-.67.22-1-.1-.86-.19-1.73-.29-2.6,0-1.1.09-2.19.14-3.29,0-.43-.09-.86-.13-1.29l-.51-1.41-.14-.69c-.05-.78-.1-1.56-.16-2.34l.22-.37c.05-.1.1-.21.14-.31l0-.35-.1-.32-.12-.16-.12-.09-.09-.14-.05-.75.09-.62.21-.54.34-.6.3-1.16-.13-1.29c-.19-.69-.37-1.39-.56-2.09l-1.44-9.66,0-1.5.27-.9c.38-.55.77-1.09,1.15-1.63l.41-1.06.12-1.17c0-.8,0-1.59-.05-2.39l-.22-2,.14-.65.94-1.09c.13-.28.26-.56.38-.85l1.79-2.37c.09-.33.18-.65.26-1l.15-1.18v-1.26c0-.42-.09-.83-.13-1.25l0-1.23.37-1.28,2-4.31v-.42l-.34-.28-.42-.28-.25-.44.07-.94,1.14-3.47.27-1.9-.18-2.2c-.31-1.66-.63-3.31-.94-5-.07-1-.15-1.94-.22-2.91l.51-2.2,1.26-1.49,2-.79,2-.27,1-.35.65-.69,1-2c.18-.24.35-.49.52-.73l3.12-2.9,1-.65.26-.56c.15-.46.3-.91.46-1.36l1.16-1.41c.2-.39.4-.78.59-1.17l-.14-1-.33-1c0-.38.05-.76.08-1.15l.36-.35.5-.1.47-.18c.09-.22.18-.44.26-.66s-.07-.36-.11-.54l-.39-.52-.66-.69-1.86-3c-.1-.26-.2-.52-.31-.79l-.47-1-.7-.66c-.2-.27-.39-.55-.59-.83l-.09-1.44.6-2.23,2.67-6c0-.48.07-1,.1-1.45-.17-.27-.34-.54-.52-.81l-.7-.78c-.18-.41-.36-.83-.55-1.24l-.15-1.52.3-.62.59-.35"/><path class="cls-2" d="M353.73,362.05q2.67,13.69,5.37,27.39.34,2.91.72,5.82l-.53.25-.18.49c0,.27-.07.53-.11.8l.15,2.88c0,.39,0,.77,0,1.16,0,.2,0,.4,0,.59"/><polyline class="cls-2" points="270.13 697.21 272.46 695.51 273.12 694.7 273.5 694.35 274.03 694.17 274.43 694.34 275.04 695.15 275.28 695.31 275.96 695.64 278.35 697.77 280.22 697.82 283.87 695.82 285.71 695.32 286.7 695.79 287.4 696.79 287.92 697.78 288.45 698.21 289.31 698.3 290.43 698.63 292.34 699.47 293.04 700.12 293.58 701.05 293.91 702.07 294.08 703.03 294.35 703.8 294.92 704.39 295.55 704.88 296.04 705.39 296.53 706.28 296.89 707.26 297.13 708.41 297.26 709.74 297.75 710.68 298.77 711.34 303.8 712.82 304.79 712.86 308.65 711.81 309.7 711.87 311.54 712.57 313.45 712.96 314.19 713.73 314.86 714.69 315.6 715.55 318.81 718.33 320.64 719.39 322.59 719.65 323.45 719.3 324.17 718.58 324.63 717.62 324.76 716.57 325.23 716.16 328.25 714.9 329.22 714.92 330.17 715.22 331.05 715.73 331.82 716.38 332.24 716.57 333.8 716.41 334.43 716.53 335.74 716.99 336.31 717.32 336.67 717.69 337.85 719.34 338.45 719.91 338.8 720.02 340.35 719.52 340.86 719.03 341.47 718.57 342.5 718.4 344.54 718.61 345.46 718.48 346.22 717.91 346.51 717.34 346.88 716.11 347.07 715.67 347.4 715.37 348.55 714.81 349.12 714.17 349.66 713.34 350.31 712.62 351.18 712.25 352.28 711.98 354.84 710.39 355.95 710.12 356.51 710.44 356.73 711.25 356.81 712.37 357.05 713.43 358.43 717.05 359.89 719.1 361.91 720 364 720.54 365.79 721.46 369.25 724.41 369.76 725.17 370.64 726.91 371.14 727.54"/><polyline class="cls-2" points="131.85 777.18 132.86 777 133.65 777.28 135.28 778.23 136.11 778.4 136.33 778.03 138.29 775.64 136.8 772.38 136.6 771.64 136.87 770.44 137.63 769.94 138.59 770.08 139.47 770.77 140.15 771.55 140.88 772.18 141.72 772.58 142.73 772.74 143.6 772.59 145.35 771.9 145.75 771.84 146.15 771.42 146.83 771.03 147.56 770.93 148.16 771.37 148.27 772.13 147.89 773.97 148.04 774.83 149.07 775.45 150.39 774.87 151.47 773.57 151.86 772.01 151.6 770.86 150.72 769.28 150.47 768.02 150.59 767.32 150.92 766.94 151.31 766.87 151.65 766.99 151.91 767.41 151.9 768.35 152.07 768.9 153.67 770.3 155.39 769.87 157.16 768.78 159.02 768.22 159.98 768.42 161.05 768.87 162.08 769.46 162.91 770.13 163.73 770.64 166.8 771.7 168.42 772.7 168.9 772.9 169.54 773.04 170.36 773.06 170.9 773.25 171.12 773.75 171.25 774.38 171.5 774.97 172.23 775.81 172.63 776.13 173.13 776.42 174.48 775.42 175.15 774.07 176.19 770.49 176.67 769.55 177.16 768.91 177.75 768.46 178.54 768.07 181.1 767.67 181.69 767.34 182.65 766.29 184.29 764.92 185.86 764.2 186.62 765.18 187.06 766.64 188.1 768.1 189.52 769.15 191.08 769.36 193.02 768.89 193.89 769.07 193.43 770.23 193.16 771.22 193.82 771.74 194.89 771.7 195.79 771.05 196.09 769.89 196.03 768.79 196.25 767.94 198.61 767.3 199.14 766.72 199.23 765.87 198.89 762.19 199.05 760.98 199.62 760.45 200.55 760.33 201.56 759.94 202.28 759.21 202.38 758 202.1 757.39 201.27 756.55 201.06 755.97 201.28 755.43 201.78 755.43 202.31 755.67 202.55 755.89 202.81 756.41 203.37 756.55 204.4 756.39 206.23 755.49 206.95 754.56 206.58 754.18 205.64 753.94 204.72 753.44 204.14 752.44 204.6 752.02 205.54 752.07 206.37 752.42 208.76 754.12 209.19 754.73 209.16 757.11 209.29 757.98 209.74 758.75 210.48 759.33 212.28 760.18 213.03 760.71 213.94 761.17 216.19 761.2 217.2 761.42 218.98 763.11 219.98 763.82 220.38 763.38 220.76 762.4 221.77 761.96 223.92 761.45 224.4 761.07 224.81 760.67 225.13 760.2 225.37 759.67 225.75 758.22 225.84 752.83 225.98 751.65 226.32 750.39 226.85 749.36 227.58 748.92 227.99 748.38 228.8 746.03 229.37 745.32 229.82 745.29 230.43 745.4 230.96 745.59 231.21 745.78 231.46 746.26 231.97 746.26 233.62 745.64 234.46 745.09 235.96 743.77 236.8 741.81 237.54 736.79 238.77 735.09 239.65 734.79 241.53 734.48 242.18 733.92 242.8 732.91 243.35 732.18 245.59 730.29 246.15 729.42 246.3 728.36 245.23 726.23 244.64 722.8 244.27 722.03 243.84 720.88 243.79 719.82 244.59 719.31 249.62 718.5 252.43 718.47 253.21 718.79 254.83 720.43 255.73 720.9 257.49 720.39 263.63 715.99 266.35 714.65 267.86 714.33 271.47 714.48 272.03 714.12 271.32 712.3 271.55 711.19 272.12 710.38 272.63 709.38 272.64 708.56 271.65 708.28 269.75 708.28 269.01 707.99 268.44 707.33 268.79 706.76 270.25 705.1 270.62 704.11 270.32 703.16 269.63 702.36 268.32 701.14 268.1 699.36 269.31 697.78 270.13 697.21"/><line class="cls-2" x1="270.13" y1="697.21" x2="260.9" y2="550.64"/><path class="cls-2" d="M382.58,375.84l2.8.37c0,1.05.09,2.08.12,3.13.2.18.39.36.59.52.42,1.5.84,3,1.27,4.51"/><path class="cls-2" d="M347.5,171.49q12.09,48.58,24.3,97.09c.05.6.11,1.19.16,1.78.05.28.11.56.16.84l.06.83,0,.29,0,.36.08.49c.1.26.19.53.29.8s.15.61.22.92v.63c0,.49-.09,1-.13,1.46,0,.12,0,.23,0,.35l.07.39.12.42c.1.21.2.41.31.61l.3.42.36.4,1.56,1.23c1.11,1.14,2.23,2.25,3.33,3.37l1.81.75.3.22.27.38.3.76.12.5,0,.45c0,.59-.06,1.18-.08,1.77,0,.21,0,.42.07.64l.09.32,1,1.25c1.06.82,2.09,1.64,3.15,2.45"/><path class="cls-2" d="M286.56,432.26c-.15-.32-.32-.63-.48-.95l-.3-.44-.16-.16-.12-.07-.23-.11-.15-.13-2.61-2.91-.31-.36.53-.51c2.63-2.32,5.25-4.66,7.88-7l.59-.62-.81-.81-2.5-3.05q-2.25-21.47-4.62-42.94"/><path class="cls-2" d="M283.27,372.21l-1.34-1.16c1.11-12.83,2.36-25.66,3.49-38.5l.08-.61"/><path class="cls-2" d="M285.5,331.94,285,332c-.32-.93-.65-1.87-1-2.8l.17-.88.11-2.06c0-.31,0-.62,0-.94-1.93-12.95-4-25.88-5.95-38.83l-.38-.39-.45-.31-.25-.11-.4-.43-.95-1.92-.22-.28-.29-.21-.32-.09-.67,0-.32,0-.28.09-.26.11-.22.16-.18.23-.13.29-.07.31,0,1-.06.32-.12.29a2.13,2.13,0,0,0-.16.25l-.4.41-.42.29-.14.08-.09,0-.11-.11-.39-.52-.33-.61-.2-.68-.21-1.21c0-.21,0-.43-.05-.65l0-.52c.39-2,.79-4,1.18-5.94,0-.22,0-.43,0-.65l-.12-1.19c-.05-.19-.09-.39-.13-.58s-.09-.29-.13-.44l-.16-.25L270,272l-.09-.34,0-.34.09-.93c0-.25,0-.5,0-.75s-.05-.28-.08-.43-.07-.24-.1-.36l-.14-.25-.15-.22L269,268l-.24-.44c-.11-.23-.22-.46-.32-.69-.27-.79-.53-1.59-.8-2.38l-.18-.85c-.08-.52-.15-1-.23-1.56,0-.16-.09-.32-.14-.48l-.17-.34-.15-.23-.65-.61-.23-.29-.28-.47-.07-.38,0-.37.34-.9.62-4.79c0-.26,0-.53,0-.8s-.05-.8-.07-1.21l0-.33.09-.3.12-.29.35-.49.38-.42.43-.36.37-.41.15-.44,0-.62c0-.42,0-.83-.07-1.25l-.18-1.09-.18-.56-1-2.44-.1-.45-.06-.42.05-.35.08-.33.51-1.63.14-.72,0-1c0-.28,0-.57,0-.85s0-.36-.07-.53-.07-.35-.11-.53-.07-.22-.1-.33c-.13-.26-.26-.53-.38-.79l-.55-.82-2.23-2.64-.78-1.14c-.07-.16-.14-.31-.2-.47-.22-.66-.44-1.33-.67-2l-.27-1.23,0-.33v-.36l.3-2.28c0-.22,0-.45,0-.68l-.15-1.27c0-.24,0-.47,0-.71.06-.41.11-.82.17-1.23,0-.18,0-.36,0-.54v-.82l-.06-.49c0-.13-.05-.26-.07-.38l-.1-.29-.12-.23-.18-.24-.89-.71-.24-.24-.24-.28-.27-.45-.13-.38-.08-.34-.06-.67c0-.12,0-.24,0-.35l.1-.74.1-.36.47-1.25L261,210c0-.17.05-.33.07-.5s0-.51,0-.77l-.06-.45-.1-.38-.35-.79c-.14-.42-.28-.85-.43-1.27l-.27-.63"/><path class="cls-2" d="M385.21,305.78l-1.4.66-.9-.06-1.48-.32-.52,0-.38.08-3.63,2.57-.4.41-.16.24-.45.87-.26.36-.46.5-.36.21-.46.09h-.49l-.71.08-.39.16-.33.17-.17.21-.19.23-.28.54-.12.29-.21.65-.18,1.13-.07.4-.35.58-.44.31-.75.4-.4.28-.27.26-.43.83c-.15.24-.31.47-.47.71l-.52.57-.31.23-.4.14q-24,3.81-48.12,7.38h-.07"/><path class="cls-2" d="M285.5,331.94l2.49-.42,2.41-.36,2.05-.35,2-.24,2.05-.31c1.27-.22,2.51-.45,3.77-.69q9.19-1.26,18.41-2.59"/><path class="cls-2" d="M380.44,374.37l-1.72-2-.91-.49-.43-.05-.52-.19-.78-.38-.6-.55c-.1-.13-.21-.25-.32-.38L375,370l-.07-.29-.18-1.93c0-.19-.1-.37-.16-.56l-.06-.25v-.51l0-.34c0-.14,0-.27-.05-.41l-.2-.62-.19-.17h-.35l-.77.2-.35,0-.19-.27-.14-.36q-.62-2.59-1.23-5.22c-.06-.25-.13-.49-.19-.74l-2.17.39c-5,1.05-10,2.12-15,3.16"/><path class="cls-2" d="M283.27,372.21c8.67-1.14,17.32-2.34,26-3.53l2.28-.18.33,1.45,1.77-.5v-1.32l5.74-.94,1,.12H321l.35-.09.69-.53c10.54-1.69,21.1-3.29,31.59-5.24l.15.6"/></g><g id="Layer_12" data-name="Layer 12"><circle class="cls-3" cx="338.52" cy="994.89" r="5"/><circle class="cls-3" cx="361.95" cy="989.89" r="10"/><path class="cls-3" d="M393.2,999.89a14.13,14.13,0,1,0-10-4.14A14.13,14.13,0,0,0,393.2,999.89Z"/><path class="cls-3" d="M455.7,999.89A20,20,0,1,0,441.56,994,19.95,19.95,0,0,0,455.7,999.89Z"/><path class="cls-3" d="M518.2,999.89a24.51,24.51,0,1,0-17.32-7.18A24.5,24.5,0,0,0,518.2,999.89Z"/></g><g id="Layer_02" data-name="Layer 02"><line class="cls-4" x1="424.45" y1="999.89" x2="424.45" y2="993.89"/><path class="cls-5" d="M332,993.66l.09-.09c2.4-2.36,7.56-5.2,11.87-7.37a87,87,0,0,1,15.62-6.1c7.84-2.43,20.08-5.76,31.15-8.38s21-4.51,31.22-6.37,20.76-3.69,31.23-5.37,20.85-3.24,31.23-4.73,20.75-2.92,31.14-4.27"/><line class="cls-4" x1="330.7" y1="999.89" x2="330.7" y2="993.89"/><line class="cls-4" x1="393.2" y1="999.89" x2="393.2" y2="993.89"/><line class="cls-4" x1="455.7" y1="999.89" x2="455.7" y2="993.89"/><line class="cls-4" x1="518.2" y1="999.89" x2="518.2" y2="993.89"/><line class="cls-4" x1="486.95" y1="999.89" x2="486.95" y2="993.89"/><line class="cls-4" x1="361.95" y1="999.89" x2="361.95" y2="993.89"/><line class="cls-6" x1="330.7" y1="999.89" x2="518.2" y2="999.89"/></g></svg>