<svg id="clock-face" xmlns="http://www.w3.org/2000/svg" viewBox="0 0 200.2 85.8">
  <defs>
    <style>
      .cls-1c {
        fill: #efefef;
      }

      .cls-2c {
        fill: #282828;
      }

      .cls-3c {
        fill: none;
        stroke: #282828;
        stroke-linecap: round;
        stroke-linejoin: round;
        stroke-width: 0.1px;
      }

      .cls-4c {
        fill: #fff;
      }
    </style>
  </defs>
  <path class="cls-1c" d="M143,42.9a42.88,42.88,0,1,0-3,15.79A42.89,42.89,0,0,0,143,42.9Z"/>
  <g id="numbers">
    <g>
      <path class="cls-2c" d="M133.82,58.29l-4.73-2.74-4.73-2.74c-.09-.05,0-.28.21-.68l-.13-.08c-.36.62-.71,1.24-1.07,1.85l-1.07,1.85c-.36.62-.72,1.23-1.07,1.85s-.72,1.23-1.07,1.85l.13.08c.23-.4.39-.58.48-.53l4.74,2.74q2.35,1.38,4.73,2.74c.09,0,0,.28-.22.68l.14.08c.35-.62.71-1.23,1.07-1.85s.71-1.23,1.07-1.85.71-1.23,1.07-1.85l1.07-1.85-.13-.08C134.07,58.17,133.91,58.34,133.82,58.29Zm-2.73,5c-.23.41-.39.58-.48.53l-4.73-2.74-4.73-2.74c-.09,0,0-.28.21-.68s.39-.58.48-.53l4.74,2.74q2.36,1.38,4.73,2.74C131.4,62.68,131.33,62.91,131.09,63.31Zm1.07-1.85c-.23.41-.39.58-.48.53L127,59.25l-4.73-2.74c-.09,0,0-.28.21-.68s.4-.58.48-.53L127.65,58q2.35,1.38,4.73,2.74C132.47,60.83,132.4,61.06,132.16,61.46Zm1.07-1.85c-.23.41-.39.58-.48.53L128,57.4l-4.73-2.74c-.09,0,0-.28.21-.68s.4-.58.49-.53q2.36,1.38,4.73,2.74l4.73,2.74C133.54,59,133.47,59.21,133.23,59.61Z"/>
      <path class="cls-2c" d="M113.93,21.09c-.41-.24-.58-.4-.53-.49l2.74-4.73,2.73-4.74c0-.09.28,0,.68.22l.08-.14-1.85-1.06-.08.13c.4.23.58.39.53.48q-1.38,2.37-2.74,4.74l-2.73,4.73c-.05.09-.28,0-.68-.21l-.08.13,1.85,1.07Z"/>
      <path class="cls-2c" d="M123.38,31.93l.14-.08c-.24-.4-.31-.63-.22-.68L128,28.43l4.73-2.73c.09-.05.25.12.48.53l.14-.08c-.36-.62-.71-1.24-1.07-1.85s-.71-1.24-1.07-1.85l-.13.07c.23.41.3.63.21.69l-4.73,2.73-4.74,2.73c-.09,0-.25-.12-.48-.52l-.14.07c.36.62.72,1.24,1.07,1.86S123,31.31,123.38,31.93Zm-1.15-2.61L127,26.58l4.73-2.73c.09-.05.25.12.49.53s.3.62.21.68l-4.73,2.73-4.74,2.73c-.09.06-.25-.12-.48-.52S122.14,29.37,122.23,29.32Z"/>
      <path class="cls-2c" d="M137.15,39.69c0,.47-.05.7-.16.7H126.06c-.1,0-.16-.23-.16-.7h-.15v6.42h.15c0-.47.06-.7.16-.7H137c.11,0,.16.23.16.7h.15V39.69Zm-.16,5H126.06c-.1,0-.16-.24-.16-.7s.06-.7.16-.7H137c.11,0,.16.23.16.7S137.1,44.67,137,44.67Zm0-2.14H126.06c-.1,0-.16-.23-.16-.7s.06-.7.16-.7H137c.11,0,.16.24.16.7S137.1,42.53,137,42.53Z"/>
      <path class="cls-2c" d="M121.26,73.29l-8-8.39q1.26,5.76,2.53,11.52c0,.1-.15.27-.52.48l.07.14,1.6-.92L116.9,76c-.43.25-.66.32-.68.22q-1-4.38-1.93-8.74l6,6.36c.08.08-.1.24-.52.48l.07.14L122,73.2l-.08-.13C121.56,73.29,121.33,73.36,121.26,73.29Z"/>
      <path class="cls-2c" d="M103.88,79.79q-1.35-5.61-2.71-11.24-1.77,5.63-3.56,11.24c0,.11-.11.16-.28.16s-.26,0-.26-.16V68.86c0-.1.23-.16.69-.16v-.15H95.63v.15c.46,0,.69.06.69.16V79.79c0,.11-.23.16-.69.16v.15h3.12V80c-.5,0-.73,0-.7-.16q1.35-4.26,2.71-8.52,1,4.26,2,8.52c0,.11-.21.16-.7.16v.15h2.46V80C104.13,80,103.9,79.9,103.88,79.79Z"/>
      <path class="cls-2c" d="M80.42,74.14c-.07.08-.18.08-.32,0s-.2-.17-.15-.26l2.73-4.74q1.38-2.35,2.74-4.73c0-.09.28,0,.68.21l.08-.13-1.85-1.07-1.85-1.07-.08.14c.4.23.58.39.52.48l-2.73,4.73-2.73,4.74c-.06.09-.28,0-.68-.22l-.08.14,1.85,1.07,1.47.85,1.23.71.08-.13c-.43-.25-.61-.41-.53-.49l6.61-6-2.49,8.41c0,.1-.26,0-.68-.22l-.08.14,2.14,1.23.08-.13c-.39-.22-.56-.38-.53-.49q1.64-5.53,3.28-11.09Zm-1.79-.86c-.41-.23-.58-.39-.53-.48l2.73-4.73,2.74-4.74c.05-.09.28,0,.68.21s.58.4.53.49L82,68.76,79.31,73.5C79.26,73.59,79,73.52,78.63,73.28Z"/>
      <path class="cls-2c" d="M71.1,66.47l8.39-8L68,61c-.1,0-.19,0-.27-.17s-.09-.25,0-.3l4.74-2.73,4.73-2.74c.09-.05.25.13.48.53l.14-.08c-.36-.61-.72-1.23-1.07-1.85l-1.07-1.85L74.58,50l-.13.08c.23.4.3.63.21.68l-4.73,2.73-4.74,2.74c-.09.05-.25-.13-.48-.53l-.14.08,1.07,1.85c.36.61.72,1.23,1.07,1.85s.57,1,.85,1.47.48.82.71,1.23l.14-.07c-.25-.43-.32-.66-.22-.68l8.74-1.93-6.36,6c-.08.07-.24-.1-.48-.53l-.14.08c.41.71.82,1.43,1.24,2.14l.13-.08C71.1,66.77,71,66.54,71.1,66.47Zm-5.32-8.92c-.24-.4-.31-.63-.22-.68l4.74-2.73L75,51.4c.09,0,.25.13.49.53s.3.63.21.68L71,55.34l-4.74,2.74C66.17,58.13,66,58,65.78,57.55Zm1.55,2.38c-.09,0-.25-.13-.48-.53s-.31-.63-.22-.68L71.37,56q2.35-1.38,4.73-2.74c.09,0,.25.13.48.53s.31.63.22.68l-4.74,2.73Q69.7,58.57,67.33,59.93Z"/>
      <path class="cls-2c" d="M74.14,45.58c.1,0,.16.23.16.69h.15V43.15H74.3c0,.5-.06.73-.16.7L70.22,42.6l3.92-.94c.1,0,.16.21.16.7h.15V39.89H74.3c0,.44-.06.68-.16.7l-5.56,1.34L63.2,40.22q-.15,0-.15-.69H62.9v1.83h.15c0-.49.05-.73.15-.69l4.59,1.45-4.59,1.1c-.1,0-.15-.21-.15-.7H62.9v3.75h.15q0-.69.15-.69H74.14Zm-11-1c0-.17,0-.26.09-.28l6.23-1.49,4.71,1.49c.06,0,.1.11.1.28s0,.26-.1.26H63.2C63.14,44.83,63.11,44.75,63.11,44.57Z"/>
      <path class="cls-2c" d="M67.13,26.21,73.27,28l3.33,3.65c.07.08,0,.31-.21.68l.13.08.92-1.59-.13-.08c-.25.43-.41.61-.49.53l-2.77-3,3.87,1.15c.1,0,0,.25-.22.68l.14.07L79.07,28,78.93,28c-.22.38-.38.56-.48.53L73,26.85l-3.81-4.16c-.07-.08,0-.31.22-.68l-.13-.08c-.31.53-.62,1.06-.92,1.59l.13.08c.25-.43.41-.61.48-.53q1.62,1.79,3.25,3.55l-4.52-1.33q-.15,0,.21-.69l-.13-.07c-.41.71-.82,1.42-1.24,2.13l.14.08C66.87,26.36,67,26.18,67.13,26.21Z"/>
      <path class="cls-2c" d="M88.79,19.45l-2.73-4.73L83.33,10c0-.09.12-.25.52-.48l-.07-.14-1.86,1.07-.85.5.08.13c.43-.25.66-.32.68-.21.34,1.56.69,3.13,1,4.69l-3.24-3.42c-.08-.07.1-.24.52-.48l-.07-.13-2.14,1.23.08.13c.38-.22.61-.29.68-.21q2.2,2.31,4.4,4.64c.36,1.61.71,3.22,1.07,4.83,0,.1-.15.27-.53.48l.08.14,1.59-.92-.08-.14c-.43.25-.66.32-.68.22-.29-1.34-.59-2.68-.88-4l2.77,2.93c.08.07-.1.23-.52.48l.07.13,1.94-1.11,1.63-.95-.07-.13C89.07,19.47,88.85,19.54,88.79,19.45Zm-1,.7c-.25.15-.41.19-.47.13-1.31-1.38-2.62-2.77-3.94-4.15q-.6-2.74-1.21-5.51c0-.06.05-.13.2-.22s.24-.1.27-.05l2.74,4.74,2.73,4.73C88.19,19.9,88.08,20,87.83,20.15Z"/>
      <path class="cls-2c" d="M97.49,17.1c-.49,0-.73-.06-.69-.16.41-1.31.83-2.61,1.24-3.92.31,1.31.63,2.61.94,3.92,0,.1-.21.16-.7.16v.15h6.26V17.1c-.46,0-.69-.06-.69-.16V6q0-.15.69-.15V5.7H99.28v.15c.5,0,.73.05.7.15q-.74,2.3-1.45,4.59c-.37-1.53-.74-3.06-1.1-4.59q0-.15.69-.15V5.7H95.66v.15q.66,0,.69.15l1.5,6.23-1.5,4.71c0,.1-.26.16-.69.16v.15h1.83Zm4.22-5.63V6c0-.1.23-.15.7-.15s.69.05.69.15V16.94c0,.1-.23.16-.69.16s-.7-.06-.7-.16ZM100.42,6c0-.06.12-.09.29-.09s.26,0,.26.09V16.94c0,.08-.15.13-.45.13s-.45-.05-.47-.13c-.44-1.85-.89-3.71-1.33-5.56C99.29,9.59,99.85,7.8,100.42,6Z"/>
    </g>
  </g>
  <path class="cls-3c" d="M138.91,42.9a38.76,38.76,0,1,0-2.72,14.29A38.85,38.85,0,0,0,138.91,42.9Z"/>
  <path class="cls-3c" d="M124.77,42.9a24.68,24.68,0,1,0-7.23,17.44A24.6,24.6,0,0,0,124.77,42.9Z"/>
  <g id="dots">
    <path class="cls-3c" d="M96.36,2.21a.53.53,0,1,0-1.06.11.53.53,0,1,0,1.06-.11Z"/>
    <path class="cls-3c" d="M92.13,2.82a.55.55,0,0,0-.64-.41.54.54,0,1,0,.64.41Z"/>
    <path class="cls-3c" d="M88,3.88a.53.53,0,1,0-1,.33.53.53,0,1,0,1-.33Z"/>
    <path class="cls-3c" d="M84,5.36a.54.54,0,0,0-.71-.27.53.53,0,0,0-.27.7.54.54,0,0,0,.71.27A.53.53,0,0,0,84,5.36Z"/>
    <path class="cls-3c" d="M80.64,7a1.12,1.12,0,0,0-1.53-.41,1.12,1.12,0,0,0,1.12,1.93A1.12,1.12,0,0,0,80.64,7Z"/>
    <path class="cls-3c" d="M76.52,9.53a.54.54,0,1,0-.12.75A.54.54,0,0,0,76.52,9.53Z"/>
    <path class="cls-3c" d="M73.16,12.18a.54.54,0,0,0-.76,0,.54.54,0,0,0,.72.8A.54.54,0,0,0,73.16,12.18Z"/>
    <path class="cls-3c" d="M70.1,15.16a.55.55,0,0,0-.76,0,.54.54,0,1,0,.8.72A.55.55,0,0,0,70.1,15.16Z"/>
    <path class="cls-3c" d="M67.36,18.45a.54.54,0,1,0,.12.75A.54.54,0,0,0,67.36,18.45Z"/>
    <path class="cls-3c" d="M65.27,21.51a1.11,1.11,0,0,0-1.52.4A1.12,1.12,0,1,0,65.68,23,1.1,1.1,0,0,0,65.27,21.51Z"/>
    <path class="cls-3c" d="M59.24,41.78a1.12,1.12,0,1,0,1.12,1.12A1.12,1.12,0,0,0,59.24,41.78Z"/>
    <path class="cls-3c" d="M63,25.79a.53.53,0,0,0-.7.27.54.54,0,0,0,.27.71.53.53,0,0,0,.7-.27A.54.54,0,0,0,63,25.79Z"/>
    <path class="cls-3c" d="M61.41,29.77a.53.53,0,1,0-.33,1,.53.53,0,0,0,.33-1Z"/>
    <path class="cls-3c" d="M60.25,33.88a.54.54,0,0,0-.23,1,.54.54,0,0,0,.23-1Z"/>
    <path class="cls-3c" d="M59.52,38.1a.53.53,0,1,0-.11,1.06.53.53,0,1,0,.11-1.06Z"/>
    <path class="cls-3c" d="M59.41,46.64a.53.53,0,1,0,.11,1.06.53.53,0,1,0-.11-1.06Z"/>
    <path class="cls-3c" d="M60,50.87a.54.54,0,1,0,.23,1.05A.54.54,0,0,0,60,50.87Z"/>
    <path class="cls-3c" d="M61.08,55a.53.53,0,1,0,.33,1,.53.53,0,0,0-.33-1Z"/>
    <path class="cls-3c" d="M62.56,59a.54.54,0,0,0-.27.71A.53.53,0,0,0,63,60a.54.54,0,0,0,.27-.71A.53.53,0,0,0,62.56,59Z"/>
    <path class="cls-3c" d="M64.16,62.36a1.12,1.12,0,0,0-.41,1.53,1.12,1.12,0,1,0,.41-1.53Z"/>
    <path class="cls-3c" d="M66.73,66.48a.54.54,0,1,0,.75.12A.54.54,0,0,0,66.73,66.48Z"/>
    <path class="cls-3c" d="M69.38,69.84a.54.54,0,0,0,0,.76.54.54,0,0,0,.8-.72A.54.54,0,0,0,69.38,69.84Z"/>
    <path class="cls-3c" d="M72.36,72.9a.55.55,0,0,0,0,.76.54.54,0,0,0,.72-.8A.55.55,0,0,0,72.36,72.9Z"/>
    <path class="cls-3c" d="M75.65,75.64a.54.54,0,1,0,.75-.12A.54.54,0,0,0,75.65,75.64Z"/>
    <path class="cls-3c" d="M78.71,77.73a1.11,1.11,0,0,0,.4,1.52,1.12,1.12,0,1,0,1.12-1.93A1.1,1.1,0,0,0,78.71,77.73Z"/>
    <path class="cls-3c" d="M99,83.76a1.12,1.12,0,1,0,1.12-1.12A1.12,1.12,0,0,0,99,83.76Z"/>
    <path class="cls-3c" d="M83,80a.53.53,0,0,0,.27.7.54.54,0,0,0,.71-.27.53.53,0,0,0-.27-.7A.54.54,0,0,0,83,80Z"/>
    <path class="cls-3c" d="M87,81.59a.53.53,0,1,0,1,.33.53.53,0,0,0-1-.33Z"/>
    <path class="cls-3c" d="M91.08,82.75a.54.54,0,0,0,.41.64.55.55,0,0,0,.64-.41.54.54,0,1,0-1-.23Z"/>
    <path class="cls-3c" d="M95.3,83.48a.53.53,0,1,0,1.06.11.53.53,0,1,0-1.06-.11Z"/>
    <path class="cls-3c" d="M103.84,83.59a.53.53,0,1,0,1.06-.11.53.53,0,1,0-1.06.11Z"/>
    <path class="cls-3c" d="M108.07,83a.54.54,0,1,0,1.05-.23.54.54,0,0,0-1.05.23Z"/>
    <path class="cls-3c" d="M112.22,81.92a.53.53,0,1,0,1-.33.53.53,0,0,0-1,.33Z"/>
    <path class="cls-3c" d="M116.23,80.44a.54.54,0,0,0,.71.27.53.53,0,0,0,.27-.7.54.54,0,0,0-.71-.27A.53.53,0,0,0,116.23,80.44Z"/>
    <path class="cls-3c" d="M119.56,78.84a1.12,1.12,0,0,0,1.53.41,1.12,1.12,0,1,0-1.53-.41Z"/>
    <path class="cls-3c" d="M123.68,76.27a.54.54,0,1,0,.12-.75A.54.54,0,0,0,123.68,76.27Z"/>
    <path class="cls-3c" d="M127,73.62a.54.54,0,0,0,.76,0,.54.54,0,0,0-.72-.8A.54.54,0,0,0,127,73.62Z"/>
    <path class="cls-3c" d="M130.1,70.64a.55.55,0,0,0,.76,0,.54.54,0,0,0-.8-.72A.55.55,0,0,0,130.1,70.64Z"/>
    <path class="cls-3c" d="M132.84,67.35a.54.54,0,1,0-.12-.75A.54.54,0,0,0,132.84,67.35Z"/>
    <path class="cls-3c" d="M134.93,64.29a1.11,1.11,0,0,0,1.52-.4,1.12,1.12,0,1,0-1.93-1.12A1.1,1.1,0,0,0,134.93,64.29Z"/>
    <path class="cls-3c" d="M141,44a1.12,1.12,0,1,0-1.12-1.11A1.11,1.11,0,0,0,141,44Z"/>
    <path class="cls-3c" d="M137.21,60a.53.53,0,0,0,.7-.27.54.54,0,0,0-.27-.71.53.53,0,0,0-.7.27A.54.54,0,0,0,137.21,60Z"/>
    <path class="cls-3c" d="M138.79,56a.53.53,0,1,0,.33-1,.53.53,0,0,0-.33,1Z"/>
    <path class="cls-3c" d="M140,51.92a.54.54,0,0,0,.23-1.05.54.54,0,1,0-.23,1.05Z"/>
    <path class="cls-3c" d="M140.68,47.7a.53.53,0,1,0,.11-1.06.53.53,0,1,0-.11,1.06Z"/>
    <path class="cls-3c" d="M140.79,39.16a.53.53,0,1,0-.11-1.06.53.53,0,1,0,.11,1.06Z"/>
    <path class="cls-3c" d="M140.18,34.93a.54.54,0,0,0-.23-1,.54.54,0,1,0,.23,1Z"/>
    <path class="cls-3c" d="M139.12,30.78a.53.53,0,1,0-.33-1,.53.53,0,0,0,.33,1Z"/>
    <path class="cls-3c" d="M137.64,26.77a.54.54,0,0,0,.27-.71.53.53,0,0,0-.7-.27.54.54,0,0,0-.27.71A.53.53,0,0,0,137.64,26.77Z"/>
    <path class="cls-3c" d="M136,23.44a1.12,1.12,0,0,0,.41-1.53A1.12,1.12,0,0,0,134.52,23,1.12,1.12,0,0,0,136,23.44Z"/>
    <path class="cls-3c" d="M133.47,19.32a.54.54,0,1,0-.75-.12A.54.54,0,0,0,133.47,19.32Z"/>
    <path class="cls-3c" d="M130.82,16a.54.54,0,0,0,0-.76.54.54,0,1,0-.8.72A.54.54,0,0,0,130.82,16Z"/>
    <path class="cls-3c" d="M127.84,12.9a.55.55,0,0,0,0-.76.54.54,0,0,0-.72.8A.55.55,0,0,0,127.84,12.9Z"/>
    <path class="cls-3c" d="M124.55,10.16a.54.54,0,1,0-.75.12A.54.54,0,0,0,124.55,10.16Z"/>
    <path class="cls-3c" d="M121.49,8.07a1.11,1.11,0,0,0-.4-1.52A1.12,1.12,0,1,0,120,8.48,1.1,1.1,0,0,0,121.49,8.07Z"/>
    <path class="cls-3c" d="M101.21,2a1.12,1.12,0,1,0-1.11,1.12A1.11,1.11,0,0,0,101.21,2Z"/>
    <path class="cls-3c" d="M117.21,5.79a.53.53,0,0,0-.27-.7.54.54,0,0,0-.71.27.53.53,0,0,0,.27.7A.54.54,0,0,0,117.21,5.79Z"/>
    <path class="cls-3c" d="M113.23,4.21a.53.53,0,1,0-1-.33.53.53,0,0,0,1,.33Z"/>
    <path class="cls-3c" d="M109.12,3.05a.54.54,0,0,0-1.05-.23.54.54,0,1,0,1.05.23Z"/>
    <path class="cls-3c" d="M104.9,2.32a.53.53,0,1,0-1.06-.11.53.53,0,1,0,1.06.11Z"/>
  </g>
  <g mask="url(#day-night-mask)">
    <g id="day-night">
      <path id="day-night-background" class="cls-2c" d="M100.1,49.14a16.9,16.9,0,1,0,11.94,5A16.82,16.82,0,0,0,100.1,49.14Z"/>
      <path class="cls-1c" d="M105,69.77A7.15,7.15,0,1,1,94.93,70,7.14,7.14,0,0,1,105,69.77Z"/>
      <path class="cls-1c" d="M101.73,64.09a8.89,8.89,0,0,1,0-13.92,7.15,7.15,0,1,0,0,13.92Z"/>
    </g>
  </g>
  <mask id="day-night-mask">
    <rect width="200.2" height="85.8"/>
    <path class="cls-4c" d="M105.29,62.55a7.5,7.5,0,1,0-10.61-.23A7.49,7.49,0,0,0,105.29,62.55Z"/>
  </mask>
  <path id="hour-hand" class="cls-2c" d="M99.61,42.9l.18-13.45c-1.73-.21-.82-2.25-.36-3.75s.5-2.61.5-7.1h.34c0,4.49,0,5.5.5,7.1s1.37,3.54-.36,3.75l.18,13.45Z"/>
  <path id="minute-hand" class="cls-2c" d="M99.61,42.9l.18-27.6c-1.73-.21-.82-2.24-.36-3.75s.5-2.61.5-7.09h.34c0,4.48,0,5.5.5,7.09s1.37,3.54-.36,3.75l.18,27.6Z"/>
  <path class="cls-2c" d="M101.93,44.64a2.53,2.53,0,1,0-3.57.09A2.53,2.53,0,0,0,101.93,44.64Z"/>
</svg>
