<svg xmlns="http://www.w3.org/2000/svg" viewBox="0 0 335.91 335.91">
  <defs>
    <style>
      .cls-1 {
        fill: #282828;
      }

      .cls-2 {
        fill: #efefef;
      }

      .cls-3, .cls-4, .cls-5 {
        fill: none;
        stroke-linecap: round;
        stroke-linejoin: round;
      }

      .cls-3 {
        stroke: #282828;
      }

      .cls-3, .cls-4 {
        stroke-width: 2px;
      }

      .cls-4 {
        stroke: #f4a657;
      }

      .cls-5 {
        stroke: #efefef;
        stroke-width: 4px;
      }
    </style>
  </defs>
  <g id="icon-backs-06">
    <circle class="cls-1" cx="166.89" cy="168.2" r="165.38"/>
  </g>
  <g id="unclicked-06">
    <path class="cls-2" d="M15.74,102.81a41,41,0,0,0,20.45,13,42.51,42.51,0,0,0,18.14,1.24c1-.16,2.05-.35,3.07-.57s.81.07,1.25.79l1,1.69,16.63,27.07,8.31,13.54c1.39,2.26,2.78,4.51,4.16,6.77l.52.84.26.43c0,.07,0,.21.13.21h0c.1,0,.06.1.09.15l.2.31c.25.42.51.84.77,1.26L97,179.65l24.72,40.23L134.05,240l1.55,2.51.77,1.26.39.63c.07.12-.1.12-.15.17l-.16.18a34.11,34.11,0,0,0-2.42,2.83,35.41,35.41,0,0,0-3.83,6.21,36.15,36.15,0,1,0,53.69-13.51,34.36,34.36,0,0,0-17.8-6.7,36.2,36.2,0,0,0-9.47.36c-.78.14-1.56.3-2.33.48-.4.1-.83.56-1.16,0s-.78-1.38-1.16-2.07l-4.67-8.25q-33.42-59.24-66.86-118.46l-1-1.82c-.09-.15.11-.15.17-.22l.19-.21.38-.42q.74-.85,1.44-1.74a44.66,44.66,0,0,0,2.57-3.67,42.91,42.91,0,0,0,3.89-8,41.19,41.19,0,0,0,2.46-17.49A42.66,42.66,0,0,0,69.79,38.46c-.77-.46-1.56-.9-2.37-1.31l-.3-.16c-.35-.18.26-.3.42-.42L69,35.5c.94-.7,1.9-1.39,2.86-2.07A165.28,165.28,0,0,1,221.85,12q3.19,1.11,6.35,2.35c1.06.41,2.11.84,3.16,1.28.3.12.57.22.69.58s.27.87.4,1.3c.27.85.53,1.71.79,2.58A194.22,194.22,0,0,1,238.19,41a193.43,193.43,0,0,1-14.27,113.92c-1,2.23-2.07,4.45-3.18,6.65-.54,1.1-1.11,2.19-1.68,3.28l-.87,1.64c-.14.27-.29.54-.44.81s-.56.6-.14.6h114.6c.16,0,.8-.23.8.1v.7c0,.48,0,.94,0,1.42,0,.95,0,1.89-.05,2.84q-.17,5.77-.74,11.53a162.9,162.9,0,0,1-11.9,47.32,165.38,165.38,0,1,1-304.57-129Z"/>
    <g id="unclicked-stroke-06">
      <path class="cls-3" d="M67,37A42.54,42.54,0,0,1,79.41,103.8l36.16,64.07q18.85,33.42,37.72,66.82"/>
      <path class="cls-3" d="M15.74,102.81a42.89,42.89,0,0,0,42.33,13.56l31.63,51.5h0l47,76.54"/>
      <path class="cls-3" d="M231.93,15.84a193.29,193.29,0,0,1-14.51,152"/>
      <path class="cls-3" d="M195.15,5.13a162.82,162.82,0,0,1-13.28,162.74"/>
      <line class="cls-3" x1="89.73" y1="167.87" x2="2.26" y2="167.87"/>
      <polyline class="cls-3" points="333.01 167.87 217.25 167.87 180.79 167.87 115.57 167.87"/>
      <path class="cls-3" d="M136.77,244.44a35.12,35.12,0,1,0,1.21-1.21c-.41.4-.81.77-1.21,1.18Z"/>
    </g>
  </g>
  <g id="clicked-06" class='hidden'>
    <path class="cls-2" d="M217.42,167.87H332.63c.13,0,.38-.21.38,0v.66a165.37,165.37,0,1,1-320.76-57q1.54-4.25,3.31-8.39c.06-.14,0-.58.22-.37l.21.24.42.47.87.91c.58.6,1.17,1.18,1.78,1.74A43.38,43.38,0,0,0,27,112a41.55,41.55,0,0,0,18.26,5.48,40.93,40.93,0,0,0,19.09-3.12l.57-.25c.31-.13.4.12.55.3l1.08,1.21c.71.81,1.43,1.61,2.15,2.42L73,122.86l8.6,9.69,34.63,39,43.42,49,2.72,3.06,1.35,1.53c.18.2,1.28,1.09,1,1.49a35.94,35.94,0,0,0-5.87,16.18,36.15,36.15,0,1,0,72.08,3.89,35.9,35.9,0,0,0-23.87-34,34.65,34.65,0,0,0-16.36-1.91,35.69,35.69,0,0,0-8,1.87c-.65.23-1.3.48-1.93.75l-1,.42c-.6.28-.71-.29-1-.62l-4.07-4.95q-40.8-49.62-81.62-99.22l-6.14-7.47L85.4,99.73c-.25-.32-.51-.63-.77-.94-.08-.11-.81-.67-.67-.88.34-.55.68-1.1,1-1.66a43.22,43.22,0,0,0,3.19-7A41.48,41.48,0,0,0,90.6,74.42,42.71,42.71,0,0,0,79.7,46.6a41.87,41.87,0,0,0-12-9.3l-.43-.22L67.07,37c-.13-.07.09-.12.15-.16l.28-.21c.74-.57,1.48-1.12,2.23-1.67,1.49-1.09,3-2.17,4.52-3.21q4.56-3.12,9.32-5.93A165.32,165.32,0,0,1,217.92,10.66q4.53,1.44,9,3.15,2.25.86,4.45,1.78l.56.23c.2.09.11.27.16.41s.1.31.14.46c.2.6.39,1.21.57,1.82.37,1.21.73,2.43,1.08,3.65a193.39,193.39,0,0,1-16.43,145.71Z"/>
    <g id="clicked-stroke-06">
      <polyline class="cls-4" points="333.01 167.87 216.16 167.87 178.35 167.87 141.47 167.87"/>
      <polyline class="cls-4" points="2.26 167.87 91.84 167.87 112.89 167.87"/>
      <path class="cls-4" d="M195.15,5.13a162.82,162.82,0,0,1-13.28,162.74"/>
      <path class="cls-4" d="M231.93,15.84a193.29,193.29,0,0,1-14.51,152"/>
      <path class="cls-4" d="M15.74,102.81A42.81,42.81,0,0,0,65.1,114l47.79,53.87q26,29.28,51.94,58.57"/>
      <path class="cls-4" d="M179.42,214l-37.95-46.14L83.93,97.94a42.6,42.6,0,0,0-17-61"/>
      <path class="cls-4" d="M164.83,226.44a37.13,37.13,0,1,0,1-1.38Z"/>
    </g>
  </g>
  <g id="outlines">
    <circle class="cls-5" cx="167.64" cy="168.2" r="165.38"/>
  </g>
</svg>
