<svg xmlns="http://www.w3.org/2000/svg" viewBox="0 0 72 72">
  <defs>
    <style>
      .cls-1 {
        fill: #282828;
      }

      .cls-2, .cls-4 {
        fill: #efefef;
      }

      .cls-3 {
        fill: none;
        stroke: #282828;
        stroke-linecap: round;
        stroke-linejoin: round;
      }

      .cls-4 {
        font-size: 12px;
        font-family: Inconsolata-Bold, Inconsolata;
        font-weight: 700;
      }
    </style>
  </defs>
  <g id="icon-1">
    <rect class="cls-1" width="72" height="72"/>
    <path class="cls-2" d="M59.69,23.06A2.25,2.25,0,0,1,61,24.8V47.2a2.25,2.25,0,0,1-1.3,1.74L56.12,51H11.76V21H56.12Z"/>
    <path class="cls-3" d="M32.3,25.68a9.37,9.37,0,0,0-2,.54,9.5,9.5,0,0,0-3,1.83,12,12,0,0,0-2.47,3.35,11.2,11.2,0,0,0-1.09,3.47,9.66,9.66,0,0,0,.11,3.42A10.31,10.31,0,0,0,25.4,42a12.65,12.65,0,0,0,3.33,3.24,8.85,8.85,0,0,0,3.82,1.39,12.09,12.09,0,0,0,4.24-.19,10.44,10.44,0,0,0,3.62-1.67A9.86,9.86,0,0,0,43.18,42a10.62,10.62,0,0,0,1.51-4.11,12.14,12.14,0,0,0-.21-4.36A9,9,0,0,0,42.87,30a11.09,11.09,0,0,0-3.08-2.75A13,13,0,0,0,36,25.72a8.68,8.68,0,0,0-2.25-.18"/>
    <path class="cls-3" d="M31.93,30.27a4.6,4.6,0,0,1-.66.07,8.5,8.5,0,0,0-1.27.09,6.3,6.3,0,0,0-1.37.44c-.33.16-.46.27-.48.34s.08.06.36.1a5.41,5.41,0,0,1,1.17.28,1.91,1.91,0,0,1,.93.65.79.79,0,0,1,.07.77,1.55,1.55,0,0,1-.6.72,8.52,8.52,0,0,0-1.14.86,3.59,3.59,0,0,0-.75,1.13c-.11.26,0,.29.22.14a13.85,13.85,0,0,1,1.2-.72,3.71,3.71,0,0,1,1.64-.33,2.73,2.73,0,0,1,1.53.52,3.2,3.2,0,0,1,.92,1.38c.23.57.4,1.22.54,1.57s.22.4.38.17a4,4,0,0,0,.47-1.32,17.26,17.26,0,0,0,.16-1.82,3.92,3.92,0,0,1,.25-1.24,1.19,1.19,0,0,1,.66-.6,6.25,6.25,0,0,1,1.62-.53c.68-.11,1.47-.12,1.9-.17s.51-.16.34-.37A2.85,2.85,0,0,0,39,31.67a4.58,4.58,0,0,0-1.67-.28c-.57,0-1.12.08-1.48.06a.6.6,0,0,1-.61-.37,1.32,1.32,0,0,1,0-.85,2.44,2.44,0,0,1,.64-.84c.29-.26.65-.52.82-.68s.17-.22-.1-.23a8.17,8.17,0,0,0-1.36.12,6.31,6.31,0,0,0-1.53.45,2.52,2.52,0,0,0-.29.16"/>
    <line class="cls-3" x1="56.12" y1="20.97" x2="56.12" y2="51.03"/>
    <path class="cls-3" d="M33.91,31.36a7.12,7.12,0,0,1-.51-2.92c0-.7.12-1.4.2-2s.15-1.05.17-1.33,0-.38-.16-.47a1.22,1.22,0,0,0-.56-.2c-.19,0-.33.06-.47.37a11.31,11.31,0,0,0-.47,1.64,10.67,10.67,0,0,0-.35,2.67,5.15,5.15,0,0,0,1.09,3"/>
    <text class="cls-4" transform="translate(2.88 11.09)">B1</text>
  </g>
</svg>
