<svg xmlns="http://www.w3.org/2000/svg" viewBox="0 0 335.91 335.91">
  <defs>
    <style>
      .cls-1 {
        fill: #282828;
      }

      .cls-2 {
        fill: #efefef;
      }

      .cls-3, .cls-4, .cls-5 {
        fill: none;
        stroke-linecap: round;
        stroke-linejoin: round;
      }

      .cls-3 {
        stroke: #282828;
      }

      .cls-3, .cls-4 {
        stroke-width: 2px;
      }

      .cls-4 {
        stroke: #f4a657;
      }

      .cls-5 {
        stroke: #efefef;
        stroke-width: 4px;
      }
    </style>
  </defs>
  <g id="icon-backs-02">
    <circle class="cls-1" cx="167.12" cy="168.02" r="165.38"/>
  </g>
  <g id="unclicked-02">
    <path class="cls-2" d="M311.13,85.41a165.39,165.39,0,0,1-28,201.24q-3,3-6.26,5.77c-1.05.92-1.85,2-3.38,2.4l-2.9.68c-2.05.46-4.11.9-6.18,1.27q-1.5.27-3,.48l-1.41.17c-.32,0-1.19.35-.88-.15.7-1.13,1.41-2.24,2.13-3.35a42.2,42.2,0,0,1,3-4.19c1.16-1.39,2.75-2.34,3.49-4.18a6.5,6.5,0,0,0,0-5.17c-1.28-3.36-4.84-5.55-8-6.45a9.49,9.49,0,0,0-3.56-.24,8.75,8.75,0,0,0-2,.4,4.59,4.59,0,0,0-.9.42L247.76,278a115.68,115.68,0,0,1-11,6.59,11.71,11.71,0,0,1-4.49,1.24c-2.53.19-5.05.07-7.58.07-4.15,0-8.29,0-12.44-.32-1-.08-1.94-.18-2.9-.32-.15,0-.53,0-.35-.2s.28-.26.41-.4l.77-.76c.87-.85,1.73-1.69,2.61-2.52a29.07,29.07,0,0,1,3.57-3c.79-.53,1.64-1,2.42-1.51a5.88,5.88,0,0,0,2.54-4.38c.58-3.86-2.39-7.59-5.28-9.48a10.46,10.46,0,0,0-2.2-1.15,10.32,10.32,0,0,0-3.77-.61c-1.85.05-3.35.9-5,1.47-3.1,1.08-6.21,2.16-9.33,3.19a31.61,31.61,0,0,1-7.46,1.93,16,16,0,0,1-4.92-.61c-3.28-.75-6.57-1.52-9.84-2.33-2.07-.52-4.14-1.06-6.19-1.69-1-.29-1.91-.6-2.86-1-.44-.16-.87-.32-1.31-.5-.23-.09.13-.22.25-.29l.48-.29c3-1.81,5.8-3.71,9.19-4.78a7.13,7.13,0,0,0,4.21-2.76c2.36-3.45,1-7.67-1.18-10.63a13,13,0,0,0-2.32-2.42,8.4,8.4,0,0,0-6.73-1.88c-5.07.53-10.14,1.12-15.24,1.46a20.65,20.65,0,0,1-5.15-.1,15.33,15.33,0,0,1-3.77-1.38c-2.24-1.08-4.44-2.21-6.66-3.31-3.13-1.57-6.24-3.15-9.25-5q-1.07-.63-2.1-1.32c-.32-.21-.64-.42-1-.65s.36-.28.59-.36l3.16-1A32.55,32.55,0,0,1,135,225.5c7.65-.56,8.49-8.29,5-14a10.79,10.79,0,0,0-1-1.43,9.47,9.47,0,0,0-2-1.73,9.75,9.75,0,0,0-4.59-1.5c-4.93-.64-9.87-1.21-14.78-2a19.7,19.7,0,0,1-4.86-1.28,16,16,0,0,1-3.37-2.26c-2-1.59-3.88-3.21-5.81-4.83-2.69-2.24-5.36-4.5-7.87-7-.58-.58-1.16-1.16-1.72-1.76l-.39-.43c-.11-.12-.65-.36-.31-.39l.94-.08c1.09-.1,2.17-.19,3.26-.26a31.54,31.54,0,0,1,7.33.12c3.14.5,5.79-.39,7.48-3.24s1.42-6.87.37-9.77a9.18,9.18,0,0,0-.76-1.62,11,11,0,0,0-2.17-2.55,5.53,5.53,0,0,0-1.41-.92c-3.16-1.37-6.43-2.41-9.64-3.65a73.78,73.78,0,0,1-8.77-3.66,11.42,11.42,0,0,1-3.16-2.45c-1.33-1.47-2.44-3.11-3.63-4.68-2.09-2.78-4.21-5.54-6.2-8.4-1-1.48-2-3-3-4.55l-.62-1.08-.28-.52c-.13-.25.28,0,.41,0l1.87.28c1.81.28,3.61.55,5.4.95s3.48,1.3,5.29,1.76c3.22.8,6.41-1.36,7.76-4.13a12.31,12.31,0,0,0,1.06-8.09,9.46,9.46,0,0,0-1.79-4,5.33,5.33,0,0,0-1.15-1.22c-2.76-2.06-5.7-3.83-8.54-5.76a73.67,73.67,0,0,1-7.71-5.58c-2.69-2.39-3.63-5.46-5-8.5S67.88,99,66.6,95.73c-.67-1.69-1.3-3.38-1.85-5.12-.12-.39-.24-.79-.35-1.19-.06-.19-.11-.38-.16-.57s.26,0,.39.09l1.75.7a37.38,37.38,0,0,1,8.06,3.94,7.51,7.51,0,0,0,4.25,1.75c3.86.13,6.45-2.63,7.8-5.84a10.86,10.86,0,0,0,.79-7.21,7.84,7.84,0,0,0-2-3.77c-3.71-4-7.5-7.93-11-12.11-2.94-3.47-3.25-4.63-4.06-9-.58-3.16-1.19-6.32-1.72-9.49-.33-1.92-.63-3.85-.86-5.78q-.16-1.38-.27-2.76c0-.43-.06-.86-.08-1.3l0-.62c0-.29.27.13.39.21,2.79,1.94,5.66,3.7,8,6.26,1.08,1.18,2,2.4,3.62,3a6.71,6.71,0,0,0,4.83,0c3.23-1.15,5.54-4.48,6.59-7.48a8.33,8.33,0,0,0,.46-2.26,9.38,9.38,0,0,0-.35-3.61A9.84,9.84,0,0,0,90,31.89l-2.89-5.08-1.17-2.09c-.29-.52.32-.53.62-.7l1.69-.95c1.13-.61,2.26-1.22,3.4-1.81q6.8-3.54,13.88-6.41a165.3,165.3,0,0,1,145.8,10.41,163.31,163.31,0,0,1,31.2,23.59l.88.86.44.43c.1.09.45.31.19.34-.75.08-1.49.2-2.23.34a25.71,25.71,0,0,0-4.44,1.32,25.28,25.28,0,0,0-8,5,25.91,25.91,0,1,0,41.79,28.23Z"/>
    <g id="unclicked-stroke-02">
      <path class="cls-3" d="M274.26,294.63c-4.6,1.09-10.79,2.54-15.32,2.87a76.24,76.24,0,0,1,5.24-7.78c1.26-1.46,2.27-2.14,3-3.15a6.81,6.81,0,0,0,1-3.77,7.19,7.19,0,0,0-1.25-3.92,12.29,12.29,0,0,0-3.24-3.15A13.7,13.7,0,0,0,259.9,274a8.59,8.59,0,0,0-1.11-.27,9.85,9.85,0,0,0-5.46.73c-12.82,8.16-15.66,9.89-17.86,10.71s-3.78.73-8.53.73-12.71.13-18-.71a78.39,78.39,0,0,1,6.89-6.38c1.56-1.13,2.7-1.56,3.6-2.39a6.73,6.73,0,0,0,1.86-3.43,7.17,7.17,0,0,0-.31-4.1,12.4,12.4,0,0,0-2.43-3.8,13.22,13.22,0,0,0-3.28-2.56,8.82,8.82,0,0,0-1-.51,9.82,9.82,0,0,0-5.48-.55c-14.35,5-17.51,6-19.84,6.33s-3.85-.16-8.47-1.25-12.39-2.78-17.38-4.82a76.64,76.64,0,0,1,8.18-4.63c1.77-.75,3-.9,4-1.5a6.67,6.67,0,0,0,2.59-2.92,7.17,7.17,0,0,0,.64-4.05,12.42,12.42,0,0,0-1.49-4.27,13.66,13.66,0,0,0-2.61-3.24,9.3,9.3,0,0,0-.87-.73,9.89,9.89,0,0,0-5.21-1.79c-15.12,1.58-18.43,1.86-20.77,1.61s-3.71-1-7.95-3.16-11.43-5.55-15.8-8.68a76.29,76.29,0,0,1,9-2.63c1.9-.32,3.11-.19,4.29-.53a6.64,6.64,0,0,0,3.19-2.24,7.2,7.2,0,0,0,1.56-3.81,12.84,12.84,0,0,0-.48-4.49,13.67,13.67,0,0,0-1.8-3.75,8.81,8.81,0,0,0-.67-.91,9.93,9.93,0,0,0-4.67-2.94c-15.07-1.93-18.36-2.42-20.58-3.2s-3.37-1.85-7-4.89-9.84-8-13.39-12.08a76.92,76.92,0,0,1,9.38-.49c1.92.13,3.07.52,4.3.47a6.83,6.83,0,0,0,3.62-1.45,7.09,7.09,0,0,0,2.38-3.35,12.62,12.62,0,0,0,.57-4.48,13.59,13.59,0,0,0-.89-4.06,8.38,8.38,0,0,0-.45-1,9.72,9.72,0,0,0-3.86-3.93C94.08,163.23,91,162,89,160.73s-2.86-2.58-5.71-6.38S75.56,144.28,73,139.53a78.53,78.53,0,0,1,9.24,1.67c1.84.56,2.87,1.22,4.07,1.44a6.67,6.67,0,0,0,3.86-.58,7.11,7.11,0,0,0,3.09-2.71,12.59,12.59,0,0,0,1.58-4.23A13.83,13.83,0,0,0,95,131a9.29,9.29,0,0,0-.2-1.11,9.86,9.86,0,0,0-2.86-4.72c-12.63-8.46-15.35-10.36-17-12s-2.19-3.17-4.09-7.52S65.58,94,64.22,88.78a76.36,76.36,0,0,1,8.61,3.75c1.66,1,2.51,1.84,3.63,2.33a6.62,6.62,0,0,0,3.89.32A7,7,0,0,0,84,93.25a12.46,12.46,0,0,0,2.51-3.75,13.65,13.65,0,0,0,1-4,8.38,8.38,0,0,0,.06-1.13,9.84,9.84,0,0,0-1.7-5.25C75.52,68,73.3,65.48,72.1,63.46s-1.4-3.58-2.26-8.25-2.43-12.47-2.56-17.85A78.56,78.56,0,0,1,74.8,43c1.39,1.33,2,2.37,3,3.11a6.64,6.64,0,0,0,3.71,1.2,7.16,7.16,0,0,0,4-1,12.74,12.74,0,0,0,3.3-3.08,13.67,13.67,0,0,0,1.92-3.69A8.2,8.2,0,0,0,91,38.39a9.86,9.86,0,0,0-.46-5.49c-2-3.47-3.53-6.22-4.78-8.45"/>
      <path class="cls-3" d="M284.18,50.46a25.91,25.91,0,1,0,26.95,34.95"/>
      <path class="cls-3" d="M105.39,14.9A191.59,191.59,0,0,0,300.08,267.36"/>
      <path class="cls-3" d="M141.73,4.73A161.83,161.83,0,0,0,319.16,234.81"/>
    </g>
  </g>
  <g id="clicked-02" class='hidden'>
    <path class="cls-2" d="M74.73,31.37a165.34,165.34,0,0,1,206.13,15.9l1.75,1.65.86.84.43.42c.09.09.31.28.1.3a25.78,25.78,0,0,0-4.35.87,25.49,25.49,0,0,0-8.21,4.09,25.91,25.91,0,1,0,38.26,33.1c.37-.68.7-1.38,1-2.09.08-.17.15-.35.22-.52l.1-.27c0-.08,0-.39.11-.24l.61,1.07c.8,1.42,1.59,2.85,2.35,4.3q2.28,4.3,4.29,8.74a165.34,165.34,0,0,1-20.26,170.38q-3.61,4.62-7.54,9c-.65.73-1.32,1.45-2,2.16-.13.14-.28.68-.44.34l-.11-.21a6.71,6.71,0,0,0-.49-.81,9,9,0,0,0-1.34-1.49,12.87,12.87,0,0,0-6.62-3.18c-.33-.06-.67-.1-1-.13a8.47,8.47,0,0,0-4.88,1,5.5,5.5,0,0,0-.81.55l-3.62,2.85c-1.82,1.42-3.64,2.85-5.47,4.25s-3.79,3-5.84,4.27a14.27,14.27,0,0,1-6.28,2c-6.59.74-14.35,1.75-21,1.47-.16,0-.67.14-.47-.1l.35-.43.68-.81,1.21-1.46c.67-.78,1.33-1.55,2-2.3a23.09,23.09,0,0,1,2.9-2.78c1.33-1,2.68-1.9,3.38-3.62a6.59,6.59,0,0,0,.11-5.12,12.11,12.11,0,0,0-7-6.73,9.5,9.5,0,0,0-4-.66,6.71,6.71,0,0,0-1.88.3,37.29,37.29,0,0,0-4.17,1.9l-4.9,2.26a68.69,68.69,0,0,1-9.61,4,12,12,0,0,1-4.39.4c-2.56-.21-5.08-.64-7.62-1-4-.52-8-1.05-11.9-1.92-.91-.2-1.81-.42-2.71-.67-.13,0-.48-.08-.29-.23s.3-.22.44-.34l.84-.63c.94-.7,1.88-1.41,2.83-2.09a30.53,30.53,0,0,1,3.86-2.48c.84-.43,1.73-.76,2.58-1.17a5.88,5.88,0,0,0,3.16-3.67c1.3-3.61-.75-7.56-3.19-9.94a13.46,13.46,0,0,0-2.17-1.74,9.74,9.74,0,0,0-2.4-1c-2.72-.8-5,0-7.53.55-4.3.89-8.57,1.84-12.91,2.49a16.19,16.19,0,0,1-4.56.19,19.08,19.08,0,0,1-4.06-1.18c-2.49-.94-5-1.88-7.45-2.84-3.26-1.25-6.49-2.53-9.63-4.07-.7-.35-1.4-.72-2.09-1.1-.08,0-.38-.07-.22-.14l.22-.1.43-.19.83-.36c.95-.42,1.9-.84,2.86-1.24a31.17,31.17,0,0,1,6.69-2.11,6.73,6.73,0,0,0,5.87-5.59c.58-3-.84-6.61-2.61-8.92a12.67,12.67,0,0,0-1.08-1.23,9.33,9.33,0,0,0-2.24-1.57c-1.81-1-3.63-.94-5.54-1-4.75-.14-9.49-.21-14.23-.55a18.21,18.21,0,0,1-4.79-.81,16.13,16.13,0,0,1-3.58-1.95c-2.13-1.41-4.22-2.84-6.33-4.27-2.88-1.95-5.75-3.94-8.47-6.12-.63-.51-1.25-1-1.86-1.57l-.42-.38c-.1-.08-.37-.25-.15-.29l.92-.18c1.06-.19,2.12-.39,3.18-.57a32,32,0,0,1,7.25-.6c3.16.18,5.69-.95,7.1-3.92s.76-6.91-.52-9.65a10.47,10.47,0,0,0-.84-1.5,10.62,10.62,0,0,0-2.26-2.28,6.6,6.6,0,0,0-1.46-.88,24.42,24.42,0,0,0-3.32-.92l-5-1.34c-3.5-.94-7-1.78-10.44-3.06a11.77,11.77,0,0,1-3.58-2A37.42,37.42,0,0,1,92.75,175c-2.21-2.4-4.44-4.77-6.59-7.21-1.22-1.38-2.41-2.77-3.55-4.22-.52-.67-1-1.34-1.54-2l-.34-.49-.17-.25c0-.07-.33-.24-.15-.23l1,0c2,.1,4,.19,6,.39a49.69,49.69,0,0,1,5.82,1.22c3.13.69,6.25-1.39,7.5-4.14a12,12,0,0,0,.57-8.6,9.61,9.61,0,0,0-1.46-3c-1.29-1.84-3.1-2.64-4.94-3.62-4.2-2.25-8.43-4.42-12.51-6.89-3.52-2.13-4.29-3.16-6.27-6.69C72.87,123.52,69.45,118,67,111.91c-.11-.27-.74-1.11-.19-1l1,.3,1.9.55c1,.3,2,.61,3,.94a23.49,23.49,0,0,1,3.83,1.56c1.51.81,2.85,1.73,4.74,1.68,4.17-.1,6.6-3.43,7.6-7a10.51,10.51,0,0,0-.7-8.37A5.44,5.44,0,0,0,87.05,99c-2.83-2.49-5.66-5-8.46-7.5A48,48,0,0,1,72,85.08a12.75,12.75,0,0,1-2-4c-.87-2.72-1.61-5.48-2.4-8.22A104.62,104.62,0,0,1,64.73,61c-.08-.45-.15-.89-.21-1.34,0-.22.22,0,.33,0l.49.27,1.75,1C68,61.42,69,62,69.9,62.52A24.45,24.45,0,0,1,73.36,65c.68.59,1.29,1.25,2,1.79,3.08,2.34,7.2,1,9.55-1.6a12.07,12.07,0,0,0,3.32-7.09A9.89,9.89,0,0,0,88,54.54a6.06,6.06,0,0,0-.68-1.77c-1-1.65-2.22-3.14-3.34-4.72L81,43.88a55.49,55.49,0,0,1-5.23-8.16A12.15,12.15,0,0,1,74.73,31.37Z"/>
    <g id="clicked-stroke-02">
      <path class="cls-4" d="M141.73,4.73A161.83,161.83,0,0,0,319.16,234.81"/>
      <path class="cls-4" d="M105.39,14.9A191.59,191.59,0,0,0,300.08,267.36"/>
      <path class="cls-4" d="M284.18,50.46a25.91,25.91,0,1,0,26.95,34.95"/>
      <path class="cls-4" d="M288.21,281.46a7.8,7.8,0,0,0-1-1.6,12.63,12.63,0,0,0-3.54-2.8,13.69,13.69,0,0,0-3.93-1.36,9.65,9.65,0,0,0-1.13-.15,9.86,9.86,0,0,0-5.36,1.27c-11.95,9.39-14.6,11.4-16.71,12.44s-3.69,1.1-8.42,1.57-12.62,1.4-18,1.08a75.65,75.65,0,0,1,6.22-7c1.44-1.29,2.53-1.83,3.34-2.74a6.73,6.73,0,0,0,1.51-3.61,7.07,7.07,0,0,0-.72-4,12.22,12.22,0,0,0-2.8-3.54,13.51,13.51,0,0,0-3.51-2.22,10.16,10.16,0,0,0-1.06-.41,9.88,9.88,0,0,0-5.51,0c-13.79,6.41-16.83,7.75-19.12,8.28s-3.84.23-8.55-.4-12.61-1.54-17.77-3.07a78.44,78.44,0,0,1,7.67-5.42c1.69-.92,2.88-1.2,3.88-1.9a6.69,6.69,0,0,0,2.3-3.16,7.19,7.19,0,0,0,.23-4.1,12.55,12.55,0,0,0-1.91-4.09,13.45,13.45,0,0,0-2.92-3,6.46,6.46,0,0,0-.94-.64,9.77,9.77,0,0,0-5.36-1.27c-14.88,3.07-18.15,3.69-20.51,3.67s-3.79-.66-8.22-2.35-11.93-4.39-16.59-7.07a79.22,79.22,0,0,1,8.7-3.51c1.86-.5,3.08-.5,4.22-1a6.67,6.67,0,0,0,3-2.55,7.13,7.13,0,0,0,1.17-3.94,12.56,12.56,0,0,0-.92-4.42,14,14,0,0,0-2.16-3.56,9.16,9.16,0,0,0-5.7-3.29c-15.19-.43-18.51-.58-20.8-1.14s-3.54-1.51-7.47-4.17-10.59-7-14.53-10.69a78.34,78.34,0,0,1,9.29-1.42c1.92-.07,3.11.22,4.32,0a6.66,6.66,0,0,0,3.46-1.81,7.16,7.16,0,0,0,2-3.56,12.5,12.5,0,0,0,.11-4.52,13.16,13.16,0,0,0-1.28-4,8.16,8.16,0,0,0-.55-1,9.83,9.83,0,0,0-4.24-3.53c-14.69-3.9-17.88-4.81-20-5.87s-3.1-2.29-6.32-5.78S83.38,165,80.41,160.51a78.77,78.77,0,0,1,9.35.74c1.89.38,3,.93,4.2,1a6.64,6.64,0,0,0,3.78-1,7.13,7.13,0,0,0,2.81-3A12.52,12.52,0,0,0,101.7,154a13.64,13.64,0,0,0-.35-4.14,8.33,8.33,0,0,0-.31-1.1,9.86,9.86,0,0,0-3.31-4.4c-13.4-7.16-16.31-8.78-18.11-10.3s-2.49-2.94-4.82-7.07-6.35-11-8.22-16a78.08,78.08,0,0,1,8.94,2.87c1.75.8,2.68,1.59,3.85,2a6.75,6.75,0,0,0,3.9-.07,7.1,7.1,0,0,0,3.41-2.29,12.35,12.35,0,0,0,2.13-4,13.78,13.78,0,0,0,.61-4.11,10.92,10.92,0,0,0,0-1.13,9.82,9.82,0,0,0-2.22-5.05c-11.4-10-13.85-12.29-15.26-14.18s-1.75-3.43-3.06-8-3.66-12.17-4.33-17.5a75.49,75.49,0,0,1,8,4.84c1.52,1.18,2.25,2.16,3.3,2.79a6.66,6.66,0,0,0,3.81.83,7.1,7.1,0,0,0,3.85-1.43,12.26,12.26,0,0,0,3-3.4A13.11,13.11,0,0,0,88,59.2a7.53,7.53,0,0,0,.21-1.11,9.72,9.72,0,0,0-1-5.42c-8.79-12.4-10.66-15.14-11.6-17.31a11.65,11.65,0,0,1-.9-4"/>
    </g>
  </g>
  <g id="outlines">
    <circle class="cls-5" cx="167.87" cy="168.02" r="165.38"/>
  </g>
</svg>
