<svg xmlns="http://www.w3.org/2000/svg" viewBox="0 0 335.91 335.91">
  <defs>
    <style>
      .cls-1 {
        fill: #282828;
      }

      .cls-2 {
        fill: #efefef;
      }

      .cls-3, .cls-4, .cls-5 {
        fill: none;
        stroke-linecap: round;
        stroke-linejoin: round;
      }

      .cls-3 {
        stroke: #282828;
      }

      .cls-3, .cls-4 {
        stroke-width: 2px;
      }

      .cls-4 {
        stroke: #f4a657;
      }

      .cls-5 {
        stroke: #efefef;
        stroke-width: 4px;
      }
    </style>
  </defs>
  <g id="icon-backs-05">
    <circle class="cls-1" cx="167.08" cy="168.05" r="165.38"/>
  </g>
  <g id="unclicked-05">
    <path class="cls-2" d="M72.2,106.54l17.32-6,3.22-1.12,1.61-.56.81-.28.4-.14.2-.07c.17-.06.06.17.09.25s.06.18.1.27l.18.54.38,1.08q6,17.26,12,34.52,3,8.63,6,17.26l3,8.63c.5,1.43,1,2.87,1.49,4.31.13.36.26.72.38,1.08s.28-.06.41-.11.54-.19.8-.3c9.7-3.76,12.77-10.59,15.79-19.44,4.38-12.89,8.61-21.44,21.6-28.11,4.51-2.32,9.29-3.79,14-5.44l13.53-4.69,8.42-2.92,1-.37.26-.09c.37-.13.3.28.37.49.4,1.14.8,2.28,1.19,3.43q2.38,6.85,4.76,13.71,4.77,13.72,9.52,27.44l18.69,53.85q4.68,13.45,9.35,26.93,1.15,3.36,2.33,6.73l.29.84c0,.09.35.57.17.63l-.38.13-.76.26-3,1.05-24.2,8.4c-13.47,4.67-25.94,6.8-39.59-.52-5.75-3.08-11.27-8.25-18.49-9a19.41,19.41,0,0,0-7.39.74c-.67.19-1.33.39-2,.61-.36.12-1,.05-.77.64.26.76.53,1.52.79,2.29q1.59,4.59,3.19,9.17L155.66,271l3.18,9.17,1.59,4.59c.27.76.53,1.52.8,2.29.13.38.27.76.4,1.15,0,.09.06.19.1.28s.24.05.37,0l1.13-.39.93-.32c.2-.07.78-.52.78-.11V333c0,.15.24.44-.05.44h-.45l-.9,0-1.79-.06c-1.21,0-2.41-.1-3.61-.17-2.44-.15-4.88-.34-7.3-.59a161.28,161.28,0,0,1-59.35-17.81A165.36,165.36,0,0,1,16.28,101.87,161.26,161.26,0,0,1,52,50c.13-.11.25-.23.37-.35s.13.24.17.37c.11.29.21.6.32.89l.61,1.8c.42,1.2.84,2.39,1.25,3.59l2.49,7.18c1.67,4.79,3.32,9.58,5,14.37ZM143.49,235.9a39.32,39.32,0,0,1,5.88-1.62,22,22,0,0,1,12.42,1.13,38.77,38.77,0,0,1,6.52,3.23c1.17.72,2.35,1.5,3.52,2.22s2.32,1.49,3.49,2.15,2.53,1.38,3.83,2a39.74,39.74,0,0,0,4.36,1.57,33.88,33.88,0,0,0,5.05,1,38.49,38.49,0,0,0,6,.16,48.62,48.62,0,0,0,7.13-.92,69.15,69.15,0,0,0,8.46-2.35Q188.57,182.3,167,120.17a51.86,51.86,0,0,0-7,3,41.58,41.58,0,0,0-5.34,3.35,32.25,32.25,0,0,0-4.05,3.61,35.11,35.11,0,0,0-5.39,7.79c-.67,1.33-1.24,2.69-1.79,4.07s-1,2.71-1.49,4.09-.94,2.8-1.44,4.19a50.14,50.14,0,0,1-3.16,7.26,29.26,29.26,0,0,1-4.08,6,26.66,26.66,0,0,1-5.48,4.62c-1,.63-2.12,1.19-3.22,1.72s-2.34,1-3.54,1.41Z"/>
    <g id="unclicked-stroke-05">
      <polyline class="cls-3" points="52.44 49.59 138.21 296.76 155.4 290.77 164.94 287.48 164.94 288.89 164.94 333.4"/>
      <path class="cls-3" d="M143.49,235.9l-22.44-64.66q1.8-.62,3.54-1.41c1.1-.53,2.19-1.09,3.22-1.72a26.66,26.66,0,0,0,5.48-4.62,29.26,29.26,0,0,0,4.08-6,50.14,50.14,0,0,0,3.16-7.26c.5-1.39,1-2.81,1.44-4.19s1-2.75,1.49-4.09,1.12-2.74,1.79-4.07a35.11,35.11,0,0,1,5.39-7.79,32.25,32.25,0,0,1,4.05-3.61,41.58,41.58,0,0,1,5.34-3.35,51.86,51.86,0,0,1,7-3q21.57,62.12,43.12,124.26a69.15,69.15,0,0,1-8.46,2.35,48.62,48.62,0,0,1-7.13.92,38.49,38.49,0,0,1-6-.16,33.88,33.88,0,0,1-5.05-1,39.74,39.74,0,0,1-4.36-1.57c-1.3-.59-2.57-1.25-3.83-2s-2.34-1.38-3.49-2.15-2.35-1.5-3.52-2.22a38.77,38.77,0,0,0-6.52-3.23,22,22,0,0,0-12.42-1.13A39.32,39.32,0,0,0,143.49,235.9Z"/>
      <path class="cls-3" d="M211.83,249.33c-26.19,9.09-37.89-1.17-46.17-6.2s-13.13-4.85-20.46-2.3l16.57,47.76-6.35,2.2-17.21,6q-33-95.11-66-190.22l17.21-6,6.35-2.2q11.79,34,23.59,68c8.72-3,12.73-7.92,16.31-17.93s6.74-25.23,29.63-33.18l9.56-3.31,20.57-7.14q23.27,67,46.54,134.09Z"/>
      <line class="cls-3" x1="167" y1="120.17" x2="165.29" y2="115.23"/>
      <line class="cls-3" x1="119.35" y1="166.34" x2="121.05" y2="171.24"/>
      <line class="cls-3" x1="210.12" y1="244.43" x2="211.83" y2="249.33"/>
      <line class="cls-3" x1="145.2" y1="240.83" x2="143.49" y2="235.9"/>
    </g>
  </g>
  <g id="clicked-05" class='hidden'>
    <path class="cls-2" d="M2.46,168.05A165.33,165.33,0,0,1,40.09,63q3.7-4.52,7.72-8.75c1.34-1.42,2.71-2.8,4.09-4.17l.53-.51c.15-.15.08.19.12.3l.11.32c.15.44.31.87.46,1.31.3.87.6,1.74.91,2.62L68.55,96,128,267.2l7.42,21.4,1.86,5.34.93,2.68c.12.35.38,0,.57,0l.67-.23,1.34-.47,10.69-3.73q5.34-1.86,10.7-3.7l2.68-.93c.34-.11.13.34.13.53v44.89c0,.21.06.46-.24.45H164l-1.32,0c-1.77,0-3.53-.13-5.3-.24a166,166,0,0,1-21.66-2.82A162.77,162.77,0,0,1,92.18,315.1,165.37,165.37,0,0,1,2.46,168.05Z"/>
    <path class="cls-2" d="M250,239.09c-27.71,0-35.41-13.53-41.58-21s-10.82-8.89-18.57-8.89v50.55H164.94V58.42h24.95v72c9.22,0,14.61-3.32,21.28-11.59S225.82,97.15,250,97.15h31.9V239.09ZM189.89,204a38.91,38.91,0,0,1,6.08.41,24.4,24.4,0,0,1,5.88,1.67,24.71,24.71,0,0,1,5.48,3.46,39.77,39.77,0,0,1,5.11,5.19c.86,1.07,1.72,2.19,2.59,3.26s1.7,2.16,2.6,3.17a41.84,41.84,0,0,0,3,3.12,38.79,38.79,0,0,0,3.6,2.91,35.28,35.28,0,0,0,4.44,2.6,40.64,40.64,0,0,0,5.6,2.1,49.89,49.89,0,0,0,7,1.47,69.77,69.77,0,0,0,8.77.55V102.37a50.56,50.56,0,0,0-7.56.52,40.18,40.18,0,0,0-6.14,1.41,31.31,31.31,0,0,0-5,2.08,35.06,35.06,0,0,0-7.65,5.59c-1.07,1-2.05,2.13-3,3.26s-1.84,2.22-2.74,3.37-1.81,2.34-2.73,3.49a51.89,51.89,0,0,1-5.37,5.83,29.49,29.49,0,0,1-5.82,4.32,26.45,26.45,0,0,1-6.7,2.57c-1.18.26-2.39.43-3.6.58s-2.54.17-3.8.17Z"/>
    <g id="clicked-stroke-05">
      <path class="cls-4" d="M250,239.09c-27.71,0-35.41-13.53-41.58-21s-10.82-8.89-18.57-8.89v50.55H164.94V58.42h24.95v72c9.22,0,14.61-3.32,21.28-11.59S225.82,97.15,250,97.15h31.9V239.09Z"/>
      <polyline class="cls-4" points="52.44 49.59 138.21 296.76 155.4 290.77 164.94 287.48 164.94 288.89 164.94 333.4"/>
      <path class="cls-4" d="M189.89,204V135.56c1.26,0,2.53-.06,3.8-.17s2.42-.32,3.6-.58a26.45,26.45,0,0,0,6.7-2.57,29.49,29.49,0,0,0,5.82-4.32,51.89,51.89,0,0,0,5.37-5.83c.92-1.15,1.84-2.33,2.73-3.49s1.82-2.27,2.74-3.37,2-2.22,3-3.26a35.06,35.06,0,0,1,7.65-5.59,31.31,31.31,0,0,1,5-2.08,40.18,40.18,0,0,1,6.14-1.41,50.56,50.56,0,0,1,7.56-.52V233.9a69.77,69.77,0,0,1-8.77-.55,49.89,49.89,0,0,1-7-1.47,40.64,40.64,0,0,1-5.6-2.1,35.28,35.28,0,0,1-4.44-2.6,38.79,38.79,0,0,1-3.6-2.91,41.84,41.84,0,0,1-3-3.12c-.9-1-1.76-2.07-2.6-3.17s-1.73-2.19-2.59-3.26a39.77,39.77,0,0,0-5.11-5.19,24.71,24.71,0,0,0-5.48-3.46A24.4,24.4,0,0,0,196,204.4,38.91,38.91,0,0,0,189.89,204Z"/>
      <line class="cls-4" x1="250.04" y1="102.37" x2="250.04" y2="97.15"/>
      <line class="cls-4" x1="189.89" y1="130.37" x2="189.89" y2="135.56"/>
      <line class="cls-4" x1="250.04" y1="233.9" x2="250.04" y2="239.09"/>
      <line class="cls-4" x1="189.89" y1="209.21" x2="189.89" y2="203.99"/>
    </g>
  </g>
  <g id="outlines">
    <circle class="cls-5" cx="167.84" cy="168.05" r="165.38"/>
  </g>
</svg>
