<svg xmlns="http://www.w3.org/2000/svg" viewBox="0 0 335.91 335.91">
  <defs>
    <style>
      .cls-1 {
        fill: #282828;
      }

      .cls-2 {
        fill: #efefef;
      }

      .cls-3, .cls-7, .cls-10, .cls-6 {
        fill: none;
        stroke-linecap: round;
        stroke-linejoin: round;
      }

      .cls-3, .cls-7 {
        stroke: #282828;
      }

      .cls-7, .cls-10 {
        stroke-width: 2px;
      }

      .cls-10 {
        stroke: #f4a657;
      }

      .cls-6 {
        stroke: #efefef;
        stroke-width: 4px;
      }
    </style>
  </defs>
  <g id="icon-backs-12">
    <circle class="cls-1" cx="166.86" cy="168.23" r="165.38"/>
  </g>
  <g id="unclicked-12">
    <path class="cls-2" d="M299.5,268a9.15,9.15,0,0,0-2.29.11l-3,.12c-2,.07-4,.1-6,.11q-6,0-12-.36a193.6,193.6,0,0,1-74.47-20,188.75,188.75,0,0,1-61.06-47.84,188.44,188.44,0,0,1-13.77-18.29A193.29,193.29,0,0,1,95,87.3a190.81,190.81,0,0,1,3.3-49.91c.82-4.16,1.78-8.27,2.87-12.37q.83-3.07,1.75-6.13c.31-1,.63-2,1-3.05.1-.33,1.11-.67,1.33-.76l1.5-.61A165.38,165.38,0,0,1,299.5,268Z"/>
    <g id="unclicked-stroke-12">
      <line class="cls-3" x1="232.74" y1="123.04" x2="142.1" y2="201.89"/>
      <line class="cls-3" x1="218.72" y1="51.18" x2="109.23" y2="13.5"/>
      <polyline class="cls-3" points="264.14 144.21 225.09 257.8 225.09 257.83"/>
      <polyline class="cls-3" points="287.96 74.97 279.63 89.45 251.36 138.38"/>
      <polyline class="cls-3" points="287.96 74.97 271.26 74.97 214.77 74.97 214.74 74.97"/>
      <polyline class="cls-3" points="287.96 74.97 296.32 89.45 324.58 138.38"/>
      <line class="cls-3" x1="216.1" y1="88.99" x2="98.18" y2="111.94"/>
      <path class="cls-7" d="M240.1,19.6l-.19.15a73,73,0,0,0-21.16,31.43,71.89,71.89,0,0,0-3.61,16.26,73,73,0,0,0-.37,7.53,73.29,73.29,0,0,0,15.28,44.81c.87,1.13,1.76,2.2,2.69,3.26a72.58,72.58,0,0,0,18.62,15.35,70.47,70.47,0,0,0,12.78,5.79A71.82,71.82,0,0,0,277,147.35a73.37,73.37,0,0,0,47.61-9c1.72-1,3.42-2.08,5.06-3.24"/>
      <polyline class="cls-3" points="287.96 74.97 279.63 60.52 264.38 34.12"/>
      <path class="cls-7" d="M291.47,58.65A16.7,16.7,0,0,0,271.26,75a16.71,16.71,0,0,0,3.49,10.24,16.27,16.27,0,0,0,4.88,4.24,16.7,16.7,0,0,0,13.75,1.35,17.09,17.09,0,0,0,2.94-1.35,16.76,16.76,0,0,0,8.35-13.76"/>
      <line class="cls-3" x1="287.96" y1="74.97" x2="295" y2="62.78"/>
      <line class="cls-3" x1="287.96" y1="74.97" x2="304.18" y2="74.97"/>
      <line class="cls-3" x1="301.97" y1="146.83" x2="319.07" y2="234.61"/>
      <path class="cls-7" d="M104,15.59A193.38,193.38,0,0,0,135,193.29c2.28,2.94,4.62,5.8,7.07,8.6A193.47,193.47,0,0,0,299.46,268h0"/>
    </g>
  </g>
  <g id="clicked-12" class='hidden'>
    <path class="cls-2" d="M313.11,89.62l-2.46,6c-.1.25-.2.49-.31.74s0,.6-.38.76l-4.15,1.72-8.33,3.44-5.25,2.18-2.63,1.08-1.32.55c-.11,0-.16.21-.32.13h0l0,0c-1.68-.84-3.45-1.43-5.17-2.14l-5.24-2.17-10-4.13-1.25-.52c-.5-.21-.56-.63-.73-1-.35-.83-.69-1.67-1-2.5l-2.07-5-4.35-10.51c-.36-.88-.73-1.76-1.09-2.63-.07-.19-.36-.28-.22-.55v0c1-2,1.74-4.19,2.6-6.28L264,57.6l1.14-2.77c.34-.81.31-1.72,1.36-2.15l3.68-1.53,5.74-2.38,2.87-1.19c.25-.09.48-.19.72-.29l.36-.15c.34-.14.49.07.69.27q3.76,3.51,7.29,7.24A163.68,163.68,0,0,1,313.11,89.62Z"/>
    <path class="cls-2" d="M332,186.35a162.73,162.73,0,0,1-12.34,46.92,164.52,164.52,0,0,1-11.83,22.64q-3.45,5.5-7.31,10.72c-.32.44-.64.87-1,1.3,0,0,0,.05-.07.05-.33,0-.64,0-1,.06q-3,.15-6,.23-6,.14-11.9-.08A193.3,193.3,0,0,1,100.91,26c.48-1.85,1-3.68,1.53-5.51.26-.91.54-1.83.82-2.74.14-.46.29-.91.43-1.37s.08-.75.54-.94q2.77-1.15,5.6-2.2A165.34,165.34,0,0,1,176.42,3.09c2.66.14,5.3.35,7.94.62,1.34.13,2.68.29,4,.45l2,.27c.24,0,.87-.07.6.29l-.49.69a121.53,121.53,0,0,0-7.15,11.3,119.06,119.06,0,0,0-10.16,24.11,115.75,115.75,0,0,0-3.67,51.78C180.87,168.87,260.27,214.69,332,186.35Z"/>
    <g id="clicked-stroke-12">
      <path class="cls-10" d="M191.12,4.53A119.76,119.76,0,0,0,332,186.35"/>
      <polyline class="cls-10" points="280.11 47.02 265.9 52.91 256.78 74.91 256.76 74.97 265.9 97.06 287.9 106.17 287.96 106.2 310.05 97.06 313.11 89.62"/>
      <path class="cls-10" d="M118.41,10.34a181.47,181.47,0,0,0,189.78,245"/>
      <path class="cls-10" d="M104,15.59A193.34,193.34,0,0,0,299.46,268h0"/>
      <line class="cls-10" x1="287.9" y1="106.17" x2="287.7" y2="194.73"/>
      <line class="cls-10" x1="256.78" y1="74.91" x2="168.2" y2="74.74"/>
    </g>
  </g>
  <g id="outlines">
    <circle class="cls-6" cx="167.61" cy="168.23" r="165.38"/>
  </g>
</svg>
