<svg xmlns="http://www.w3.org/2000/svg" viewBox="0 0 335.91 335.91">
  <defs>
    <style>
      .cls-1 {
        fill: #282828;
      }

      .cls-2 {
        fill: #efefef;
      }

      .cls-3, .cls-4, .cls-5 {
        fill: none;
        stroke-linecap: round;
        stroke-linejoin: round;
      }

      .cls-3 {
        stroke: #282828;
      }

      .cls-3, .cls-4 {
        stroke-width: 2px;
      }

      .cls-4 {
        stroke: #f4a657;
      }

      .cls-5 {
        stroke: #efefef;
        stroke-width: 4px;
      }
    </style>
  </defs>
  <g id="icon-backs-07">
    <circle class="cls-1" cx="167.05" cy="168.08" r="165.38"/>
  </g>
  <g id="unclicked-07">
    <path class="cls-2" d="M25.43,99.07l-4,.56c-1.11.15-2.21.32-3.31.52l-.65.11c-.15,0-.56.23-.44,0,.19-.43.39-.86.59-1.29.39-.86.79-1.71,1.2-2.56q2.49-5.15,5.3-10.11t6-9.8c1.08-1.61,2.17-3.2,3.3-4.77q.84-1.17,1.71-2.34L36,68.19l.44-.58c.2-.26.43-.07.65-.08A194,194,0,0,1,236.25,306.17c-.63,2.7-1.33,5.37-2.09,8-.37,1.32-.76,2.64-1.16,4l-.61,2c-.11.32-1.63.88-1.84,1a163.74,163.74,0,0,1-16.12,5.66,166.49,166.49,0,0,1-16.19,3.89l-2,.36-.5.09c-.29.05.09-.28.15-.41.14-.31.28-.62.43-.92.56-1.24,1.12-2.48,1.65-3.73,1.09-2.52,2.11-5.06,3.07-7.64a164.24,164.24,0,0,0,5-16c.35-1.37.69-2.74,1-4.12.16-.69.32-1.38.47-2.07.08-.35.15-.7.22-1.05s-.58-.14-.76-.15c-2.49-.16-5-.35-7.44-.57-12.16-1.06-24.21-2.72-36.26-4.61-22.08-3.46-44-7.74-65.86-12.31q-4.82-1-9.63-2l-4.92-1.06c-.49-.1-.61.9-.72,1.14q-.27.68-.57,1.32A37.87,37.87,0,0,1,78.77,282c-.27.41-.54.81-.83,1.21-.15.22-1,.86-.67,1.22l3.5,3.63q13,13.47,25.69,27.18,3.74,4.05,7.45,8.12l.9,1,.45.49s0,.11,0,.09l-.22-.07-1.77-.61c-1.18-.41-2.36-.84-3.53-1.28q-7.12-2.67-14-6c-2.31-1.11-4.6-2.28-6.85-3.51-1.13-.61-2.26-1.24-3.38-1.88-.54-.31-3.66-3.87-4.06-4.3q-4.24-4.67-8.47-9.36L68.65,293c-.07-.08-.35-.54-.52-.43l-.39.26-.79.49c-.52.32-1.06.62-1.59.92s-1.09.56-1.64.83l-.82.38c-.13.06-.22.26-.4.11s-.26-.2-.38-.31q-1.51-1.26-3-2.55-3-2.6-5.82-5.32t-5.55-5.59l-.68-.72-.33-.36c-.11-.11-.59-.35-.3-.34.6,0,1.2,0,1.8,0a18.11,18.11,0,0,0,3.66-.5,19.13,19.13,0,1,0-21.38-27.46A18.93,18.93,0,0,0,29.11,256q-.13.45-.24.9c0,.14-.07.29-.1.45s0,.34-.05.21l-.14-.21c-.36-.56-.72-1.13-1.07-1.7q-2.13-3.4-4.08-6.9A163.92,163.92,0,0,1,10.79,220q-1.2-3.64-2.24-7.33c-.34-1.22-.67-2.45-1-3.67-.07-.28.23.15.33.26l.52.57L9.47,211l2.13,2.31q4.35,4.78,8.69,9.58l4.47,5,1.13,1.26.57.63c.14.16.24.35.49.19.54-.35,1.1-.7,1.66-1A37.16,37.16,0,0,1,34.78,226c.53-.2,1.07-.37,1.61-.54.14,0,.27-.09.41-.12s.14-.29.12-.47l-.21-1.46q-.41-2.89-.8-5.78-1.52-11-2.92-22c-1.64-12.95-3.14-25.91-4.41-38.91C26.72,137.51,25.18,118.39,25.43,99.07ZM208.67,290.48a163.86,163.86,0,0,0-8.8-89.28c-.7-1.76-1.43-3.52-2.18-5.26l-.57-1.3c0-.08,0-.3-.18-.2l-.24.16-.5.31-2,1.28q-4.4,2.75-8.89,5.34c-7,4.07-14.12,7.93-21.31,11.68-13.42,7-27,13.62-40.74,20q-10.17,4.77-20.41,9.4l-10.94,4.91-5.65,2.51-1.43.63c-.19.09-1.25.29-1.14.68.15.58.3,1.17.43,1.76a37.08,37.08,0,0,1,.9,7.79c0,.32,0,.65,0,1,0,.16,0,.33,0,.49s.64.15.78.17l3.35.59,6.57,1.18q12.42,2.25,24.81,4.64C146.86,274.1,183.07,281.78,208.67,290.48ZM195,190.16a163.86,163.86,0,0,0-59.59-67q-2.43-1.55-4.91-3l-1.24-.73c-.42-.24-.45.62-.54.85l-.9,2.24q-2,4.78-4,9.52c-3.27,7.4-6.75,14.7-10.35,21.94-6.74,13.56-13.87,26.9-21.19,40.16q-5.43,9.84-11,19.61-3,5.22-6,10.42l-3.1,5.36-.78,1.35c-.11.18-.79,1-.49,1.2.47.37.92.76,1.37,1.15a37.06,37.06,0,0,1,5.2,5.64c.19.25.38.51.56.77s.19.26.27.39.34.1.53,0l3.08-1.51L88,235.54Q99.5,230,111,224.6C135.41,213.24,169.21,198.17,195,190.16Zm-70-73.15A163.85,163.85,0,0,0,37.43,97.79c-2.41.15-4.81.4-7.21.7-.34,0,0,.34,0,.51.24.93.47,1.86.71,2.79q.72,3,1.39,5.91c2.11,9.28,3.86,18.61,5.44,28,2.51,14.93,4.59,29.91,6.46,44.93Q45.61,191.8,46.85,203q.67,6,1.3,12c.22,2.06.43,4.11.64,6.17.06.52.11,1,.16,1.56,0,.26.06.52.08.78s0,.36.27.38c.59,0,1.17.07,1.75.12a37.79,37.79,0,0,1,7.6,1.53c.31.1.63.2.93.31l.47.16c.2.07.36-.47.42-.58.53-1,1.06-2,1.6-3q1.57-3,3.16-5.91,6-11.16,12.11-22.23C90.38,170.72,108.86,138.67,125.05,117Z"/>
    <g id="unclicked-stroke-07">
      <path class="cls-3" d="M82.62,274.38c56.69,12.25,98.06,19.08,125.15,20.69"/>
      <path class="cls-3" d="M85,262.42c57.13,10,98,19.32,123.71,28.06"/>
      <path class="cls-3" d="M83.6,251.22C136.67,227.82,174.15,209,197,194.4"/>
      <path class="cls-3" d="M78.47,240.18c52.11-25.46,90.65-42,116.57-50"/>
      <path class="cls-3" d="M70.79,231.92c29.17-50.14,48.44-87.36,58.34-112.63"/>
      <path class="cls-3" d="M60.14,226c27.2-51.22,48.66-87.24,64.91-109"/>
      <path class="cls-3" d="M49.07,223.83c-5.87-57.71-12.16-99.16-19-125.42"/>
      <path class="cls-3" d="M37,225.29C28.87,167.86,25.06,126.11,25.43,99"/>
      <path class="cls-3" d="M195.67,331.08A163.8,163.8,0,0,0,16.93,100.36"/>
      <path class="cls-3" d="M232.31,320.35A194,194,0,0,0,36.48,67.57"/>
      <path class="cls-3" d="M46.42,280.39c16.37.91,26.22-17.85,16.18-30.81s-30.67-8.11-33.88,8"/>
      <path class="cls-3" d="M62.55,295.63A37.5,37.5,0,1,0,18,238.12"/>
      <path class="cls-3" d="M26.74,230.05q-10-11.2-19.21-21.21"/>
      <path class="cls-3" d="M68.21,292.54q8.85,9.88,17,18.83"/>
      <path class="cls-3" d="M77.14,284.24q21.51,22.25,38.23,40.68"/>
    </g>
  </g>
  <g id="clicked-07" class='hidden'>
    <path class="cls-2" d="M232.31,320.35a164,164,0,0,1-21.24,7.34q-5.28,1.43-10.66,2.51c-.88.18-1.77.35-2.66.51-.44.09-.88.16-1.32.24l-.66.12c-.35.06.07-.35.15-.51.76-1.62,1.48-3.25,2.19-4.9A161.51,161.51,0,0,0,209.84,283a163.82,163.82,0,0,0,1.44-22.79q0-5.76-.48-11.5c-.07-1-.15-1.91-.24-2.87l-.15-1.43c0-.19.14-.58-.2-.49l-.56.14c-1.56.41-3.13.79-4.69,1.17-16,3.83-32.13,6.53-48.36,9-15.45,2.29-30.93,4.23-46.45,6q-6.6.75-13.2,1.46l-6.84.72-3.48.36-.88.09c-.14,0-.79-.17-.81.12s0,.67,0,1a37.54,37.54,0,0,1-1.37,7.72c-.18.63-.37,1.25-.59,1.87-.27.8.13.59.66.87l1.55.83,6.12,3.27c26.35,14.13,52.46,28.57,77.67,44.73,2.71,1.74,5.4,3.49,8.07,5.28q1.89,1.26,3.75,2.53l1.81,1.24.44.31.22.15c.14.1-.16,0-.24,0l-1.07.1c-2.81.24-5.62.4-8.44.5q-2.08.07-4.17.09a4.4,4.4,0,0,1-2.09-.19L165,332.2c-13.94-6.62-27.59-13.75-41.14-21.1q-12.32-6.68-24.49-13.59Q92.71,293.76,86.1,290l-6.87-4-1.74-1c-.12-.08-.58-.44-.74-.25l-.36.46c-.5.6-1,1.18-1.55,1.75a36.42,36.42,0,0,1-3.38,3.19c-.59.49-1.2,1-1.82,1.42l-.94.67c-.19.13.18.65.23.77l.45.91q1.74,3.57,3.47,7.16c.57,1.17,1.14,2.34,1.7,3.51.12.25-.25-.08-.36-.16l-.5-.34-1-.69a163.08,163.08,0,0,1-15.1-12q-4-3.58-7.8-7.43L47.94,282,47,281l-.46-.5s-.1-.14,0-.13h.3a19.41,19.41,0,0,0,5-.49,19.13,19.13,0,1,0-23.09-22.47c-.06.33-.23-.23-.32-.38l-.36-.56c-.24-.37-.47-.75-.7-1.13-.47-.75-.94-1.51-1.39-2.27q-1.37-2.27-2.65-4.58-2.57-4.6-4.83-9.35c-.06-.13-.56-1-.41-1.16.25-.33.52-.65.78-1q.81-1,1.68-1.86a39.44,39.44,0,0,1,3.78-3.41c.34-.26.68-.52,1-.77l.53-.38.26-.18c.09-.07.27-.07.19-.24-.66-1.34-1.31-2.68-2-4-1.27-2.63-2.55-5.26-3.82-7.9q-7-14.64-13.84-29.41C5.83,187,5,185.11,4.12,183.22l-.63-1.39a4.07,4.07,0,0,1-.6-1.36c0-.65-.09-1.3-.13-1.95-.16-2.58-.27-5.16-.31-7.74q-.12-7.74.47-15.44c.05-.65.1-1.31.16-2l.09-1c.06-.55.36.42.48.67.82,1.6,1.62,3.2,2.43,4.81q2.52,5,5,10.12,5.38,11.08,10.57,22.27,5.79,12.47,11.38,25c1,2.22,2,4.45,3,6.67l.75,1.7.38.86c.05.1.19.69.41.63q1-.28,2.07-.51a36.54,36.54,0,0,1,8.28-.83h.51c.36,0,.28-.3.32-.52.1-.61.21-1.22.32-1.83.21-1.21.43-2.43.65-3.64q.63-3.57,1.28-7.13,1.24-6.87,2.54-13.73,2.4-12.69,5-25.33c3.61-17.5,7.5-34.9,12.27-52.14,1.79-6.47,3.7-12.91,5.86-19.27.12-.35-.32-.17-.51-.2l-.68-.12-1.36-.23-2.73-.43q-2.71-.39-5.45-.71c-3.61-.41-7.24-.69-10.88-.86a163.36,163.36,0,0,0-21.45.42c-3.5.29-7,.7-10.44,1.22-1.71.26-3.42.55-5.13.86-.28,0-1.22.53-1,0s.38-.85.58-1.27c.39-.84.78-1.68,1.18-2.51a165.1,165.1,0,0,1,11.1-19.54c2.09-3.17,4.29-6.25,6.59-9.27.21-.26.43,0,.65,0l.65,0c.44,0,.87,0,1.31-.06l2.62-.1c1.75,0,3.51-.08,5.27-.09a194,194,0,0,1,185.35,253.1ZM81.25,101c-1.6,27-8.14,63.41-13.35,89.79q-2.45,12.38-5.05,24.71-.7,3.27-1.39,6.53l-.72,3.32-.09.42c0,.13-.3.3-.06.39l.46.17.91.37a36.78,36.78,0,0,1,6.88,3.77c.5.35,1,.7,1.46,1.06.31.25.9-.64,1-.79l1.13-1.09,4.45-4.28q4.33-4.16,8.68-8.27,8.15-7.74,16.39-15.36c11.13-10.28,22.39-20.4,33.95-30.19,6.2-5.26,12.48-10.4,18.92-15.37q4.11-3.18,8.31-6.24l2-1.41.49-.34c.07-.05.29-.05.18-.18l-.25-.25-1-1c-1.3-1.33-2.63-2.63-4-3.92A163.86,163.86,0,0,0,81.25,101ZM169,151.47c-17.16,20.89-43.86,46.51-63.58,64.79q-9.28,8.61-18.7,17.09l-5,4.49-2.54,2.28c-.49.43-.55.35-.17.93.17.27.34.54.5.81a37.12,37.12,0,0,1,3.32,7c.2.57.39,1.14.56,1.72.11.37,1.1,0,1.3,0l1.55-.22,6.13-.85L104.29,248q11.14-1.47,22.3-2.79c15-1.78,30.1-3.35,45.21-4.47,8.06-.6,16.12-1.07,24.2-1.32,3.44-.1,6.89-.16,10.34-.15h3c.17,0,.49.16.45-.14l-.21-1.43q-.42-2.86-.94-5.72A163.83,163.83,0,0,0,169,151.47Z"/>
    <g id="clicked-stroke-07">
      <path class="cls-4" d="M26.37,230.3Q13,202.94,2.9,180.52"/>
      <path class="cls-4" d="M37.41,225.17q-19.12-43.36-34.21-73"/>
      <path class="cls-4" d="M18.1,238l-.23-.13"/>
      <path class="cls-4" d="M62.55,295.63A37.5,37.5,0,1,0,18,238.12"/>
      <path class="cls-4" d="M46.42,280.39c16.37.91,26.22-17.85,16.18-30.81s-30.67-8.11-33.88,8"/>
      <path class="cls-4" d="M68.59,292.28q3.1,6.35,6,12.41"/>
      <path class="cls-4" d="M82.78,274c45,23.91,78.3,43.38,100.45,58.78"/>
      <path class="cls-4" d="M76.86,284.6c37.25,21.68,67.37,37.89,90.77,48.85"/>
      <path class="cls-4" d="M232.31,320.35A194,194,0,0,0,36.48,67.57"/>
      <path class="cls-4" d="M195.67,331.08A163.8,163.8,0,0,0,16.93,100.36"/>
      <path class="cls-4" d="M48.61,223.81c10-57.13,19.32-98,28.06-123.7"/>
      <path class="cls-4" d="M60.57,226.15C72.82,169.46,79.65,128.09,81.25,101"/>
      <path class="cls-4" d="M70.43,231.64c41.7-40.32,73.24-67.94,95.4-83.6"/>
      <path class="cls-4" d="M78.73,240.55C122,201.89,151.79,172.44,169,151.47"/>
      <path class="cls-4" d="M83.48,250.79c57.43-8.11,99.18-11.92,126.32-11.55"/>
      <path class="cls-4" d="M84.94,262.88c57.71-5.87,99.16-12.16,125.42-19"/>
    </g>
  </g>
  <g id="outlines">
    <circle class="cls-5" cx="167.8" cy="168.08" r="165.38"/>
  </g>
</svg>
