<svg xmlns="http://www.w3.org/2000/svg" viewBox="0 0 335.91 335.91">
  <defs>
    <style>
      .cls-1 {
        fill: #282828;
      }

      .cls-2 {
        fill: #efefef;
      }

      .cls-3, .cls-4, .cls-5 {
        fill: none;
        stroke-linecap: round;
        stroke-linejoin: round;
      }

      .cls-3 {
        stroke: #282828;
      }

      .cls-3, .cls-4 {
        stroke-width: 2px;
      }

      .cls-4 {
        stroke: #f4a657;
      }

      .cls-5 {
        stroke: #efefef;
        stroke-width: 4px;
      }
    </style>
  </defs>
  <g id="icon-backs-09">
    <circle class="cls-1" cx="166.98" cy="168.13" r="165.37"/>
  </g>
  <g id="unclicked-09">
    <path class="cls-2" d="M158.15,244.52c0-.25-.25,0-.38,0l-.37,0-.72,0-1.36-.09c-.82-.06-1.63-.14-2.44-.25a21,21,0,0,1-3.91-.86,12.62,12.62,0,0,1-5.52-3.67,16.67,16.67,0,0,1-3.4-5.73C138.26,229,137.61,224,137,219c-1.3-10.51-1.82-21-2.23-31.6-.74-18.66-.93-37.31-1-56,0-3.1,0-9.2.83-9.2h1.73c.2,0,0-.2,0-.3s0-.31,0-.46q-.13-3.7-.23-7.41t-.12-7.4l0-3.7v-1.38c0-.39-1.15-.11-1.34-.1l-8.07.25c-27.92.81-55.85,1.27-83.78,1.64l-21,.27-5.46.06h-.69c-.26,0,0-.25.09-.37l.36-.83.72-1.66c1-2.21,2-4.41,3.1-6.57A164.5,164.5,0,0,1,35.34,69.12q4.47-6,9.46-11.55c.42-.47.83-.93,1.26-1.39.2-.22.3-.54.71-.53h1l3.89.06,7.62.11q14.21.21,28.4.47,19.36.36,38.71.9l8.34.25,1,0c.13,0,.37.16.37-.09V52.55l0-12q0-12.27.08-24.53c0-2.1,0-4.22,0-6.32V6.53c0-.27,0-.54,0-.81s.51-.14.61-.16l.68-.12,2.7-.49a165,165,0,0,1,71,3.45l2.12.59,1.06.3c.15.05.4,0,.4.24V10c0,1.28,0,2.55,0,3.83l0,7.63q-.08,29.88-.16,59.76c0,8.58,0,17.15-.29,25.73-.11,3.21-.24,6.41-.4,9.62-.08,1.6-.17,3.21-.27,4.81l0,.6c0,.06-.11.19,0,.19h2.55c.16,0,0,.16,0,.24v1.48c0,1,0,2,0,2.94,0,1.9,0,3.8,0,5.7q0,5.4-.06,10.8c-.15,20.32-.4,40.61-1.78,60.91A201.13,201.13,0,0,1,212.11,225a42.12,42.12,0,0,1-2.74,10.22,15,15,0,0,1-4.83,6.16,12.66,12.66,0,0,1-4.81,2.22,27.81,27.81,0,0,1-3.28.59c-.64.07-1.29.14-1.94.18l-.53,0c-.36,0,.34.13.52.18l.83.25c1.07.33,2.13.69,3.19,1.09C211.2,250.7,220.67,259.46,226,272c.94,2.23,3.32,7.1.46,9.33-1.81,1.41-4.56,1.78-6.64,2.07a122.38,122.38,0,0,1-14.05.87c-11.07.25-22.13.13-33.2.15-9.4,0-18.8.09-28.21-.38a78,78,0,0,1-8.07-.72,17.75,17.75,0,0,1-4.87-1.26c-2.22-1-2.92-2.32-2.52-4.73.82-5,4.57-11.39,7.5-15.27C142.33,254.21,149.49,248.94,158.15,244.52Z"/>
    <g id="unclicked-stroke-09">
      <path class="cls-3" d="M133.75,122.18c0,101.33,4.76,111.92,9.55,117.22,3.28,3.66,6.6,4.79,14.85,5.1,3.63.18,8.24.18,14.21.18h5.22c7.21,0,12.4,0,16.33-.26,6.74-.46,9.77-1.7,12.77-5,4.79-5.27,9.55-15.86,9.52-117.19"/>
      <path class="cls-3" d="M136.35,122.18c-.26-6.92-.41-13.87-.41-20.8v-1.26q0-21.33.15-42.63c0-16.8.08-33.63.14-51.81"/>
      <polyline class="cls-3" points="216.2 122.18 213.6 122.18 136.35 122.18 133.75 122.18"/>
      <path class="cls-3" d="M214.81,9.41c-.09,28.14-.14,55.17-.23,82.17,0,10.21-.34,20.39-1,30.6"/>
      <path class="cls-3" d="M158.15,244.54c-18.89,9.63-25.73,22.29-28.38,29.7-3.55,9.83.29,10.32,48.53,10.21,48.25.11,52.09-.38,48.54-10.21-3.06-8.45-11.54-23.79-32.93-29.82"/>
      <path class="cls-3" d="M15.55,103.66q77.11-.85,120.39-2.28"/>
      <path class="cls-3" d="M46.55,55.65c36.65.49,66.44,1.09,89.54,1.84"/>
    </g>
  </g>
  <g id="clicked-09" class='hidden'>
    <path class="cls-2" d="M32.19,73.5a163.75,163.75,0,0,1,20-23.66c3.71-3.63,7.56-7.07,11.59-10.34q3-2.43,6.13-4.73c1-.76,2.09-1.51,3.14-2.25s1-.33,2-.15Q108,39,140.85,45.94q10.26,2.18,20.5,4.39l9.28,2,2.21.49,1.1.24c.18,0,.84.4.9.06l.54-2.84q2.18-11.37,4.36-22.74Q182,16,184.17,4.46c.05-.24.09-.48.14-.73.1-.52.52-.24.85-.21.88.1,1.76.19,2.63.3q2.66.33,5.3.73,5.37.83,10.67,2a164.29,164.29,0,0,1,43.06,16.11c3.55,1.92,7,4,10.41,6.15l1.28.83.63.42c.25.16.09.35.06.55-.15.78-.31,1.57-.46,2.35-.29,1.56-.59,3.11-.89,4.66l-6.8,35.42c-2.86,14.89-5.49,29.83-8.83,44.64q-.91,4.09-1.91,8.18c-.33,1.36-.67,2.72-1,4.08-.08.34-.17.68-.25,1,0,.09-.18.24,0,.27l.17,0,1.41.27.71.13.17,0h0c.21,0-.09.44-.11.55l-.12.64c-.31,1.67-.63,3.34-.95,5-.61,3.19-1.22,6.37-1.84,9.56-2.11,10.82-4.28,21.62-6.58,32.4C229,193.68,226,207.43,222,221c-1.83,6.29-3.61,12.48-6.8,18.31a17.22,17.22,0,0,1-5.91,6.63,12.59,12.59,0,0,1-4.51,1.83c-.29.05-.57.1-.86.13l-.44.05c-.59.06.44.38.71.52a46,46,0,0,1,14.19,11.23,47,47,0,0,1,7.31,11.7c.85,1.95,3.33,7.12,1.3,9.45-1.37,1.58-3.87,2-5.67,2.36a87.32,87.32,0,0,1-12.91,1c-7.44.24-14.87.23-22.31.23-9.11,0-18.23,0-27.34,0-5.79,0-11.57-.1-17.35-.52a33.16,33.16,0,0,1-9.29-1.5c-4.22-1.54-3.7-4.36-2.46-7.89,4.32-12.24,12.8-20.74,23.54-27.23,2-1.23,4.09-2.35,6.21-3.38,1.15-.56,2.3-1.09,3.47-1.6l.9-.39c.14-.06.67-.12.39-.18l-.19,0-.75-.16c-1.73-.38-3.45-.79-5.15-1.29a19.3,19.3,0,0,1-6.65-3,13.73,13.73,0,0,1-4.12-5.34,20.14,20.14,0,0,1-1.64-6.85,86.41,86.41,0,0,1,.15-14.39c1.16-16.15,3.77-32.05,6.41-48,2.23-13.45,4.65-26.86,7.15-40.25.37-2-2.5-6.67,1.49-5.91l1.66.32.42.08h.1c.19,0,.05-.18.06-.28l.06-.41c.08-.56.17-1.12.25-1.67.34-2.23.7-4.45,1.06-6.67s.76-4.43,1.15-6.65c.2-1.1.41-2.2.61-3.31l.16-.83c0-.14.05-.28.08-.41.09-.47-.38-.33-.66-.37l-8-1.25C115.88,88.38,74,81,32.19,73.5Z"/>
    <g id="clicked-stroke-09">
      <path class="cls-4" d="M73.66,32.1l.08,0Q136.8,44.83,174.81,53.28"/>
      <path class="cls-4" d="M32.19,73.5q87.29,15.61,134.35,22.89"/>
      <path class="cls-4" d="M163.08,116.9q1.51-10.31,3.46-20.51c.06-.43.14-.83.23-1.26q4-20.94,8-41.85c3.14-16.43,6.31-32.86,9.56-49.84"/>
      <path class="cls-4" d="M259.29,30.16c-5,25.73-9.31,48.45-13.68,71.19q-2.85,15.06-6.63,29.88"/>
      <path class="cls-4" d="M160.51,116.41c-18.8,99.58-16.09,110.88-12.37,117,2.8,4.62,6.17,6.26,16.06,8.37,3.12.63,6.89,1.35,11.54,2.22.86.17,1.7.31,2.56.49l2.57.49c11.62,2.19,17.94,3.37,22.35,3a13.1,13.1,0,0,0,7.21-2.83c5.68-4.32,12.31-13.84,31.12-113.42"/>
      <polyline class="cls-4" points="241.54 131.72 238.98 131.23 163.08 116.9 160.51 116.41"/>
      <path class="cls-4" d="M164.23,241.71l0,0c-23.53,9.83-31.52,24.33-34.43,32.5-3.55,9.83.29,10.32,48.53,10.21,48.25.11,52.09-.38,48.54-10.21A47,47,0,0,0,203.22,248"/>
    </g>
  </g>
  <g id="outlines">
    <circle class="cls-5" cx="167.87" cy="168.02" r="165.38"/>
  </g>
</svg>
