<svg xmlns="http://www.w3.org/2000/svg" viewBox="0 0 72 72">
  <defs>
    <style>
      .cls-1 {
        fill: #282828;
      }

      .cls-2, .cls-4 {
        fill: #efefef;
      }

      .cls-3 {
        fill: none;
        stroke: #282828;
        stroke-linecap: round;
        stroke-linejoin: round;
      }

      .cls-4 {
        font-size: 12px;
        font-family: Inconsolata-Bold, Inconsolata;
        font-weight: 700;
      }
    </style>
  </defs>
  <g id="icon-2">
    <rect class="cls-1" width="72" height="72"/>
    <path class="cls-2" d="M53.93,6a4.78,4.78,0,0,0,.31-.85,3.42,3.42,0,0,0,.13-1,2.74,2.74,0,0,0-.16-.86c-.09-.24-.2-.41-.41-.45s-.37.08-.54.27a2.78,2.78,0,0,0-.48.74,3.91,3.91,0,0,0-.23.94,4.53,4.53,0,0,0,0,.9c0,.31.06.62,0,.84a.56.56,0,0,1-.28.46.85.85,0,0,0-.29.49Q49.26,21.47,46.5,35.4l-4.22-.08-8-1.51-8-1.51-3.89-1.43c0-.13,0-.26.08-.38a.78.78,0,0,0-.62-.91l-.77-.14a.78.78,0,0,0-.91.61l-5.1,27a16.25,16.25,0,0,0-.24,1.84c-.07,1.19-.15,2.37-.23,3.56a.37.37,0,0,0,.31.4l.64.12a.38.38,0,0,0,.44-.27c.34-1.23.68-2.46,1-3.69.11-.41.21-.82.29-1.24q3.06.69,12,2.37t12,2.16c0,.21-.07.41-.1.61h-.08c-.56,3-.48,3.29-.37,3.47s.19.19.48.25a1.65,1.65,0,0,0-1,1c-.11.3,0,.31,1.44.31s1.54,0,1.44-.31a1.45,1.45,0,0,0-.7-.78.34.34,0,0,0,.21-.08c.17-.13.37-.41.92-3.37h-.07c.07-.3.14-.59.2-.89q2.52-13.2,5.06-26.41c.3-1.66.59-3.33.89-5l.19,0a.39.39,0,0,0,.46-.3l.63-3.31a.4.4,0,0,0-.31-.46L50.35,27l.87-4.9.2,0a.39.39,0,0,0,.45-.31c.21-1.1.42-2.2.64-3.31a.39.39,0,0,0-.31-.45L52,18l.87-4.9.19,0a.39.39,0,0,0,.46-.3l.63-3.32a.39.39,0,0,0-.31-.45L53.54,9l.21-1.17a.84.84,0,0,0-.08-.56.56.56,0,0,1-.1-.52A8.29,8.29,0,0,1,53.93,6ZM41.57,61.06q-3.12-.69-12-2.36c-5.94-1.12-9.95-1.85-12-2.16q1-5.51,2.08-11,3.06.67,12,2.36t12.05,2.17Q42.63,55.57,41.57,61.06Zm2.36-12.28q-3.26-.72-12-2.37t-12-2.16q1-5.36,2-10.71l4,.76,6,2.22,1.78.34,1.77.33,6.41.13,4.08.77Q45,43.43,43.93,48.78Z"/>
    <text class="cls-4" transform="translate(2.88 11.09)">I1</text>
  </g>
</svg>
