<svg xmlns="http://www.w3.org/2000/svg" viewBox="0 0 335.91 335.91">
  <defs>
    <style>
      .cls-1 {
        fill: #282828;
      }

      .cls-2 {
        fill: #efefef;
      }

      .cls-3, .cls-4, .cls-5 {
        fill: none;
        stroke-linecap: round;
        stroke-linejoin: round;
      }

      .cls-3 {
        stroke: #282828;
      }

      .cls-3, .cls-4 {
        stroke-width: 2px;
      }

      .cls-4 {
        stroke: #f4a657;
      }

      .cls-5 {
        stroke: #efefef;
        stroke-width: 4px;
      }
    </style>
  </defs>
  <g id="icon-backs-11">
    <circle class="cls-1" cx="167.02" cy="168.1" r="165.38"/>
  </g>
  <g id="unclicked-11">
    <path class="cls-2" d="M66.6,37.28A165.2,165.2,0,0,1,218,10.53a163.34,163.34,0,0,1,40.83,19.52q4.86,3.19,9.47,6.73c.19.15,1,.5.51.5h-7.9c-.44,0-.31.37-.31.66V73.61c0,.16-.14.41.13.41h22.44c.13,0,0,.13,0,.2v37.24c0,.39.38,1-.31,1H261.1c-.81,0-.51.22-.51.83v34.45c0,.25-.26,1.46.24,1.46h21.79c.59,0,.58,0,.58.56v37.85c0,.28-.28.06-.42.06H261c-.15,0-.39-.15-.39.12v35.92c0,.13-.18.7.08.7h22.22c.59,0,.31.54.31.88v37.12c0,.17.17.47-.14.47H260.83c-.24,0-.24.17-.24.36V299c0,.12-.12.65.1.65h7.2c.28,0-.18.21-.29.3q-3,2.28-6.14,4.43a165.3,165.3,0,0,1-175,7.72Q81,309,75.76,305.51c-1.76-1.17-3.48-2.38-5.19-3.61-.85-.62-1.7-1.25-2.54-1.89-.15-.12-.81-.36-.44-.36H83.94c.58,0,.27-.54.27-.87v-35.5c0-.12.25-.37,0-.37h-22c-.22,0-.57.19-.57-.19V224.87c0-.19-.09-.43.2-.43H84c.51,0,.2-1.2.2-1.46V188.57c0-.6.33-.87-.5-.87H62c-.63,0-.35-.56-.35-.94v-37c0-.2-.22-.53.14-.53H84c.27,0,.26-.19.26-.41V113.09c0-.22.26-.6-.15-.6H62c-.76,0-.42-.24-.42-.77V74.23c0-.51.47-.21.75-.21H84c.27,0,.26-.19.26-.39V37.31c0-.29-.28,0-.43,0H66.6Zm168,0H110.25V74h124.3V37.28Zm0,75.21H110.25v36.74h124.3V112.49Zm0,75.21H110.25v36.74h124.3V187.7Zm-124.3,75.21v36.74h124.3V262.91Z"/>
    <g id="unclicked-stroke-11">
      <line class="cls-3" x1="110.25" y1="224.44" x2="234.55" y2="224.44"/>
      <polyline class="cls-3" points="84.21 262.91 61.61 262.91 61.61 224.44 84.21 224.44"/>
      <line class="cls-3" x1="234.55" y1="262.91" x2="110.25" y2="262.91"/>
      <line class="cls-3" x1="110.25" y1="112.49" x2="234.55" y2="112.49"/>
      <polyline class="cls-3" points="84.21 74.02 61.61 74.02 61.61 112.49 84.21 112.49"/>
      <line class="cls-3" x1="234.55" y1="74.02" x2="110.25" y2="74.02"/>
      <line class="cls-3" x1="110.25" y1="187.7" x2="234.55" y2="187.7"/>
      <polyline class="cls-3" points="84.21 149.23 61.61 149.23 61.61 187.7 84.21 187.7"/>
      <line class="cls-3" x1="234.55" y1="149.23" x2="110.25" y2="149.23"/>
      <polyline class="cls-3" points="260.58 224.44 283.19 224.44 283.19 262.91 260.58 262.91"/>
      <polyline class="cls-3" points="260.58 112.49 283.19 112.49 283.19 74.02 260.58 74.02"/>
      <polyline class="cls-3" points="260.58 187.7 283.19 187.7 283.19 149.23 260.58 149.23"/>
      <polyline class="cls-3" points="84.21 310.81 84.21 290.32 84.21 240.69 84.21 193.29 84.21 143.65 84.21 96.25 84.21 46.61 84.21 25.39"/>
      <polyline class="cls-3" points="110.25 323.15 110.25 290.32 110.25 240.69 110.25 193.29 110.25 143.65 110.25 96.25 110.25 46.61 110.25 13.05"/>
      <polyline class="cls-3" points="234.54 16.81 234.54 46.61 234.54 96.25 234.54 143.65 234.54 193.29 234.54 240.69 234.54 290.32 234.54 319.39"/>
      <polyline class="cls-3" points="260.58 31.23 260.58 46.61 260.58 96.25 260.58 143.65 260.58 193.29 260.58 240.69 260.58 290.32 260.58 304.98"/>
      <line class="cls-3" x1="110.25" y1="299.65" x2="234.55" y2="299.65"/>
      <line class="cls-3" x1="110.25" y1="37.28" x2="234.55" y2="37.28"/>
      <line class="cls-3" x1="260.59" y1="299.65" x2="267.99" y2="299.65"/>
      <line class="cls-3" x1="67.55" y1="299.65" x2="84.21" y2="299.65"/>
      <line class="cls-3" x1="66.6" y1="37.28" x2="84.21" y2="37.28"/>
      <line class="cls-3" x1="260.59" y1="37.28" x2="268.94" y2="37.28"/>
    </g>
  </g>
  <g id="clicked-11" class='hidden'>
    <path class="cls-2" d="M298.59,66.93a165.18,165.18,0,0,1,26.75,151.39,163.3,163.3,0,0,1-19.51,40.83q-3.21,4.86-6.74,9.47c-.14.19-.5,1-.5.52v-7.91c0-.44-.37-.32-.66-.32H262.26c-.16,0-.41-.14-.41.14v22.44c0,.13-.13,0-.2,0H224.41c-.39,0-1,.39-1-.3V261.43c0-.81-.22-.52-.82-.52H188.11c-.26,0-1.47-.25-1.47.25V283c0,.59.05.57-.56.57H148.23c-.28,0-.06-.27-.06-.42V261.31c0-.15.15-.4-.12-.4H112.13c-.13,0-.7-.17-.7.08v22.23c0,.59-.54.3-.88.3H73.43c-.17,0-.47.18-.47-.13V261.16c0-.24-.16-.25-.36-.25H36.87c-.12,0-.65-.12-.65.11v7.2c0,.28-.21-.18-.29-.29-1.53-2-3-4.06-4.43-6.14a165.29,165.29,0,0,1-7.73-175q3.09-5.49,6.59-10.7c1.17-1.76,2.38-3.48,3.62-5.19.62-.86,1.25-1.7,1.88-2.55.12-.15.36-.8.36-.43V84.27c0,.58.54.28.88.28H72.59c.13,0,.37.24.37,0v-22c0-.22-.2-.57.19-.57H111c.19,0,.43-.09.43.19V84.34c0,.51,1.2.21,1.46.21H147.3c.6,0,.87.32.87-.52V62.29c0-.63.57-.35.94-.35h37c.2,0,.53-.21.53.14v22.2c0,.27.2.27.41.27h35.72c.23,0,.61.24.61-.16v-22c0-.76.24-.42.78-.42h37.48c.51,0,.21.47.21.75V84.28c0,.27.19.27.4.27h36.32c.28,0,0-.29,0-.44V66.93Zm0,167.94V110.59H261.85V234.87h36.74Zm-75.21,0V110.59H186.64V234.87h36.74Zm-75.21,0V110.59H111.43V234.87h36.74ZM73,110.59H36.22V234.87H73Z"/>
    <g id="clicked-stroke-11">
      <line class="cls-4" x1="111.43" y1="110.59" x2="111.43" y2="234.87"/>
      <polyline class="cls-4" points="72.96 84.55 72.96 61.94 111.43 61.94 111.43 84.55"/>
      <line class="cls-4" x1="72.96" y1="234.87" x2="72.96" y2="110.59"/>
      <line class="cls-4" x1="223.38" y1="110.59" x2="223.38" y2="234.87"/>
      <polyline class="cls-4" points="261.85 84.55 261.85 61.94 223.38 61.94 223.38 84.55"/>
      <line class="cls-4" x1="261.85" y1="234.87" x2="261.85" y2="110.59"/>
      <line class="cls-4" x1="148.17" y1="110.59" x2="148.17" y2="234.87"/>
      <polyline class="cls-4" points="186.64 84.55 186.64 61.94 148.17 61.94 148.17 84.55"/>
      <line class="cls-4" x1="186.64" y1="234.87" x2="186.64" y2="110.59"/>
      <polyline class="cls-4" points="111.43 260.91 111.43 283.52 72.96 283.52 72.96 260.91"/>
      <polyline class="cls-4" points="223.38 260.91 223.38 283.52 261.85 283.52 261.85 260.91"/>
      <polyline class="cls-4" points="148.17 260.91 148.17 283.52 186.64 283.52 186.64 260.91"/>
      <polyline class="cls-4" points="25.06 84.55 45.55 84.55 95.18 84.55 142.59 84.55 192.22 84.55 239.62 84.55 289.26 84.55 310.49 84.55"/>
      <polyline class="cls-4" points="12.72 110.58 45.55 110.58 95.18 110.58 142.59 110.58 192.22 110.58 239.62 110.58 289.26 110.58 322.82 110.58"/>
      <polyline class="cls-4" points="319.07 234.87 289.26 234.87 239.62 234.87 192.22 234.87 142.59 234.87 95.18 234.87 45.55 234.87 16.48 234.87"/>
      <polyline class="cls-4" points="304.64 260.91 289.26 260.91 239.62 260.91 192.22 260.91 142.59 260.91 95.18 260.91 45.55 260.91 30.9 260.91"/>
      <line class="cls-4" x1="36.22" y1="110.59" x2="36.22" y2="234.87"/>
      <line class="cls-4" x1="298.59" y1="110.59" x2="298.59" y2="234.87"/>
      <line class="cls-4" x1="36.22" y1="260.91" x2="36.22" y2="268.32"/>
      <line class="cls-4" x1="36.22" y1="67.88" x2="36.22" y2="84.55"/>
      <line class="cls-4" x1="298.59" y1="66.93" x2="298.59" y2="84.55"/>
      <line class="cls-4" x1="298.59" y1="260.91" x2="298.59" y2="269.27"/>
    </g>
  </g>
  <g id="outlines">
    <circle class="cls-5" cx="167.77" cy="168.1" r="165.38"/>
  </g>
</svg>
