<svg xmlns="http://www.w3.org/2000/svg" viewBox="0 0 335.91 335.91">
  <defs>
    <style>
      .cls-1 {
        fill: #282828;
      }

      .cls-2 {
        fill: #efefef;
      }

      .cls-3, .cls-4, .cls-5 {
        fill: none;
        stroke-linecap: round;
        stroke-linejoin: round;
      }

      .cls-3 {
        stroke: #282828;
      }

      .cls-3, .cls-4 {
        stroke-width: 2px;
      }

      .cls-4 {
        stroke: #f4a657;
      }

      .cls-5 {
        stroke: #efefef;
        stroke-width: 4px;
      }
    </style>
  </defs>
  <g id="icon-backs-10">
    <circle class="cls-1" cx="166.95" cy="168.15" r="165.37"/>
  </g>
  <g id="unclicked-10">
    <path class="cls-2" d="M60.34,293.94c7.68-26.7,15.07-53.46,23.87-79.83,3.41-10.21,7-20.33,11.26-30.23a134.81,134.81,0,0,1,11-20.91c5.19-7.9,10.8-14.42,19.28-19.16,5.24-2.93,11.1-4.39,16.1-8a9.94,9.94,0,0,0,4.38-7.75c0-.32.07-.64.1-1s1-.2,1.21-.2h40.93c.08,0,.63-.06.64.09s0,.34,0,.51.06.61.1.91a14.36,14.36,0,0,0,.25,1.46c.76,3.43,2.69,5.17,5.51,6.86a61.08,61.08,0,0,0,7.32,3.57,59.77,59.77,0,0,1,11.75,6.27c6.29,4.57,10.86,10.18,15.05,16.59,7.29,11.16,12.14,23.16,16.7,35.52,9.63,26.14,17.11,52.85,24.76,79.57l2.82,9.83q.69,2.43,1.39,4.84c.22.77.46.82-.26,1.44l-.91.76q-3.64,3-7.47,5.87a162.73,162.73,0,0,1-15.77,10.35,165.39,165.39,0,0,1-190-17.44Z"/>
    <path class="cls-2" d="M152.81,89q0-33,0-66.07c0-5.71,0-11.43,0-17.13V3.68c0-.52.48-.27.78-.3l1-.08c1.32-.11,2.64-.19,3.95-.27,2.6-.14,5.21-.22,7.81-.25,5.27,0,10.52.17,15.78.62l.5.05c.16,0,0,.16,0,.25V20.15q0,33,0,66.08c0,.66,0,1.31,0,2,0,.19-.2.84.15.84h5.88c.3,0,.05.57.05.72v3.8c0,.3-.29.07-.44.07H147.52c-.31,0-.79.25-.79-.28v-3c0-.25-.29-1.28.19-1.28h5.89Z"/>
    <path class="cls-2" d="M146.73,100.42h42c0,9.06,0,15.31.12,19.72H146.61C146.7,115.73,146.72,109.48,146.73,100.42Z"/>
    <g id="unclicked-stroke-10">
      <line class="cls-3" x1="188.8" y1="120.14" x2="146.61" y2="120.14"/>
      <path class="cls-3" d="M146.73,89c0,35.12,0,39.53-1.4,42.71s-4.19,5.14-12.33,8.64-21.62,8.54-35.88,39.78c-12.37,27.11-25.33,74-36.78,113.78"/>
      <path class="cls-3" d="M188.68,89c0,35.12,0,39.53,1.4,42.71s4.19,5.14,12.33,8.64,21.62,8.54,35.88,39.78c12.37,27.11,25.33,74,36.78,113.78"/>
      <line class="cls-3" x1="72.12" y1="253.09" x2="263.29" y2="253.09"/>
      <line class="cls-3" x1="80.11" y1="226.77" x2="255.3" y2="226.77"/>
      <line class="cls-3" x1="189.08" y1="126.94" x2="146.33" y2="126.94"/>
      <line class="cls-3" x1="146.73" y1="100.42" x2="188.68" y2="100.42"/>
      <line class="cls-3" x1="146.73" y1="93.62" x2="188.68" y2="93.62"/>
      <line class="cls-3" x1="182.6" y1="89.03" x2="182.62" y2="2.78"/>
      <line class="cls-3" x1="152.81" y1="89.03" x2="152.79" y2="2.78"/>
      <line class="cls-3" x1="146.73" y1="89.03" x2="188.68" y2="89.03"/>
    </g>
  </g>
  <g id="clicked-10" class='hidden'>
    <path class="cls-2" d="M123.56,327.53c-4.33-27.44-8.94-54.82-12.1-82.44-1.23-10.7-2.25-21.38-2.57-32.15a136,136,0,0,1,1.1-23.6c1.37-9.35,3.71-17.63,9.38-25.51,3.51-4.87,8.21-8.67,11.23-14a9.93,9.93,0,0,0,.7-8.87c-.1-.31-.21-.61-.32-.92s.82-.6,1-.69l1.72-.8,6.9-3.22,13.81-6.43,13.8-6.44.86-.4c.07,0,.54-.33.62-.2s.17.3.26.44.31.53.47.79c.27.42.55.83.85,1.22,2.13,2.79,4.63,3.55,7.89,3.89a61.45,61.45,0,0,0,8.14.14,59.91,59.91,0,0,1,13.3.72c7.63,1.48,14.15,4.63,20.65,8.67,11.33,7,20.79,15.86,30.15,25.14,19.77,19.61,37.84,40.67,56.07,61.64l6.71,7.73,3.3,3.79c.53.61.77.55.37,1.41-.16.36-.33.72-.5,1.08q-2,4.31-4.28,8.48a168.33,168.33,0,0,1-9.92,16,163.6,163.6,0,0,1-24.28,27.55A165.35,165.35,0,0,1,123.56,327.53Z"/>
    <path class="cls-2" d="M120.77,102.74q-14-29.94-27.94-59.88L85.59,27.34c-.31-.65-.61-1.3-.91-1.95-.22-.46.32-.45.58-.59l.86-.5c1.15-.65,2.31-1.29,3.47-1.91q3.45-1.84,7-3.53,7.14-3.4,14.56-6.1l.48-.17c.15-.06.08.13.12.21l.12.25.45,1c.3.66.61,1.31.91,2L115,19.89l3.64,7.83q14,29.94,27.92,59.89c.27.6.55,1.19.83,1.78.07.17.16.85.48.7l.89-.41L152.34,88l.89-.42c.28-.12.29.49.35.63l.33.71c.43.91.85,1.82,1.28,2.74.12.27-.23.19-.37.25l-.45.21-.89.41-1.78.83L137.48,100l-14.23,6.64-3.55,1.66-1.78.83c-.29.13-.61.55-.84.07l-.63-1.35c-.22-.47-.44-.93-.65-1.4-.11-.22-.81-1-.37-1.23l1.78-.83Z"/>
    <path class="cls-2" d="M120.07,115.63q19-8.86,38-17.73c3.84,8.21,6.5,13.86,8.44,17.83L128.3,133.55C126.51,129.52,123.89,123.84,120.07,115.63Z"/>
    <g id="clicked-stroke-10">
      <line class="cls-4" x1="115.26" y1="105.31" x2="153.28" y2="87.59"/>
      <line class="cls-4" x1="120.77" y1="102.74" x2="84.3" y2="24.58"/>
      <line class="cls-4" x1="147.77" y1="90.15" x2="111.33" y2="11.97"/>
      <line class="cls-4" x1="117.2" y1="109.47" x2="155.22" y2="91.74"/>
      <line class="cls-4" x1="120.07" y1="115.63" x2="158.09" y2="97.91"/>
      <line class="cls-4" x1="169.67" y1="121.77" x2="130.91" y2="139.84"/>
      <line class="cls-4" x1="113.09" y1="258.29" x2="271.86" y2="184.26"/>
      <line class="cls-4" x1="116.97" y1="285.53" x2="290.23" y2="204.74"/>
      <path class="cls-4" d="M153.28,87.59c14.84,31.82,16.7,35.81,19.32,38.11s6,2.88,14.82,2.62,23.2-1.4,49.33,20.88c22.67,19.35,54.21,56.33,81.42,87.58"/>
      <path class="cls-4" d="M115.26,105.31c14.84,31.83,16.7,35.82,16.78,39.3s-1.63,6.43-7.53,13-16,16.87-15.7,51.21c.25,29.8,8.3,77.73,14.75,118.67"/>
      <line class="cls-4" x1="166.53" y1="115.73" x2="128.3" y2="133.55"/>
    </g>
  </g>
  <g id="outlines">
    <circle class="cls-5" cx="167.71" cy="168.15" r="165.37"/>
  </g>
</svg>
