<svg xmlns="http://www.w3.org/2000/svg" viewBox="0 0 335.91 335.91">
  <defs>
    <style>
      .cls-1 {
        fill: #282828;
      }

      .cls-2 {
        fill: #efefef;
      }

      .cls-3, .cls-4, .cls-5 {
        fill: none;
        stroke-linecap: round;
        stroke-linejoin: round;
      }

      .cls-3 {
        stroke: #282828;
      }

      .cls-3, .cls-4 {
        stroke-width: 2px;
      }

      .cls-4 {
        stroke: #f4a657;
      }

      .cls-5 {
        stroke: #efefef;
        stroke-width: 4px;
      }
    </style>
  </defs>
  <g id="icon-backs-08">
    <circle class="cls-1" cx="166.98" cy="168.13" r="165.37"/>
  </g>
  <g id="unclicked-08">
    <path class="cls-2" d="M25.22,251.53A165.22,165.22,0,0,1,2.67,161.85,165.25,165.25,0,0,1,19.45,95.17q2.68-5.49,5.77-10.76,1.56-2.66,3.21-5.25c.55-.86,1.11-1.73,1.68-2.59.28-.43.57-.85.86-1.28.11-.17,1.31-.1,1.43-.1H221.33c.21,0,.51-.12.51.22v175c0,.42.37,1.1-.37,1.1H25.22ZM79.93,129.72a31.76,31.76,0,0,1-1-6.66c-.2-5.71,1-11.25,2-15.69.41-1.67.75-3.2,1.13-4.56a58.92,58.92,0,0,0-29.71,13.93A70.34,70.34,0,0,0,38,136.38a65.11,65.11,0,0,0-6.41,20.33,56.36,56.36,0,0,0,.67,20.07,60,60,0,0,0,9.4,22,72.78,72.78,0,0,0,19.49,19A52,52,0,0,0,83.56,226a70.37,70.37,0,0,0,24.92-1.12,62.36,62.36,0,0,0,21.19-9.75,58.7,58.7,0,0,0,16.27-16.47,62.06,62.06,0,0,0,8.82-24.11,70.35,70.35,0,0,0-1.18-25.57,53.85,53.85,0,0,0-9.46-20.62,65.44,65.44,0,0,0-18.05-16.12A74.86,74.86,0,0,0,103.69,103,51.52,51.52,0,0,0,90.47,102s0,0,0,0c-.17,1.47-.43,3.28-.72,5.36-.46,3.43-1,7.55-1.18,11.71a37.77,37.77,0,0,0,0,4.5h0a12.84,12.84,0,0,1,1.75-1,38.36,38.36,0,0,1,8.94-2.6,44.89,44.89,0,0,1,8-.75c1.59.06,1.62.43.58,1.36s-3.12,2.45-4.84,4a13.56,13.56,0,0,0-3.72,4.93,7.49,7.49,0,0,0-.24,5c.06.17.15.31.21.46.54,1,1.5,1.55,3.34,1.67,2.11.12,5.37-.35,8.71-.35a26.65,26.65,0,0,1,9.8,1.68,16.57,16.57,0,0,1,6.26,4.29c1,1.22.58,1.82-2,2.11s-7.21.37-11.19,1.07a35.83,35.83,0,0,0-9.49,3.08c-2.13,1.07-3.14,1.88-3.86,3.49a22.77,22.77,0,0,0-1.47,7.27c-.26,3.23-.29,7.21-.92,10.7a23.47,23.47,0,0,1-2.8,7.78c-.89,1.33-1.44,1.07-2.22-1s-1.85-5.91-3.17-9.23-2.94-6.17-5.37-8.07a15.81,15.81,0,0,0-9-3.06,21.21,21.21,0,0,0-9.63,1.94,66.15,66.15,0,0,0-7.06,4.23c-1.5.87-1.93.67-1.3-.86a21.62,21.62,0,0,1,4.38-6.6c2.17-2.2,4.85-3.67,6.75-5.08a9.57,9.57,0,0,0,3.52-4.18,4.8,4.8,0,0,0-.43-4.56,11.41,11.41,0,0,0-5.45-3.8,32,32,0,0,0-6.87-1.62c-1.67-.23-2.19-.26-2.1-.63s.83-1,2.83-2a36.75,36.75,0,0,1,8-2.6,50.68,50.68,0,0,1,7.47-.52A25.62,25.62,0,0,0,79.93,129.72Z"/>
    <g id="unclicked-stroke-08">
      <path class="cls-3" d="M82.15,102.81a58.92,58.92,0,0,0-29.71,13.93A70.34,70.34,0,0,0,38,136.38a65.11,65.11,0,0,0-6.41,20.33,56.36,56.36,0,0,0,.67,20.07,60,60,0,0,0,9.4,22,72.78,72.78,0,0,0,19.49,19A52,52,0,0,0,83.56,226a70.37,70.37,0,0,0,24.92-1.12,62.36,62.36,0,0,0,21.19-9.75,58.7,58.7,0,0,0,16.27-16.47,62.06,62.06,0,0,0,8.82-24.11,70.35,70.35,0,0,0-1.18-25.57,53.85,53.85,0,0,0-9.46-20.62,65.44,65.44,0,0,0-18.05-16.12A74.86,74.86,0,0,0,103.69,103,51.48,51.48,0,0,0,90.48,102"/>
      <path class="cls-3" d="M91.58,136.15a52.81,52.81,0,0,1-3-12.6,37.77,37.77,0,0,1,0-4.5c.2-4.16.72-8.28,1.18-11.71.29-2.08.55-3.89.72-5.36a23.42,23.42,0,0,0,.26-2.45c.12-1.65-.11-2.23-.92-2.77a7.36,7.36,0,0,0-3.32-1.16c-1.09,0-1.9.32-2.74,2.19a32.28,32.28,0,0,0-1.58,5c-.38,1.36-.72,2.89-1.13,4.56-1,4.44-2.25,10-2,15.69a31.76,31.76,0,0,0,1,6.66,30.16,30.16,0,0,0,5.42,10.87"/>
      <path class="cls-3" d="M79.93,129.72a25.62,25.62,0,0,1-3.84.43,50.68,50.68,0,0,0-7.47.52,36.75,36.75,0,0,0-8,2.6c-2,.92-2.72,1.61-2.83,2s.43.4,2.1.63a32,32,0,0,1,6.87,1.62,11.41,11.41,0,0,1,5.45,3.8,4.8,4.8,0,0,1,.43,4.56A9.57,9.57,0,0,1,69.11,150c-1.9,1.41-4.58,2.88-6.75,5.08A21.62,21.62,0,0,0,58,161.7c-.63,1.53-.2,1.73,1.3.86a66.15,66.15,0,0,1,7.06-4.23A21.21,21.21,0,0,1,76,156.39a15.81,15.81,0,0,1,9,3.06c2.43,1.9,4,4.73,5.37,8.07s2.39,7.19,3.17,9.23,1.33,2.34,2.22,1A23.47,23.47,0,0,0,98.5,170c.63-3.49.66-7.47.92-10.7a22.77,22.77,0,0,1,1.47-7.27c.72-1.61,1.73-2.42,3.86-3.49a35.83,35.83,0,0,1,9.49-3.08c4-.7,8.66-.75,11.19-1.07s2.94-.89,2-2.11a16.57,16.57,0,0,0-6.26-4.29,26.65,26.65,0,0,0-9.8-1.68c-3.34,0-6.6.47-8.71.35-1.84-.12-2.8-.66-3.34-1.67-.06-.15-.15-.29-.21-.46a7.49,7.49,0,0,1,.24-5,13.56,13.56,0,0,1,3.72-4.93c1.72-1.56,3.83-3.06,4.84-4s1-1.3-.58-1.36a44.89,44.89,0,0,0-8,.75,38.36,38.36,0,0,0-8.94,2.6,11.47,11.47,0,0,0-1.73,1"/>
      <polyline class="cls-3" points="31.04 75.19 221.84 75.19 221.84 251.53 25.22 251.53"/>
      <path class="cls-3" d="M221.84,75.19q-10.47,6.11-20.93,12.22c-3.42,2-7.66,5.52-7.65,10.22q0,32.7,0,65.41,0,33,0,66c0,4.72,4.23,8.21,7.67,10.21q10.46,6.14,20.93,12.24"/>
    </g>
  </g>
  <g id="clicked-08" class='hidden'>
    <path class="cls-2" d="M63.44,39.83l173,94.09,8.07,4.39,4,2.19c.54.3,1.14.42,1.51,1s.72,1.19,1.08,1.8l2.18,3.59,4.34,7.18q2.16,3.59,4.34,7.17a27.26,27.26,0,0,1,2.21,4.3c1.27,3.29,1.71,6-.1,9.31q-10.81,19.89-21.62,39.78-17.65,32.49-35.32,65l-4.44,8.15a22.24,22.24,0,0,1-2,3.46,8.9,8.9,0,0,1-2.93,2.35,16.89,16.89,0,0,1-7.23,1.76c-5.69.32-11.39.38-17.08.55l-4.44.13-2.22.07-1.12,0a5.33,5.33,0,0,1-1.44-.75l-1.81-1-3.61-2L101.08,261,14.56,214l-5-2.71-1.25-.67c-.32-.18-.3-.46-.37-.74l-.39-1.49c-.49-2-1-4-1.38-5.95q-1.26-5.9-2.08-11.85a165.58,165.58,0,0,1-1.55-23.12,162.58,162.58,0,0,1,7-46.94A165.23,165.23,0,0,1,63.44,39.83Zm46.31,80.23a14.14,14.14,0,0,1,2,0,39.07,39.07,0,0,1,9.09,2,42.91,42.91,0,0,1,7.38,3.17c1.38.81,1.24,1.15-.11,1.47s-3.93.67-6.17,1.21a13.46,13.46,0,0,0-5.66,2.57,7.37,7.37,0,0,0-2.53,4.27c-.24,1.38.28,2.45,2.07,3.58s4.87,2.24,7.82,3.83a27.24,27.24,0,0,1,7.81,6.14,16.77,16.77,0,0,1,3.43,6.75c.29,1.56-.34,1.87-2.74,1s-6.48-3.11-10.32-4.41a34.23,34.23,0,0,0-9.81-1.82c-2.39-.08-3.66.15-5.07,1.21a22.63,22.63,0,0,0-4.76,5.69,105.76,105.76,0,0,1-5.91,8.93,23.59,23.59,0,0,1-6.17,5.51c-1.45.75-1.76.26-1.47-1.93s1.21-6.06,1.64-9.63.35-6.81-.86-9.63a15.86,15.86,0,0,0-6.44-7,21.79,21.79,0,0,0-9.4-2.86,63.93,63.93,0,0,0-8.22.32c-1.72.06-2-.32-.72-1.38a22.09,22.09,0,0,1,7-3.72c2.94-.87,6-.87,8.33-1.21a9.28,9.28,0,0,0,5.11-2,4.77,4.77,0,0,0,1.79-4.21,11.76,11.76,0,0,0-2.94-5.94,32.89,32.89,0,0,0-5.28-4.68c-1.36-1-1.82-1.29-1.56-1.55s1.24-.52,3.43-.41a39,39,0,0,1,8.25,1.56,48.16,48.16,0,0,1,6.83,3.12,31.11,31.11,0,0,0,3.58,1.47A30.13,30.13,0,0,1,101.5,115c2.53-5.1,6.25-9.4,9.28-12.8,1.16-1.3,2.19-2.45,3.14-3.46A55.67,55.67,0,0,0,102,95.86a56.47,56.47,0,0,0-20.79,1,70.77,70.77,0,0,0-22.08,10.36A65,65,0,0,0,43.79,122a56.77,56.77,0,0,0-9,17.91,60,60,0,0,0-2.25,23.85,73.13,73.13,0,0,0,8.07,26A52,52,0,0,0,56.4,207.61a70.19,70.19,0,0,0,22.4,10.93,62.43,62.43,0,0,0,23.3,1.53,57.71,57.71,0,0,0,22.12-6.66,61.88,61.88,0,0,0,19.29-17,70.74,70.74,0,0,0,11.19-23.07,53.4,53.4,0,0,0,1.53-22.61A65.65,65.65,0,0,0,148.07,128a74.79,74.79,0,0,0-15.28-18.72A51.65,51.65,0,0,0,121.68,102c-.86,1.22-2,2.69-3.23,4.36-2,2.8-4.47,6.17-6.6,9.72A33.6,33.6,0,0,0,109.75,120.06Z"/>
    <path class="cls-2" d="M274.26,266.78c1.88-.28,6.06.44,7.15,1.79s-.92,3.35-2.79,3.64-3.72-1.19-4.82-2.54S272.33,267,274.26,266.78Z"/>
    <path class="cls-2" d="M247.82,259.46c2.05-1.79,7.53-4.12,9.86-3.38s1.5,4.68-.55,6.44-5.27,1.47-7.61.72S245.8,261.25,247.82,259.46Z"/>
    <path class="cls-2" d="M263.39,286.83c-1.58-2.2-3.43-7.88-2.45-10.13s4.79-1,6.37,1.16.95,5.39,0,7.64S265,289.05,263.39,286.83Z"/>
    <path class="cls-2" d="M292.26,241.41c-2.51,1-7.53,1.61-9,.23s.66-4.73,3.2-5.71,5.48.43,6.92,1.81S294.8,240.43,292.26,241.41Z"/>
    <g id="clicked-stroke-08">
      <line class="cls-4" x1="249.9" y1="141.23" x2="165.66" y2="296.14"/>
      <path class="cls-4" d="M63.46,39.86Q156.67,90.51,249.9,141.23c4.18,6.91,8.36,13.84,12.54,20.73,2.05,3.4,4.1,8.51,1.84,12.63q-15.6,28.72-31.23,57.47-15.74,29-31.54,58c-2.25,4.16-7.65,5.2-11.62,5.31q-12.12.39-24.23.75L8.12,210.49"/>
      <path class="cls-4" d="M99.16,121.36a31.11,31.11,0,0,1-3.58-1.47,48.16,48.16,0,0,0-6.83-3.12,39,39,0,0,0-8.25-1.56c-2.19-.11-3.17.15-3.43.41s.2.55,1.56,1.55a32.89,32.89,0,0,1,5.28,4.68,11.76,11.76,0,0,1,2.94,5.94A4.77,4.77,0,0,1,85.06,132,9.28,9.28,0,0,1,80,134c-2.33.34-5.39.34-8.33,1.21a22.09,22.09,0,0,0-7,3.72c-1.3,1.06-1,1.44.72,1.38a63.93,63.93,0,0,1,8.22-.32,21.79,21.79,0,0,1,9.4,2.86,15.86,15.86,0,0,1,6.44,7c1.21,2.82,1.26,6.05.86,9.63s-1.35,7.44-1.64,9.63,0,2.68,1.47,1.93a23.59,23.59,0,0,0,6.17-5.51,105.76,105.76,0,0,0,5.91-8.93,22.63,22.63,0,0,1,4.76-5.69c1.41-1.06,2.68-1.29,5.07-1.21a34.23,34.23,0,0,1,9.81,1.82c3.84,1.3,8,3.49,10.32,4.41s3,.61,2.74-1a16.77,16.77,0,0,0-3.43-6.75,27.24,27.24,0,0,0-7.81-6.14c-3-1.59-6-2.74-7.82-3.83s-2.31-2.2-2.07-3.58a7.37,7.37,0,0,1,2.53-4.27,13.46,13.46,0,0,1,5.66-2.57c2.24-.54,4.81-.86,6.17-1.21s1.49-.66.11-1.47a42.91,42.91,0,0,0-7.38-3.17,39.07,39.07,0,0,0-9.09-2,14.14,14.14,0,0,0-2,0"/>
      <path class="cls-4" d="M114,98.78h0A55.67,55.67,0,0,0,102,95.86a56.47,56.47,0,0,0-20.79,1,70.77,70.77,0,0,0-22.08,10.36A65,65,0,0,0,43.79,122a56.77,56.77,0,0,0-9,17.91,60,60,0,0,0-2.25,23.85,73.13,73.13,0,0,0,8.07,26A52,52,0,0,0,56.4,207.61a70.19,70.19,0,0,0,22.4,10.93,62.43,62.43,0,0,0,23.3,1.53,57.71,57.71,0,0,0,22.12-6.66,61.88,61.88,0,0,0,19.29-17,70.74,70.74,0,0,0,11.19-23.07,53.4,53.4,0,0,0,1.53-22.61A65.65,65.65,0,0,0,148.07,128a74.79,74.79,0,0,0-15.28-18.72A51.65,51.65,0,0,0,121.68,102"/>
      <path class="cls-4" d="M292.26,241.41c-2.51,1-7.53,1.61-9,.23s.66-4.73,3.2-5.71,5.48.43,6.92,1.81S294.8,240.43,292.26,241.41Z"/>
      <path class="cls-4" d="M274.26,266.78c1.88-.28,6.06.44,7.15,1.79s-.92,3.35-2.79,3.64-3.72-1.19-4.82-2.54S272.33,267,274.26,266.78Z"/>
      <path class="cls-4" d="M263.39,286.83c-1.58-2.2-3.43-7.88-2.45-10.13s4.79-1,6.37,1.16.95,5.39,0,7.64S265,289.05,263.39,286.83Z"/>
      <path class="cls-4" d="M247.82,259.46c2.05-1.79,7.53-4.12,9.86-3.38s1.5,4.68-.55,6.44-5.27,1.47-7.61.72S245.8,261.25,247.82,259.46Z"/>
      <path class="cls-4" d="M106.31,132.55a50.16,50.16,0,0,1,3.44-12.49,33.6,33.6,0,0,1,2.1-4c2.13-3.55,4.56-6.92,6.6-9.72,1.27-1.67,2.37-3.14,3.23-4.36.58-.8,1-1.47,1.39-2,.86-1.42,1-2,.52-2.89a7.4,7.4,0,0,0-2.37-2.59c-1-.58-1.84-.64-3.46.6a37.08,37.08,0,0,0-3.84,3.67c-1,1-2,2.16-3.14,3.46-3,3.4-6.75,7.7-9.28,12.8a30.13,30.13,0,0,0-2.34,6.32,31.06,31.06,0,0,0-.43,12.14"/>
    </g>
  </g>
  <g id="outlines">
    <circle class="cls-5" cx="167.87" cy="168.02" r="165.38"/>
  </g>
</svg>
