<svg xmlns="http://www.w3.org/2000/svg" viewBox="0 0 335.91 335.91">
  <defs>
    <style>
      .cls-1 {
        fill: #282828;
      }

      .cls-2 {
        fill: #efefef;
      }

      .cls-3, .cls-4, .cls-5 {
        fill: none;
        stroke-linecap: round;
        stroke-linejoin: round;
      }

      .cls-3 {
        stroke: #282828;
      }

      .cls-3, .cls-4 {
        stroke-width: 2px;
      }

      .cls-4 {
        stroke: #f4a657;
      }

      .cls-5 {
        stroke: #efefef;
        stroke-width: 4px;
      }
    </style>
  </defs>
  <g id="icon-backs-03">
    <circle class="cls-1" cx="166.92" cy="168.18" r="165.37"/>
  </g>
  <g id="unclicked-03">
    <path class="cls-2" d="M96,96.65c2.08,54.54,4.38,109.07,6.57,163.6q1.15,28.46,2.3,56.89c0,1.18.09,2.37.14,3.55,0,.18.16.59-.13.47l-.39-.16-.75-.31c-1-.43-2-.86-3-1.31q-3-1.33-6-2.81-6-3-11.76-6.39a164.46,164.46,0,0,1-22-15.77c-.23-.19-.61-.22-.59-.65l.06-1.61c.05-1.07.09-2.15.13-3.22q.14-3.23.26-6.44.27-6.45.52-12.89.53-12.87,1-25.76L66,153.92l1.82-45c.23-5.81.49-11.61.49-17.43V53.69c0-.39.33-.3.59-.3H94.94c.14,0,.37.25.4,0,0-.11,0-.23,0-.34s.06-.47.08-.7a193.08,193.08,0,0,1,3.87-21.86c.85-3.6,1.81-7.16,2.87-10.71.27-.89.54-1.78.82-2.67l.21-.66c.07-.24,0-.54.29-.67,1.1-.47,2.2-.92,3.32-1.36q6.6-2.61,13.38-4.64A162.44,162.44,0,0,1,173,2.89,165.4,165.4,0,0,1,301.24,265.7c-.39.53-.78,1.06-1.18,1.58-.8,1.08-.93.75-2.07.81-1.88.1-3.75.17-5.63.21-3.74.09-7.48.06-11.22-.07a192,192,0,0,1-22.2-2.07,193.16,193.16,0,0,1-81.8-32.73C130.2,200.56,104,152.22,96,96.65Z"/>
    <g id="unclicked-stroke-03">
      <polyline class="cls-3" points="95.98 96.65 96.24 103.46 105.01 321.22"/>
      <path class="cls-3" d="M96,96.65C103.11,146,124.61,190.2,163.52,223a193.14,193.14,0,0,0,136,45"/>
      <polyline class="cls-3" points="316.78 96.65 95.98 96.65 68.26 96.65 68.26 75.02 68.26 53.39 95.34 53.39 286.72 53.39"/>
      <line class="cls-3" x1="68.26" y1="96.65" x2="60.33" y2="293.87"/>
      <path class="cls-3" d="M103.56,15.35v0a191.74,191.74,0,0,0-8.22,38"/>
    </g>
  </g>
  <g id="clicked-03" class='hidden'>
    <path class="cls-2" d="M299.52,268a193,193,0,0,1-154.24-62.6,186.74,186.74,0,0,1-37.38-61.63,219.78,219.78,0,0,1-10.31-37.34c-.31-1.65-.6-3.31-.87-5-.14-.84-.27-1.67-.4-2.51l-.19-1.26c0-.34-.18-1.74-.15-1,0,.14,0,.29,0,.43s0,.57,0,.86c.63,16.52,1.32,33,2,49.55l6.93,172c0,.31,0,.63,0,.94s0,.32,0,.48.13.37-.06.29-.54-.22-.8-.33l-1.63-.68-3.22-1.42q-3.23-1.47-6.39-3.08-6.39-3.24-12.47-7T68.5,300.49c-1.93-1.46-3.84-3-5.71-4.5l-1.4-1.16-.69-.59-.35-.3c-.13-.11,0-.23,0-.35s0-.29,0-.43c.1-2.29.19-4.59.28-6.88q2.23-55,4.45-110,.84-20.7,1.67-41.41.4-10.35.83-20.71c.26-6.36.7-12.72.7-19.1V53.7c0-.1-.18-.31,0-.31h26c.15,0,1,.19,1-.11l.06-.51.12-1q.25-2,.54-4.08,1.16-8.09,3-16,1.66-7.25,3.89-14.33c.09-.3.18-.59.28-.89s.09-.3.14-.45c.12-.37.44-.34.71-.45,1.47-.61,3-1.21,4.44-1.78q4.44-1.7,9-3.14a169.17,169.17,0,0,1,18-4.63c1.49-.29,3-.57,4.48-.82l.28-.05c.11,0,0,.11,0,.17l-.19.4c-.12.27-.25.54-.38.8-.25.54-.49,1.08-.73,1.61-1,2.14-1.89,4.31-2.76,6.49q-2.61,6.49-4.64,13.19a161.52,161.52,0,0,0-5.77,27c-.57,4.54-1,9.08-1.13,13.65,0,1.14-.09,2.28-.11,3.42,0,.57,0,1.14,0,1.71,0,.28,0,.56,0,.85,0,.08,0,.65.08.71,1,.53,2,1,3.08,1.53a82.77,82.77,0,0,0,12.93,4.84,66.16,66.16,0,0,0,27.35,2.05,76.56,76.56,0,0,0,21.66-6.36c9.4-4.26,10.71-5.84,20.81-8.6,15.33-4.18,29.7-3.06,44.39,2.65,3.51,1.37,6.85,3.06,10.22,4.72a81.2,81.2,0,0,0,10.43,4.32,69.33,69.33,0,0,0,22.21,3.86,63.33,63.33,0,0,0,7.41-.4c1.22-.14,2.43-.3,3.64-.49l.46-.08.23,0c.39-.06.35.3.47.51,1.37,2.3,2.69,4.63,3.94,7,2.48,4.68,4.73,9.45,6.76,14.35A165.25,165.25,0,0,1,299.52,268Z"/>
    <g id="clicked-stroke-03">
      <path class="cls-4" d="M124.41,75.05c10.61,5.54,22.67,9,34.72,9s24.08-3.51,34.69-9,22.64-9,34.69-9,24.08,3.52,34.7,9,22.63,9,34.69,9a69.46,69.46,0,0,0,11.57-1,69.46,69.46,0,0,1-11.57,1c-12.06,0-24.08-3.51-34.69-9s-22.64-9-34.7-9-24.1,3.52-34.69,9-22.66,9-34.69,9S135,80.59,124.41,75.05Z"/>
      <path class="cls-4" d="M140.38,4.77a162.72,162.72,0,0,0,18.15,170c36.38,47,95.31,70.25,160,61.19-64.68,9.06-123.61-14.23-160-61.19a162.72,162.72,0,0,1-18.15-170Z"/>
      <path class="cls-4" d="M299.52,268a193.14,193.14,0,0,1-136-45C124.61,190.2,103.11,146,96,96.65c.08,2.27.17,4.53.26,6.81q4.38,108.87,8.77,217.76"/>
      <path class="cls-4" d="M103.56,15.35v0a191.74,191.74,0,0,0-8.22,38H68.26V96.65q-4,98.61-7.93,197.22"/>
    </g>
  </g>
  <g id="outlines">
    <circle class="cls-5" cx="167.67" cy="168.18" r="165.37"/>
  </g>
</svg>
