<svg xmlns="http://www.w3.org/2000/svg" viewBox="0 0 335.91 335.91">
  <defs>
    <style>
      .cls-1 {
        fill: #282828;
      }

      .cls-2 {
        fill: #efefef;
      }

      .cls-3, .cls-4, .cls-5 {
        fill: none;
        stroke-linecap: round;
        stroke-linejoin: round;
      }

      .cls-3 {
        stroke: #282828;
      }

      .cls-3, .cls-4 {
        stroke-width: 2px;
      }

      .cls-4 {
        stroke: #f4a657;
      }

      .cls-5 {
        stroke: #efefef;
        stroke-width: 4px;
      }
    </style>
  </defs>
  <g id="icon-backs-01">
    <circle class="cls-1" cx="166.98" cy="168.13" r="165.37"/>
  </g>
  <g id="unclicked-01">
    <path class="cls-2" d="M44.65,57.68q100.13-.13,200.26-.43l44-.1c1,0,1.11-.31,1.88.55l1,1.11q1,1.13,1.95,2.25c1.28,1.51,2.54,3,3.77,4.6q3.68,4.66,7,9.56a162.92,162.92,0,0,1,20.36,41.46,165.39,165.39,0,0,1-3.13,111.61c-.22.57-.44,1.13-.67,1.69l-.34.84c-.07.16-.08.86-.32.6s-.58-.63-.88-.94q-.88-.93-1.83-1.8a45,45,0,0,0-3.94-3.25,42.14,42.14,0,0,0-18.6-7.81,43.6,43.6,0,0,0-5.11-.54c-5.84-.28-11.68-.39-17.52-.58l-38.76-1.27-77.53-2.54h-.42c-.12,0-.48-.24-.38,0l.07.14.12.29.24.57c.16.38.31.77.46,1.15.3.78.57,1.56.83,2.35a46.34,46.34,0,0,1-3.58,36.42,45.71,45.71,0,0,1-6.47,9c-.29.32.32.28.54.35l1.5.47,3,.94,6,1.87,12,3.75,24,7.51q24,7.49,48.05,15l24,7.49.75.24c.26.08-.09.26-.21.35l-1,.78c-.69.51-1.4,1-2.1,1.52-1.41,1-2.83,2-4.27,2.94-2.87,1.91-5.78,3.72-8.76,5.45a165.24,165.24,0,0,1-119.92,18.1c-5.17-1.19-10.25-2.61-15.28-4.29q-3.83-1.27-7.59-2.74l-1.89-.74-1-.39-.47-.19c-.13-.06-.32,0-.39-.19-.19-.59-.38-1.18-.56-1.77q-2.33-7.35-4-14.86T96.7,289c-.37-2.54-.69-5.08-1-7.64-.13-1.27-.26-2.55-.37-3.83-.06-.64-.11-1.28-.16-1.92,0-.2,0-1.68-.3-1.82a46.29,46.29,0,0,1,9.29-88.06,45,45,0,0,1,4.64-.65q.58-.06,1.17-.09c.36,0,.26-.35.35-.55s.27-.64.41-.95c.27-.63.55-1.26.83-1.89,1.13-2.5,2.3-5,3.53-7.43a189.05,189.05,0,0,1,37.79-51.75,193.47,193.47,0,0,1,93-50.38,190.69,190.69,0,0,1,26.89-4c2.29-.18,4.57-.32,6.86-.42l.86,0c.06,0,.29,0,.18,0H276.2l-10.7,0-42.76.1q-65.34.15-130.67.31-11.68,0-23.39.06l-20.8,0H36.18c-.45,0,.16-.41.3-.6l.6-.78c.8-1,1.62-2.06,2.45-3.07Q42,60.62,44.65,57.68Z"/>
    <g id="unclicked-stroke-01">
      <polyline class="cls-3" points="280.72 67.59 107.87 67.99 78.74 68.08 36.02 68.13"/>
      <line class="cls-3" x1="147.03" y1="262.7" x2="267.23" y2="300.23"/>
      <path class="cls-3" d="M155.48,212.67l133.92,4.38a43.73,43.73,0,0,1,31.1,14.42"/>
      <path class="cls-3" d="M110.12,185A193.33,193.33,0,0,1,280.72,67.59a.79.79,0,0,1,.43,0c4.19-.18,8.37-.18,12.55-.06H294c1.72,0,3.47.13,5.19.24"/>
      <polyline class="cls-3" points="290.35 57.15 111.59 57.55 80.39 57.63 44.65 57.68"/>
      <line class="cls-3" x1="44.61" y1="57.72" x2="44.63" y2="57.72"/>
      <line class="cls-3" x1="36" y1="68.16" x2="36.04" y2="68.16"/>
      <path class="cls-3" d="M104.18,320.8l-.12-.37a193.92,193.92,0,0,1-9-46.51"/>
      <path class="cls-3" d="M147,262.7a46.26,46.26,0,0,1-40.34,14.39,45.24,45.24,0,0,1-11.59-3.2A46.29,46.29,0,0,1,110.12,185a44,44,0,0,1,9.29.32A46.29,46.29,0,0,1,147,262.7Z"/>
    </g>
  </g>
  <g id="clicked-01" class='hidden'>
    <path class="cls-2" d="M155.48,212.67a46.1,46.1,0,0,1-4.83,45.61c-.61.84-1.24,1.65-1.9,2.45l-1,1.17-.52.57-.13.14c-.16.17.17.16.29.2l1.68.52L176,271.74l53.86,16.82L256.79,297l6.74,2.1,3.36,1.05c.11,0,.45,0,.28.15l-.29.22-.58.43-1.18.87q-4.69,3.42-9.62,6.5a162.91,162.91,0,0,1-41.17,18.51,165.41,165.41,0,0,1-100.83-2.44c-1.71-.6-3.4-1.22-5.09-1.87-.84-.32-1.69-.65-2.53-1-.43-.18-1.6-.4-1.8-1-.54-1.63-1-3.28-1.53-4.93a191.33,191.33,0,0,1-4.78-20.07A195.41,195.41,0,0,1,95.15,275c0-.16,0-1.09-.24-1.19-.51-.22-1-.44-1.52-.68-1-.46-2-1-2.94-1.5A46.11,46.11,0,0,1,85,268.06a45.65,45.65,0,0,1-9.1-9.21,46.2,46.2,0,0,1-2.83-51,44.26,44.26,0,0,1,17.86-17.3A46,46,0,0,1,109,185.09l.81-.06c.25,0,.34-.15.43-.36.19-.43.37-.87.56-1.3q1.14-2.6,2.35-5.16,2.4-5.09,5.09-10a193.44,193.44,0,0,1,137.81-98.1c5.58-.92,11.16-1.61,16.79-2,1.42-.1,2.83-.2,4.25-.28l2.13-.1,1.06-.05h-6.71l-26.51.06-53,.13-53,.12L114.5,68l-6.63,0c-.18,0-.18.51-.21.6l-.22.6c-.28.8-.57,1.59-.85,2.39L99.74,90.77,98,95.56,97.17,98c-.14.4-.28.8-.43,1.2-.08.23.23.09.36.09h23.81c.23,0,0,.23-.07.35l-1.5,3c-2,4-4,7.94-6,11.91l-12,23.83-12,23.83-6,11.91c-1,2-2,4-3,6l-1.5,3-.75,1.5c0,.06-.15.32-.12.18l0-.31c0-.2.07-.4.1-.6l6.69-38.69c1.11-6.44,2.23-12.9,3.34-19.34l1.68-9.67c0-.21.06-.41.1-.61s0-.11-.11-.11H71.22c-.28,0,0-.27.06-.41s0-.27.07-.41.08-.55.13-.82c.17-1.1.35-2.2.52-3.3l1-6.58,4.2-26.34q.56-3.57,1.13-7.12c.09-.59.19-1.19.28-1.78,0-.15,0-.29.07-.44s-.13-.06-.22-.06H71.7l-20.76,0H36c-.16,0,.1-.13.15-.2l.15-.19.3-.39c1.59-2.08,3.23-4.11,4.93-6.11.85-1,1.7-2,2.57-3,.2-.22.22-.59.64-.59h6.42l9.34,0,18.68,0c.48,0,1.15.4,1.28-.39,0-.28.09-.56.13-.83.09-.56.18-1.11.26-1.67l.54-3.32q1.05-6.65,2.11-13.3l.27-1.66c0-.28.09-.56.13-.84s.35-.08.54-.08h34.09c.31,0,1-.28.82.26l-.59,1.65L114,50.71c-.79,2.21-1.59,4.42-2.37,6.63,0,.06,0,.13-.08.2-.09.26.27,0,.41,0h5l7.27,0,14.55,0,29.1-.07,87.43-.19,21.86,0,10.93,0h1.36c.37,0,.72-.14,1,.21s.67.73,1,1.1c.66.74,1.3,1.48,1.94,2.23A165.43,165.43,0,0,1,333,163.21a161.16,161.16,0,0,1-10.6,63.38c-.51,1.33-1,2.66-1.57,4-.2.48-.06,1.23-.65.6-.17-.19-.34-.38-.52-.56-.7-.74-1.42-1.44-2.17-2.13a43.73,43.73,0,0,0-27.23-11.39c-6.8-.36-13.6-.46-20.41-.68L247,215.66Z"/>
    <g id="clicked-stroke-01">
      <line class="cls-4" x1="78.74" y1="68.08" x2="36.02" y2="68.13"/>
      <line class="cls-4" x1="280.72" y1="67.59" x2="107.87" y2="67.99"/>
      <polyline class="cls-4" points="80.42 57.63 80.39 57.63 44.65 57.68"/>
      <line class="cls-4" x1="290.35" y1="57.15" x2="111.59" y2="57.55"/>
      <path class="cls-4" d="M147,262.7a46.26,46.26,0,0,1-40.34,14.39,45.24,45.24,0,0,1-11.59-3.2A46.29,46.29,0,0,1,110.12,185a44,44,0,0,1,9.29.32A46.29,46.29,0,0,1,147,262.7Z"/>
      <path class="cls-4" d="M110.12,185A193.33,193.33,0,0,1,280.72,67.59a.79.79,0,0,1,.43,0c4.19-.18,8.37-.18,12.55-.06H294c1.72,0,3.47.13,5.19.24"/>
      <path class="cls-4" d="M155.48,212.67l133.92,4.38a43.73,43.73,0,0,1,31.1,14.42"/>
      <line class="cls-4" x1="147.03" y1="262.7" x2="267.23" y2="300.23"/>
      <path class="cls-4" d="M104.18,320.8l-.12-.37a193.92,193.92,0,0,1-9-46.51"/>
      <polygon class="cls-4" points="71.22 115.34 78.74 68.08 80.42 57.63 83.93 35.55 119.46 35.55 111.59 57.55 107.87 67.99 96.71 99.25 121.02 99.25 77.79 184.75 89.79 115.34 71.22 115.34"/>
    </g>
  </g>
  <g id="outlines">
    <circle class="cls-5" cx="167.74" cy="168.13" r="165.37"/>
  </g>
</svg>
