<svg xmlns="http://www.w3.org/2000/svg" viewBox="0 0 335.91 335.91">
  <defs>
    <style>
      .cls-1 {
        fill: #282828;
      }

      .cls-2 {
        fill: #efefef;
      }

      .cls-3, .cls-4, .cls-5 {
        fill: none;
        stroke-linecap: round;
        stroke-linejoin: round;
      }

      .cls-3 {
        stroke: #282828;
      }

      .cls-3, .cls-4 {
        stroke-width: 2px;
      }

      .cls-4 {
        stroke: #f4a657;
      }

      .cls-5 {
        stroke: #efefef;
        stroke-width: 4px;
      }
    </style>
  </defs>
  <g id="icon-backs-04">
    <circle class="cls-1" cx="166.98" cy="168.13" r="165.37"/>
  </g>
  <g id="unclicked-04">
    <path class="cls-2" d="M201.87,49.9l-48.13,6.74q-6.41-9.69,0-19.41L201.87,44Z"/>
    <path class="cls-2" d="M2.2,168.26c0-.69.27-.42.76-.42H31.31c.18,0,.39-.06.39.2v93.67c0,.23.16,1.05-.1.67-.6-.87-1.2-1.74-1.78-2.62q-3.5-5.26-6.58-10.77A164.39,164.39,0,0,1,11.67,223.4,161.89,161.89,0,0,1,2.2,168.26Z"/>
    <path class="cls-2" d="M303.12,263V168.72c0-.33-.34-.88.25-.88h28.9c.12,0,.68-.2.68,0v.28c0,.76,0,1.51,0,2.27,0,1.52-.07,3.05-.13,4.57-.12,3.1-.33,6.18-.64,9.27A164,164,0,0,1,327.05,212,162.05,162.05,0,0,1,303.12,263Z"/>
    <path class="cls-2" d="M317.32,98.08a164.92,164.92,0,0,1,7.9,20.21q.81,2.55,1.53,5.11c.24.85.47,1.7.7,2.55,0,.11.05.21.08.32s.28.3.07.3H261a49.41,49.41,0,0,0-12.58,1.36,47.65,47.65,0,0,0-11.71,4.8c-1,.56-1.92,1.13-2.85,1.74l-.71.47c-.23.16-.37.44-.73.43l-1.8,0-7.2-.16-15.93-.34-8-.16c-1,0-.79-.13-1.2-.88-.23-.42-.47-.84-.73-1.25a20.27,20.27,0,0,0-1.47-2.1c-3.18-4-6.39-5.09-11.38-4.34-3.91.6-6.06,2.15-7.46,5.93a25.38,25.38,0,0,0-1.32,6.78c-.1,1.32-.16,2.65-.18,4,0,.69,0,1.37,0,2.06,0,.34,0,.69,0,1,0,.52-1.12.25-1.39.25l-19.74.42-4.94.1-2.47.06-1.23,0h-.31c-.26,0-.22-.2-.23-.39,0-.93,0-1.85,0-2.78.16-12.1,2.77-23.93,9.49-34.34a51.43,51.43,0,0,1,21.61-19.06,52.53,52.53,0,0,1,10.86-4,43,43,0,0,1,4.66-.87c.19,0,1.52,0,1.52-.34V70.15c0-.12-.17-1,.06-1h1.72c.13,0,.38.25.38,0V53c0-.33-.3-.87.28-.87h5.26c.23,0,.52.1.52-.24V39.32c0-.17-.18-.47.13-.47h29.74c.17,0,.18.11.18.24V51.62c0,.2-.25.55.12.55h4.7c.48,0,.2,1.38.2,1.63V69.17c0,.19.19,0,.29,0h2.9c.23,0,.49-.08.49.26V81c0,1-.1,10.61.13,11.64.81,3.66,5.62,4.54,8.39,4.92a72.09,72.09,0,0,0,10.17.49h58Z"/>
    <g id="unclicked-stroke-04">
      <polyline class="cls-3" points="31.7 262.52 31.7 167.84 2.2 167.84"/>
      <line class="cls-3" x1="260.9" y1="98.08" x2="260.29" y2="126.57"/>
      <polyline class="cls-3" points="303.12 263 303.12 167.84 332.95 167.84"/>
      <path class="cls-3" d="M327.61,126.57H260.29q-14.49-.34-27.74,8.8l-33.74-.72c-4.07-8-8.48-8.88-12.28-8.71s-6.95,1.41-8.71,4.93-2.11,9.37-2,15.23l-30.31.63c-1-46.28,33.13-60.39,48.13-61.57v-16h2.16v-17h6.06V38.85h30V52.17h5v17h3.68V91.54c0,6.2,9.55,6.63,20.28,6.54h56.43"/>
      <line class="cls-3" x1="195.81" y1="69.19" x2="236.94" y2="69.19"/>
      <line class="cls-3" x1="201.87" y1="52.17" x2="231.92" y2="52.17"/>
      <line class="cls-3" x1="31.7" y1="167.84" x2="303.12" y2="167.84"/>
      <line class="cls-3" x1="201.87" y1="43.98" x2="153.74" y2="37.23"/>
      <path class="cls-3" d="M153.74,56.64q-6.41-9.69,0-19.41"/>
      <line class="cls-3" x1="201.87" y1="49.9" x2="153.74" y2="56.64"/>
    </g>
  </g>
  <g id="clicked-04" class='hidden'>
    <path class="cls-2" d="M201.87,49.9l-9.34,3.37c-2.62.94-5.23,1.89-7.85,2.82a8.24,8.24,0,0,1-1.53.41,9.7,9.7,0,0,1-4-19c3.68-.91,6.45.59,9.59,1.73l9.34,3.37,3.32,1.2c.25.08.46.14.46.47V49.9Z"/>
    <path class="cls-2" d="M327.61,126.57c-22.73,0-45.45-.11-68.18,0a46.18,46.18,0,0,0-23.52,6.58c-.58.35-1.15.71-1.72,1.09-.29.18-.57.37-.84.56l-.41.29c-.14.1-.21.28-.43.28l-4.68-.1-18.73-.4-9.37-.2c-.35,0-.76.29-1-.2l-.42-.79c-.28-.49-.56-1-.86-1.45a19.91,19.91,0,0,0-1.73-2.34c-3-3.47-6.7-4.55-11.13-3.85a9.24,9.24,0,0,0-7.38,6.33,26.89,26.89,0,0,0-1.23,6.87c-.1,1.32-.14,2.65-.16,4,0,.68,0,1.37,0,2.05v.52c0,.08,0,.17,0,.25,0,.24-.24.06-.36.06l-1.78,0-14.24.3-7.13.15-3.56.07-1.78,0-.89,0h-.44c-.3,0-.14-.28-.14-.44,0-.34,0-.67,0-1-.07-13.17,2.64-26.08,10.31-37.26a51.44,51.44,0,0,1,21.83-18.35,50.76,50.76,0,0,1,12.3-4c.86-.16,1.72-.29,2.59-.39l.6-.06c.1,0,.52.11.52-.07V69.51c0-.11-.2-.32,0-.32h2.12c.11,0,0-.11,0-.17V52.81c0-.1-.12-.64.08-.64h5c.2,0,1,.2,1-.19V39c0-.07,0-.15.08-.15h29.63c.55,0,.34.48.34.82V51.35c0,.49-.31.82.42.82h4.4c.37,0,.2.35.2.57V68.89c0,.48.41.3.7.3h2.7c.43,0,.28.37.28.63v14c0,1.09-.12,7.86.16,9,.69,2.71,3.57,3.74,5.79,4.28a51.18,51.18,0,0,0,11.5,1c7.13.07,14.27,0,21.41,0h37.83c.15,0,.3.61.33.69.11.23.22.46.32.7.22.47.43.93.64,1.4q.63,1.41,1.23,2.82A165.27,165.27,0,0,1,327.61,126.57Z"/>
    <path class="cls-2" d="M2.2,168.26v-.38c0-.3.3,0,.45,0H31.38c.14,0,.32-.06.32.15v23.1c0,.14,0,.39.15.29l.27-.14,1.08-.55a80.28,80.28,0,0,1,18.43-6.61c13.61-3,25.58-2,38.62,2.64a128.84,128.84,0,0,1,13,5.81,82,82,0,0,0,13.29,5.12,66.2,66.2,0,0,0,28.23,2.21c9.68-1.34,18.27-4.67,26.89-9a76,76,0,0,1,27.2-8.14,67.17,67.17,0,0,1,28.86,3.53,104.45,104.45,0,0,1,13.38,5.82,83,83,0,0,0,13.57,5.39,66.56,66.56,0,0,0,27.27,2.6,72.29,72.29,0,0,0,11.66-2.33c1.91-.54,3.79-1.16,5.66-1.84.92-.35,1.85-.7,2.76-1.08l.69-.28.34-.15c.15-.06.1-.85.1-.94V167.86c0-.19.19,0,.29,0h29c.18,0,.51-.25.51.09v.37q0,6-.44,12A162.94,162.94,0,0,1,321,230,165.38,165.38,0,0,1,2.2,168.26Z"/>
    <g id="clicked-stroke-04">
      <path class="cls-4" d="M327.61,126.57H260.29a46.19,46.19,0,0,0-27.74,8.8l-33.74-.72c-4.07-8-8.48-8.88-12.28-8.71a9.27,9.27,0,0,0-8.71,4.93c-1.76,3.55-2.11,9.37-2,15.23l-30.31.63c-1-46.28,33.13-60.39,48.13-61.57v-16h2.16v-17h6.06V38.85h30V52.17h5v17h3.68V91.54c0,6.2,9.55,6.54,20.28,6.54h56.43"/>
      <path class="cls-4" d="M184.77,56.07a9.7,9.7,0,0,0,0-18.26"/>
      <polyline class="cls-4" points="2.2 167.84 31.7 167.84 31.7 191.46 31.7 262.52"/>
      <polyline class="cls-4" points="303.12 263 303.12 194.34 303.12 167.84 332.95 167.84"/>
      <path class="cls-4" d="M31.7,191.46c10.58-5.54,22.63-9.06,34.69-9.06s24.08,3.52,34.69,9.06,22.64,9,34.69,9,24.11-3.51,34.69-9,22.67-9.06,34.72-9.06,24.08,3.52,34.7,9.06,22.63,9,34.69,9a73.32,73.32,0,0,0,28.55-6.14"/>
      <path class="cls-4" d="M201.87,44l-17.1-6.17a9.7,9.7,0,1,0,0,18.26l17.1-6.17"/>
      <line class="cls-4" x1="201.87" y1="52.17" x2="231.92" y2="52.17"/>
      <line class="cls-4" x1="195.81" y1="69.19" x2="236.94" y2="69.19"/>
      <line class="cls-4" x1="260.9" y1="98.08" x2="260.29" y2="126.57"/>
    </g>
  </g>
  <g id="outlines">
    <circle class="cls-5" cx="167.87" cy="168.02" r="165.38"/>
  </g>
</svg>
